<svg width="55" height="37" viewBox="0 0 55 37" fill="none" xmlns="http://www.w3.org/2000/svg">
<path d="M20.9939 2.60244C20.2183 2.79926 19.4076 2.49668 18.8337 1.93894C17.5992 0.738945 15.9142 0 14.0565 0C10.271 0 7.20209 3.06888 7.20209 6.85452C7.20209 7.26637 7.23845 7.66976 7.3081 8.06164C7.39979 8.5775 7.22238 9.11654 6.81064 9.44056C3.22709 12.2606 0.925781 16.637 0.925781 21.5509C0.925781 30.057 7.8213 36.9525 16.3273 36.9525C20.7262 36.9525 24.6943 35.1084 27.5008 32.1512C30.3072 35.1084 34.2752 36.9525 38.6741 36.9525C47.1803 36.9525 54.0758 30.057 54.0758 21.5509C54.0758 17.044 52.1399 12.9891 49.0543 10.1726C48.6566 9.8096 48.5229 9.2394 48.6692 8.72123C48.8368 8.12776 48.9265 7.50163 48.9265 6.85452C48.9265 3.06888 45.8576 0 42.0719 0C40.3082 0 38.7 0.66623 37.4853 1.76063C36.94 2.25198 36.2033 2.51988 35.486 2.36445C33.3606 1.90387 31.0961 1.65534 28.7461 1.65534C26.019 1.65534 23.407 1.9901 20.9939 2.60244Z" fill="#A05E1C"/>
<path d="M7.23746 8.85248C7.15161 9.08046 7.00806 9.28526 6.81064 9.44063C3.22709 12.2607 0.925781 16.6371 0.925781 21.551C0.925781 30.057 7.8213 36.9526 16.3273 36.9526C20.7262 36.9526 24.6943 35.1085 27.5008 32.1513C30.3072 35.1085 34.2752 36.9526 38.6741 36.9526C47.1803 36.9526 54.0758 30.057 54.0758 21.551C54.0758 17.044 52.1399 12.9892 49.0543 10.1727C48.7547 9.89918 48.6049 9.50809 48.6118 9.11024L48.5321 9.3385C48.5321 9.3385 39.4495 8.0424 34.3509 13.1514C27.1612 20.3558 27.1612 28.7735 27.1612 28.7735C27.1612 28.7735 27.1612 19.7322 20.2173 13.1514C14.512 7.74448 7.26801 8.88819 7.26801 8.88819L7.23746 8.85248Z" fill="#E9C89C"/>
<path d="M26.1932 32.2119C26.7997 32.9191 27.8939 32.9191 28.5003 32.2119L29.8285 30.663C30.6737 29.6774 29.9733 28.1543 28.6749 28.1543H26.0186C24.7202 28.1543 24.0199 29.6774 24.8651 30.663L26.1932 32.2119Z" fill="black"/>
<path d="M38.3707 21.2807C39.4886 20.7168 40.065 19.0038 39.6581 17.4545C39.2512 15.9052 38.0151 15.1064 36.8972 15.6703C35.7793 16.2342 35.2029 17.9472 35.6098 19.4965C36.0167 21.0458 37.2528 21.8446 38.3707 21.2807Z" fill="black"/>
<path d="M37.2594 17.897C37.6775 17.7448 37.8931 17.2824 37.7409 16.8643C37.5887 16.4462 37.1264 16.2306 36.7083 16.3828C36.2901 16.535 36.0745 16.9973 36.2267 17.4154C36.3789 17.8335 36.8412 18.0491 37.2594 17.897Z" fill="white"/>
<path d="M16.6449 21.2809C15.527 20.717 14.9505 19.0039 15.3574 17.4546C15.7643 15.9053 17.0005 15.1065 18.1184 15.6704C19.2363 16.2343 19.8127 17.9474 19.4058 19.4967C18.9989 21.046 17.7628 21.8448 16.6449 21.2809Z" fill="black"/>
<path d="M17.7562 17.897C17.3381 17.7448 17.1225 17.2824 17.2747 16.8643C17.4269 16.4462 17.8892 16.2306 18.3074 16.3828C18.7255 16.535 18.9411 16.9973 18.7889 17.4154C18.6367 17.8336 18.1744 18.0492 17.7562 17.897Z" fill="white"/>
<path fill-rule="evenodd" clip-rule="evenodd" d="M30.78 28.6972C29.8625 29.2923 29.1524 30.0135 28.7801 30.4949L28.7168 30.446C29.0944 29.9579 29.811 29.2304 30.7365 28.6301C31.6618 28.0299 32.7992 27.5548 34.0172 27.5769L34.0158 27.6569C32.8192 27.6351 31.6975 28.1021 30.78 28.6972Z" fill="black"/>
<path fill-rule="evenodd" clip-rule="evenodd" d="M31.6073 29.7317C30.529 29.914 29.5911 30.2943 29.0583 30.5884L29.0196 30.5184C29.5598 30.2202 30.5063 29.8367 31.594 29.6529C32.6815 29.469 33.914 29.4842 35.0233 29.9877L34.9903 30.0606C33.9005 29.5659 32.6856 29.5495 31.6073 29.7317Z" fill="black"/>
<path fill-rule="evenodd" clip-rule="evenodd" d="M31.516 31.028C30.4323 30.8815 29.4237 30.9657 28.8275 31.0882L28.8114 31.0098C29.4159 30.8857 30.4335 30.8009 31.5267 30.9487C32.6197 31.0965 33.792 31.4774 34.7014 32.2879L34.6482 32.3477C33.7548 31.5514 32.5997 31.1745 31.516 31.028Z" fill="black"/>
<path fill-rule="evenodd" clip-rule="evenodd" d="M23.9505 28.6972C24.8679 29.2923 25.578 30.0135 25.9504 30.4949L26.0137 30.446C25.6361 29.9579 24.9195 29.2304 23.994 28.6301C23.0686 28.0299 21.9313 27.5548 20.7133 27.5769L20.7147 27.6569C21.9113 27.6351 23.033 28.1021 23.9505 28.6972Z" fill="black"/>
<path fill-rule="evenodd" clip-rule="evenodd" d="M23.131 29.7317C24.2092 29.914 25.1472 30.2943 25.68 30.5884L25.7186 30.5184C25.1784 30.2202 24.232 29.8367 23.1443 29.6529C22.0568 29.469 20.8242 29.4842 19.715 29.9877L19.748 30.0606C20.8377 29.5659 22.0526 29.5495 23.131 29.7317Z" fill="black"/>
<path fill-rule="evenodd" clip-rule="evenodd" d="M23.2204 31.028C24.3041 30.8815 25.3127 30.9657 25.9088 31.0882L25.9249 31.0098C25.3205 30.8857 24.3028 30.8009 23.2097 30.9487C22.1166 31.0965 20.9443 31.4774 20.0349 32.2879L20.0881 32.3477C20.9815 31.5514 22.1366 31.1745 23.2204 31.028Z" fill="black"/>
</svg>
