<svg width="308" height="116" viewBox="0 0 308 116" fill="none" xmlns="http://www.w3.org/2000/svg">
<path d="M5.6 7.888H12.392V0.904H17.096V19H12.392V11.536H5.6V19H0.896V0.904H5.6V7.888ZM24.5122 12.808C24.5122 13.208 24.5842 13.584 24.7282 13.936C24.8722 14.272 25.0642 14.568 25.3042 14.824C25.5602 15.08 25.8562 15.28 26.1922 15.424C26.5442 15.568 26.9202 15.64 27.3202 15.64C27.7042 15.64 28.0642 15.568 28.4002 15.424C28.7522 15.28 29.0482 15.08 29.2882 14.824C29.5442 14.568 29.7442 14.272 29.8882 13.936C30.0482 13.6 30.1282 13.24 30.1282 12.856C30.1282 12.472 30.0482 12.112 29.8882 11.776C29.7442 11.424 29.5442 11.12 29.2882 10.864C29.0482 10.608 28.7522 10.408 28.4002 10.264C28.0642 10.12 27.7042 10.048 27.3202 10.048C26.9202 10.048 26.5442 10.12 26.1922 10.264C25.8562 10.408 25.5602 10.608 25.3042 10.864C25.0642 11.12 24.8722 11.416 24.7282 11.752C24.5842 12.072 24.5122 12.424 24.5122 12.808ZM29.9842 6.688H34.3522V19H29.9842V17.632C29.0562 18.8 27.8002 19.384 26.2162 19.384C25.3202 19.384 24.4962 19.224 23.7442 18.904C22.9922 18.568 22.3362 18.104 21.7762 17.512C21.2162 16.92 20.7762 16.224 20.4562 15.424C20.1522 14.624 20.0002 13.752 20.0002 12.808C20.0002 11.928 20.1522 11.096 20.4562 10.312C20.7602 9.512 21.1842 8.816 21.7282 8.224C22.2722 7.632 22.9202 7.168 23.6722 6.832C24.4242 6.48 25.2562 6.304 26.1682 6.304C27.7042 6.304 28.9762 6.84 29.9842 7.912V6.688ZM37.3083 6.688H41.6523V8.2C42.8363 7.064 44.1643 6.496 45.6363 6.496C47.4603 6.496 48.8523 7.264 49.8123 8.8C50.7883 7.248 52.1803 6.472 53.9883 6.472C54.5643 6.472 55.1083 6.56 55.6203 6.736C56.1323 6.896 56.5723 7.16 56.9403 7.528C57.3083 7.88 57.5963 8.344 57.8043 8.92C58.0283 9.496 58.1403 10.192 58.1403 11.008V19H53.7963V12.928C53.7963 12.304 53.7483 11.792 53.6523 11.392C53.5723 10.992 53.4443 10.68 53.2683 10.456C53.1083 10.232 52.9163 10.08 52.6923 10C52.4683 9.92 52.2283 9.88 51.9723 9.88C50.5803 9.88 49.8843 10.896 49.8843 12.928V19H45.5403V12.928C45.5403 12.304 45.5003 11.792 45.4203 11.392C45.3403 10.976 45.2203 10.648 45.0603 10.408C44.9163 10.168 44.7243 10.008 44.4843 9.928C44.2443 9.832 43.9643 9.784 43.6443 9.784C43.3723 9.784 43.1163 9.824 42.8763 9.904C42.6363 9.984 42.4203 10.144 42.2283 10.384C42.0523 10.608 41.9083 10.928 41.7963 11.344C41.7003 11.744 41.6523 12.272 41.6523 12.928V19H37.3083V6.688ZM69.2808 9.856C68.4808 9.44 67.6968 9.232 66.9288 9.232C66.5288 9.232 66.2008 9.312 65.9448 9.472C65.7048 9.632 65.5848 9.848 65.5848 10.12C65.5848 10.264 65.6008 10.384 65.6328 10.48C65.6808 10.56 65.7688 10.64 65.8968 10.72C66.0408 10.8 66.2408 10.872 66.4968 10.936C66.7688 11 67.1208 11.08 67.5528 11.176C68.7528 11.416 69.6488 11.848 70.2408 12.472C70.8328 13.08 71.1288 13.864 71.1288 14.824C71.1288 15.544 70.9848 16.192 70.6968 16.768C70.4088 17.344 70.0088 17.832 69.4968 18.232C68.9848 18.616 68.3688 18.912 67.6488 19.12C66.9288 19.344 66.1368 19.456 65.2728 19.456C63.6088 19.456 61.9688 18.984 60.3528 18.04L61.9368 14.968C63.1528 15.8 64.3048 16.216 65.3928 16.216C65.7928 16.216 66.1208 16.128 66.3768 15.952C66.6328 15.776 66.7608 15.552 66.7608 15.28C66.7608 15.12 66.7368 14.992 66.6888 14.896C66.6568 14.784 66.5768 14.688 66.4488 14.608C66.3208 14.512 66.1288 14.432 65.8728 14.368C65.6328 14.288 65.3128 14.208 64.9128 14.128C63.5688 13.856 62.6248 13.456 62.0808 12.928C61.5528 12.384 61.2888 11.64 61.2888 10.696C61.2888 10.008 61.4168 9.392 61.6728 8.848C61.9288 8.288 62.2968 7.816 62.7768 7.432C63.2568 7.048 63.8328 6.752 64.5048 6.544C65.1928 6.336 65.9528 6.232 66.7848 6.232C68.1448 6.232 69.4648 6.496 70.7448 7.024L69.2808 9.856ZM78.5079 10.312V19H74.1639V10.312H72.7239V6.688H74.1639V2.992H78.5079V6.688H80.9799V10.312H78.5079ZM91.8474 11.056C91.7034 10.448 91.4074 9.96 90.9594 9.592C90.5114 9.224 89.9674 9.04 89.3274 9.04C88.6554 9.04 88.1034 9.216 87.6714 9.568C87.2554 9.92 86.9914 10.416 86.8794 11.056H91.8474ZM86.7594 13.576C86.7594 15.448 87.6394 16.384 89.3994 16.384C90.3434 16.384 91.0554 16 91.5354 15.232H95.7354C94.8874 18.048 92.7674 19.456 89.3754 19.456C88.3354 19.456 87.3834 19.304 86.5194 19C85.6554 18.68 84.9114 18.232 84.2874 17.656C83.6794 17.08 83.2074 16.392 82.8714 15.592C82.5354 14.792 82.3674 13.896 82.3674 12.904C82.3674 11.88 82.5274 10.96 82.8474 10.144C83.1674 9.312 83.6234 8.608 84.2154 8.032C84.8074 7.456 85.5194 7.016 86.3514 6.712C87.1994 6.392 88.1514 6.232 89.2074 6.232C90.2474 6.232 91.1834 6.392 92.0154 6.712C92.8474 7.016 93.5514 7.464 94.1274 8.056C94.7034 8.648 95.1434 9.376 95.4474 10.24C95.7514 11.088 95.9034 12.048 95.9034 13.12V13.576H86.7594ZM98.3864 6.688H102.73V8.704C103.194 7.968 103.762 7.408 104.434 7.024C105.106 6.624 105.89 6.424 106.786 6.424C106.898 6.424 107.018 6.424 107.146 6.424C107.29 6.424 107.45 6.44 107.626 6.472V10.624C107.05 10.336 106.426 10.192 105.754 10.192C104.746 10.192 103.986 10.496 103.474 11.104C102.978 11.696 102.73 12.568 102.73 13.72V19H98.3864V6.688ZM126.699 11.056C126.555 10.448 126.259 9.96 125.811 9.592C125.363 9.224 124.819 9.04 124.179 9.04C123.507 9.04 122.955 9.216 122.523 9.568C122.107 9.92 121.843 10.416 121.731 11.056H126.699ZM121.611 13.576C121.611 15.448 122.491 16.384 124.251 16.384C125.195 16.384 125.907 16 126.387 15.232H130.587C129.739 18.048 127.619 19.456 124.227 19.456C123.187 19.456 122.235 19.304 121.371 19C120.507 18.68 119.763 18.232 119.139 17.656C118.531 17.08 118.059 16.392 117.723 15.592C117.387 14.792 117.219 13.896 117.219 12.904C117.219 11.88 117.379 10.96 117.699 10.144C118.019 9.312 118.475 8.608 119.067 8.032C119.659 7.456 120.371 7.016 121.203 6.712C122.051 6.392 123.003 6.232 124.059 6.232C125.099 6.232 126.035 6.392 126.867 6.712C127.699 7.016 128.403 7.464 128.979 8.056C129.555 8.648 129.995 9.376 130.299 10.24C130.603 11.088 130.755 12.048 130.755 13.12V13.576H121.611ZM133.238 6.688H137.582V8.2C138.766 7.064 140.094 6.496 141.566 6.496C143.39 6.496 144.782 7.264 145.742 8.8C146.718 7.248 148.11 6.472 149.918 6.472C150.494 6.472 151.038 6.56 151.55 6.736C152.062 6.896 152.502 7.16 152.87 7.528C153.238 7.88 153.526 8.344 153.734 8.92C153.958 9.496 154.07 10.192 154.07 11.008V19H149.726V12.928C149.726 12.304 149.678 11.792 149.582 11.392C149.502 10.992 149.374 10.68 149.198 10.456C149.038 10.232 148.846 10.08 148.622 10C148.398 9.92 148.158 9.88 147.902 9.88C146.51 9.88 145.814 10.896 145.814 12.928V19H141.47V12.928C141.47 12.304 141.43 11.792 141.35 11.392C141.27 10.976 141.15 10.648 140.99 10.408C140.846 10.168 140.654 10.008 140.414 9.928C140.174 9.832 139.894 9.784 139.574 9.784C139.302 9.784 139.046 9.824 138.806 9.904C138.566 9.984 138.35 10.144 138.158 10.384C137.982 10.608 137.838 10.928 137.726 11.344C137.63 11.744 137.582 12.272 137.582 12.928V19H133.238V6.688ZM167.288 12.88C167.288 12.496 167.216 12.136 167.072 11.8C166.944 11.448 166.752 11.144 166.496 10.888C166.24 10.632 165.936 10.432 165.584 10.288C165.248 10.128 164.88 10.048 164.48 10.048C164.096 10.048 163.736 10.12 163.4 10.264C163.064 10.408 162.768 10.608 162.512 10.864C162.272 11.12 162.072 11.424 161.912 11.776C161.768 12.112 161.696 12.472 161.696 12.856C161.696 13.24 161.768 13.6 161.912 13.936C162.056 14.272 162.256 14.568 162.512 14.824C162.768 15.064 163.064 15.264 163.4 15.424C163.752 15.568 164.12 15.64 164.504 15.64C164.888 15.64 165.248 15.568 165.584 15.424C165.92 15.28 166.208 15.08 166.448 14.824C166.704 14.568 166.904 14.272 167.048 13.936C167.208 13.6 167.288 13.248 167.288 12.88ZM161.816 25.144H157.472V6.688H161.816V8.056C162.744 6.888 164.008 6.304 165.608 6.304C166.488 6.304 167.304 6.48 168.056 6.832C168.824 7.168 169.488 7.632 170.048 8.224C170.608 8.816 171.04 9.512 171.344 10.312C171.664 11.112 171.824 11.968 171.824 12.88C171.824 13.792 171.664 14.64 171.344 15.424C171.04 16.208 170.608 16.896 170.048 17.488C169.504 18.08 168.856 18.544 168.104 18.88C167.352 19.216 166.536 19.384 165.656 19.384C164.12 19.384 162.84 18.856 161.816 17.8V25.144ZM178.405 12.784C178.405 13.2 178.477 13.584 178.621 13.936C178.781 14.272 178.981 14.568 179.221 14.824C179.477 15.08 179.773 15.28 180.109 15.424C180.461 15.568 180.829 15.64 181.213 15.64C181.597 15.64 181.957 15.568 182.293 15.424C182.645 15.28 182.941 15.08 183.181 14.824C183.437 14.568 183.637 14.272 183.781 13.936C183.941 13.584 184.021 13.208 184.021 12.808C184.021 12.424 183.941 12.064 183.781 11.728C183.637 11.376 183.437 11.072 183.181 10.816C182.941 10.56 182.645 10.36 182.293 10.216C181.957 10.072 181.597 10 181.213 10C180.829 10 180.461 10.072 180.109 10.216C179.773 10.36 179.477 10.56 179.221 10.816C178.981 11.072 178.781 11.368 178.621 11.704C178.477 12.04 178.405 12.4 178.405 12.784ZM173.821 12.736C173.821 11.824 174.005 10.976 174.373 10.192C174.741 9.392 175.253 8.704 175.909 8.128C176.565 7.536 177.341 7.072 178.237 6.736C179.149 6.4 180.141 6.232 181.213 6.232C182.269 6.232 183.245 6.4 184.141 6.736C185.053 7.056 185.837 7.512 186.493 8.104C187.165 8.68 187.685 9.376 188.053 10.192C188.421 10.992 188.605 11.88 188.605 12.856C188.605 13.832 188.413 14.728 188.029 15.544C187.661 16.344 187.149 17.04 186.493 17.632C185.837 18.208 185.045 18.656 184.117 18.976C183.205 19.296 182.213 19.456 181.141 19.456C180.085 19.456 179.109 19.296 178.213 18.976C177.317 18.656 176.541 18.2 175.885 17.608C175.245 17.016 174.741 16.312 174.373 15.496C174.005 14.664 173.821 13.744 173.821 12.736ZM193.832 6.688L196.784 13.168L199.856 6.688H202.592L205.664 13.36L208.76 6.688H213.584L207.152 19H204.248L201.176 12.256L198.248 19H195.296L188.984 6.688H193.832ZM223.496 11.056C223.352 10.448 223.056 9.96 222.608 9.592C222.16 9.224 221.616 9.04 220.976 9.04C220.304 9.04 219.752 9.216 219.32 9.568C218.904 9.92 218.64 10.416 218.528 11.056H223.496ZM218.408 13.576C218.408 15.448 219.288 16.384 221.048 16.384C221.992 16.384 222.704 16 223.184 15.232H227.384C226.536 18.048 224.416 19.456 221.024 19.456C219.984 19.456 219.032 19.304 218.168 19C217.304 18.68 216.56 18.232 215.936 17.656C215.328 17.08 214.856 16.392 214.52 15.592C214.184 14.792 214.016 13.896 214.016 12.904C214.016 11.88 214.176 10.96 214.496 10.144C214.816 9.312 215.272 8.608 215.864 8.032C216.456 7.456 217.168 7.016 218 6.712C218.848 6.392 219.8 6.232 220.856 6.232C221.896 6.232 222.832 6.392 223.664 6.712C224.496 7.016 225.2 7.464 225.776 8.056C226.352 8.648 226.792 9.376 227.096 10.24C227.4 11.088 227.552 12.048 227.552 13.12V13.576H218.408ZM230.035 6.688H234.379V8.704C234.843 7.968 235.411 7.408 236.083 7.024C236.755 6.624 237.539 6.424 238.435 6.424C238.547 6.424 238.667 6.424 238.795 6.424C238.939 6.424 239.099 6.44 239.275 6.472V10.624C238.699 10.336 238.075 10.192 237.403 10.192C236.395 10.192 235.635 10.496 235.123 11.104C234.627 11.696 234.379 12.568 234.379 13.72V19H230.035V6.688ZM249.304 9.856C248.504 9.44 247.72 9.232 246.952 9.232C246.552 9.232 246.224 9.312 245.968 9.472C245.728 9.632 245.608 9.848 245.608 10.12C245.608 10.264 245.624 10.384 245.656 10.48C245.704 10.56 245.792 10.64 245.92 10.72C246.064 10.8 246.264 10.872 246.52 10.936C246.792 11 247.144 11.08 247.576 11.176C248.776 11.416 249.672 11.848 250.264 12.472C250.856 13.08 251.152 13.864 251.152 14.824C251.152 15.544 251.008 16.192 250.72 16.768C250.432 17.344 250.032 17.832 249.52 18.232C249.008 18.616 248.392 18.912 247.672 19.12C246.952 19.344 246.16 19.456 245.296 19.456C243.632 19.456 241.992 18.984 240.376 18.04L241.96 14.968C243.176 15.8 244.328 16.216 245.416 16.216C245.816 16.216 246.144 16.128 246.4 15.952C246.656 15.776 246.784 15.552 246.784 15.28C246.784 15.12 246.76 14.992 246.712 14.896C246.68 14.784 246.6 14.688 246.472 14.608C246.344 14.512 246.152 14.432 245.896 14.368C245.656 14.288 245.336 14.208 244.936 14.128C243.592 13.856 242.648 13.456 242.104 12.928C241.576 12.384 241.312 11.64 241.312 10.696C241.312 10.008 241.44 9.392 241.696 8.848C241.952 8.288 242.32 7.816 242.8 7.432C243.28 7.048 243.856 6.752 244.528 6.544C245.216 6.336 245.976 6.232 246.808 6.232C248.168 6.232 249.488 6.496 250.768 7.024L249.304 9.856ZM10.304 44.88C10.304 44.496 10.232 44.136 10.088 43.8C9.96 43.448 9.768 43.144 9.512 42.888C9.256 42.632 8.952 42.432 8.6 42.288C8.264 42.128 7.896 42.048 7.496 42.048C7.112 42.048 6.752 42.12 6.416 42.264C6.08 42.408 5.784 42.608 5.528 42.864C5.288 43.12 5.088 43.424 4.928 43.776C4.784 44.112 4.712 44.472 4.712 44.856C4.712 45.24 4.784 45.6 4.928 45.936C5.072 46.272 5.272 46.568 5.528 46.824C5.784 47.064 6.08 47.264 6.416 47.424C6.768 47.568 7.136 47.64 7.52 47.64C7.904 47.64 8.264 47.568 8.6 47.424C8.936 47.28 9.224 47.08 9.464 46.824C9.72 46.568 9.92 46.272 10.064 45.936C10.224 45.6 10.304 45.248 10.304 44.88ZM4.832 57.144H0.488V38.688H4.832V40.056C5.76 38.888 7.024 38.304 8.624 38.304C9.504 38.304 10.32 38.48 11.072 38.832C11.84 39.168 12.504 39.632 13.064 40.224C13.624 40.816 14.056 41.512 14.36 42.312C14.68 43.112 14.84 43.968 14.84 44.88C14.84 45.792 14.68 46.64 14.36 47.424C14.056 48.208 13.624 48.896 13.064 49.488C12.52 50.08 11.872 50.544 11.12 50.88C10.368 51.216 9.552 51.384 8.672 51.384C7.136 51.384 5.856 50.856 4.832 49.8V57.144ZM17.3161 38.688H21.6601V40.704C22.1241 39.968 22.6921 39.408 23.3641 39.024C24.0361 38.624 24.8201 38.424 25.7161 38.424C25.8281 38.424 25.9481 38.424 26.0761 38.424C26.2201 38.424 26.3801 38.44 26.5561 38.472V42.624C25.9801 42.336 25.3561 42.192 24.6841 42.192C23.6761 42.192 22.9161 42.496 22.4041 43.104C21.9081 43.696 21.6601 44.568 21.6601 45.72V51H17.3161V38.688ZM32.6936 44.784C32.6936 45.2 32.7656 45.584 32.9096 45.936C33.0696 46.272 33.2696 46.568 33.5096 46.824C33.7656 47.08 34.0616 47.28 34.3976 47.424C34.7496 47.568 35.1176 47.64 35.5016 47.64C35.8856 47.64 36.2456 47.568 36.5816 47.424C36.9336 47.28 37.2296 47.08 37.4696 46.824C37.7256 46.568 37.9256 46.272 38.0696 45.936C38.2296 45.584 38.3096 45.208 38.3096 44.808C38.3096 44.424 38.2296 44.064 38.0696 43.728C37.9256 43.376 37.7256 43.072 37.4696 42.816C37.2296 42.56 36.9336 42.36 36.5816 42.216C36.2456 42.072 35.8856 42 35.5016 42C35.1176 42 34.7496 42.072 34.3976 42.216C34.0616 42.36 33.7656 42.56 33.5096 42.816C33.2696 43.072 33.0696 43.368 32.9096 43.704C32.7656 44.04 32.6936 44.4 32.6936 44.784ZM28.1096 44.736C28.1096 43.824 28.2936 42.976 28.6616 42.192C29.0296 41.392 29.5416 40.704 30.1976 40.128C30.8536 39.536 31.6296 39.072 32.5256 38.736C33.4376 38.4 34.4296 38.232 35.5016 38.232C36.5576 38.232 37.5336 38.4 38.4296 38.736C39.3416 39.056 40.1256 39.512 40.7816 40.104C41.4536 40.68 41.9736 41.376 42.3416 42.192C42.7096 42.992 42.8936 43.88 42.8936 44.856C42.8936 45.832 42.7016 46.728 42.3176 47.544C41.9496 48.344 41.4376 49.04 40.7816 49.632C40.1256 50.208 39.3336 50.656 38.4056 50.976C37.4936 51.296 36.5016 51.456 35.4296 51.456C34.3736 51.456 33.3976 51.296 32.5016 50.976C31.6056 50.656 30.8296 50.2 30.1736 49.608C29.5336 49.016 29.0296 48.312 28.6616 47.496C28.2936 46.664 28.1096 45.744 28.1096 44.736ZM49.7383 38.688V57.144H45.3943V38.688H49.7383ZM45.1063 33.96C45.1063 33.624 45.1703 33.312 45.2983 33.024C45.4263 32.72 45.6023 32.456 45.8263 32.232C46.0503 32.008 46.3063 31.832 46.5943 31.704C46.8983 31.576 47.2183 31.512 47.5543 31.512C47.8903 31.512 48.2023 31.576 48.4903 31.704C48.7943 31.832 49.0583 32.008 49.2823 32.232C49.5063 32.456 49.6823 32.72 49.8103 33.024C49.9383 33.312 50.0023 33.624 50.0023 33.96C50.0023 34.296 49.9383 34.616 49.8103 34.92C49.6823 35.208 49.5063 35.464 49.2823 35.688C49.0583 35.912 48.7943 36.088 48.4903 36.216C48.2023 36.344 47.8903 36.408 47.5543 36.408C47.2183 36.408 46.8983 36.344 46.5943 36.216C46.3063 36.088 46.0503 35.912 45.8263 35.688C45.6023 35.464 45.4263 35.208 45.2983 34.92C45.1703 34.616 45.1063 34.296 45.1063 33.96ZM61.7068 43.056C61.5628 42.448 61.2668 41.96 60.8188 41.592C60.3708 41.224 59.8268 41.04 59.1868 41.04C58.5148 41.04 57.9628 41.216 57.5308 41.568C57.1148 41.92 56.8508 42.416 56.7388 43.056H61.7068ZM56.6188 45.576C56.6188 47.448 57.4988 48.384 59.2588 48.384C60.2028 48.384 60.9148 48 61.3948 47.232H65.5948C64.7468 50.048 62.6268 51.456 59.2348 51.456C58.1948 51.456 57.2428 51.304 56.3788 51C55.5148 50.68 54.7708 50.232 54.1468 49.656C53.5388 49.08 53.0668 48.392 52.7308 47.592C52.3948 46.792 52.2268 45.896 52.2268 44.904C52.2268 43.88 52.3868 42.96 52.7068 42.144C53.0268 41.312 53.4828 40.608 54.0748 40.032C54.6668 39.456 55.3788 39.016 56.2108 38.712C57.0588 38.392 58.0108 38.232 59.0668 38.232C60.1068 38.232 61.0428 38.392 61.8748 38.712C62.7068 39.016 63.4108 39.464 63.9868 40.056C64.5628 40.648 65.0028 41.376 65.3068 42.24C65.6108 43.088 65.7628 44.048 65.7628 45.12V45.576H56.6188ZM77.5338 42.672C76.7818 42.16 76.0218 41.904 75.2538 41.904C74.8378 41.904 74.4458 41.976 74.0778 42.12C73.7258 42.264 73.4138 42.472 73.1418 42.744C72.8698 43 72.6538 43.312 72.4938 43.68C72.3498 44.032 72.2778 44.432 72.2778 44.88C72.2778 45.312 72.3498 45.712 72.4938 46.08C72.6538 46.432 72.8618 46.744 73.1178 47.016C73.3898 47.272 73.7098 47.472 74.0778 47.616C74.4458 47.76 74.8378 47.832 75.2538 47.832C76.0698 47.832 76.8298 47.552 77.5338 46.992V50.688C76.4618 51.152 75.4458 51.384 74.4858 51.384C73.5898 51.384 72.7338 51.232 71.9178 50.928C71.1178 50.624 70.4058 50.192 69.7818 49.632C69.1738 49.056 68.6858 48.376 68.3178 47.592C67.9498 46.792 67.7658 45.904 67.7658 44.928C67.7658 43.952 67.9418 43.064 68.2938 42.264C68.6458 41.448 69.1258 40.752 69.7338 40.176C70.3418 39.584 71.0618 39.128 71.8938 38.808C72.7418 38.472 73.6458 38.304 74.6058 38.304C75.6618 38.304 76.6378 38.528 77.5338 38.976V42.672ZM84.8594 42.312V51H80.5154V42.312H79.0754V38.688H80.5154V34.992H84.8594V38.688H87.3314V42.312H84.8594ZM97.2418 41.856C96.4418 41.44 95.6578 41.232 94.8898 41.232C94.4898 41.232 94.1618 41.312 93.9058 41.472C93.6658 41.632 93.5458 41.848 93.5458 42.12C93.5458 42.264 93.5618 42.384 93.5938 42.48C93.6418 42.56 93.7298 42.64 93.8578 42.72C94.0018 42.8 94.2018 42.872 94.4578 42.936C94.7298 43 95.0818 43.08 95.5138 43.176C96.7138 43.416 97.6098 43.848 98.2018 44.472C98.7938 45.08 99.0898 45.864 99.0898 46.824C99.0898 47.544 98.9458 48.192 98.6578 48.768C98.3698 49.344 97.9698 49.832 97.4578 50.232C96.9458 50.616 96.3298 50.912 95.6098 51.12C94.8898 51.344 94.0978 51.456 93.2338 51.456C91.5698 51.456 89.9298 50.984 88.3138 50.04L89.8978 46.968C91.1138 47.8 92.2658 48.216 93.3538 48.216C93.7538 48.216 94.0818 48.128 94.3378 47.952C94.5938 47.776 94.7218 47.552 94.7218 47.28C94.7218 47.12 94.6978 46.992 94.6497 46.896C94.6178 46.784 94.5378 46.688 94.4098 46.608C94.2818 46.512 94.0898 46.432 93.8338 46.368C93.5938 46.288 93.2738 46.208 92.8738 46.128C91.5298 45.856 90.5858 45.456 90.0418 44.928C89.5138 44.384 89.2498 43.64 89.2498 42.696C89.2498 42.008 89.3778 41.392 89.6338 40.848C89.8898 40.288 90.2578 39.816 90.7378 39.432C91.2178 39.048 91.7938 38.752 92.4658 38.544C93.1538 38.336 93.9138 38.232 94.7458 38.232C96.1058 38.232 97.4258 38.496 98.7058 39.024L97.2418 41.856ZM113.481 44.808C113.481 45.208 113.553 45.584 113.697 45.936C113.841 46.272 114.033 46.568 114.273 46.824C114.529 47.08 114.825 47.28 115.161 47.424C115.513 47.568 115.889 47.64 116.289 47.64C116.673 47.64 117.033 47.568 117.369 47.424C117.721 47.28 118.017 47.08 118.257 46.824C118.513 46.568 118.713 46.272 118.857 45.936C119.017 45.6 119.097 45.24 119.097 44.856C119.097 44.472 119.017 44.112 118.857 43.776C118.713 43.424 118.513 43.12 118.257 42.864C118.017 42.608 117.721 42.408 117.369 42.264C117.033 42.12 116.673 42.048 116.289 42.048C115.889 42.048 115.513 42.12 115.161 42.264C114.825 42.408 114.529 42.608 114.273 42.864C114.033 43.12 113.841 43.416 113.697 43.752C113.553 44.072 113.481 44.424 113.481 44.808ZM118.953 38.688H123.321V51H118.953V49.632C118.025 50.8 116.769 51.384 115.185 51.384C114.289 51.384 113.465 51.224 112.713 50.904C111.961 50.568 111.305 50.104 110.745 49.512C110.185 48.92 109.745 48.224 109.425 47.424C109.121 46.624 108.969 45.752 108.969 44.808C108.969 43.928 109.121 43.096 109.425 42.312C109.729 41.512 110.153 40.816 110.697 40.224C111.241 39.632 111.889 39.168 112.641 38.832C113.393 38.48 114.225 38.304 115.137 38.304C116.673 38.304 117.945 38.84 118.953 39.912V38.688ZM126.277 38.688H130.621V40.248C131.213 39.528 131.813 39.048 132.421 38.808C133.029 38.552 133.741 38.424 134.557 38.424C135.421 38.424 136.157 38.568 136.765 38.856C137.389 39.128 137.917 39.52 138.349 40.032C138.701 40.448 138.941 40.912 139.069 41.424C139.197 41.936 139.261 42.52 139.261 43.176V51H134.917V44.784C134.917 44.176 134.869 43.688 134.773 43.32C134.693 42.936 134.541 42.632 134.317 42.408C134.125 42.216 133.909 42.08 133.669 42C133.429 41.92 133.173 41.88 132.901 41.88C132.165 41.88 131.597 42.104 131.197 42.552C130.813 42.984 130.621 43.608 130.621 44.424V51H126.277V38.688ZM146.247 44.808C146.247 45.208 146.319 45.584 146.463 45.936C146.607 46.272 146.799 46.568 147.039 46.824C147.295 47.08 147.591 47.28 147.927 47.424C148.279 47.568 148.655 47.64 149.055 47.64C149.439 47.64 149.799 47.568 150.135 47.424C150.487 47.28 150.783 47.08 151.023 46.824C151.279 46.568 151.479 46.272 151.623 45.936C151.783 45.6 151.863 45.24 151.863 44.856C151.863 44.472 151.783 44.112 151.623 43.776C151.479 43.424 151.279 43.12 151.023 42.864C150.783 42.608 150.487 42.408 150.135 42.264C149.799 42.12 149.439 42.048 149.055 42.048C148.671 42.048 148.303 42.12 147.951 42.264C147.615 42.408 147.319 42.608 147.063 42.864C146.823 43.12 146.623 43.416 146.463 43.752C146.319 44.072 146.247 44.424 146.247 44.808ZM151.719 31.08H156.087V51H151.719V49.632C150.791 50.8 149.535 51.384 147.951 51.384C147.055 51.384 146.231 51.216 145.479 50.88C144.727 50.544 144.071 50.08 143.511 49.488C142.951 48.896 142.511 48.2 142.191 47.4C141.887 46.6 141.735 45.736 141.735 44.808C141.735 43.928 141.879 43.096 142.167 42.312C142.471 41.512 142.895 40.816 143.439 40.224C143.983 39.632 144.631 39.168 145.383 38.832C146.151 38.48 146.991 38.304 147.903 38.304C149.439 38.304 150.711 38.84 151.719 39.912V31.08ZM171.231 44.808C171.231 45.208 171.303 45.584 171.447 45.936C171.591 46.272 171.783 46.568 172.023 46.824C172.279 47.08 172.575 47.28 172.911 47.424C173.263 47.568 173.639 47.64 174.039 47.64C174.423 47.64 174.783 47.568 175.119 47.424C175.471 47.28 175.767 47.08 176.007 46.824C176.263 46.568 176.463 46.272 176.607 45.936C176.767 45.6 176.847 45.24 176.847 44.856C176.847 44.472 176.767 44.112 176.607 43.776C176.463 43.424 176.263 43.12 176.007 42.864C175.767 42.608 175.471 42.408 175.119 42.264C174.783 42.12 174.423 42.048 174.039 42.048C173.655 42.048 173.287 42.12 172.935 42.264C172.599 42.408 172.303 42.608 172.047 42.864C171.807 43.12 171.607 43.416 171.447 43.752C171.303 44.072 171.231 44.424 171.231 44.808ZM176.703 31.08H181.071V51H176.703V49.632C175.775 50.8 174.519 51.384 172.935 51.384C172.039 51.384 171.215 51.216 170.463 50.88C169.711 50.544 169.055 50.08 168.495 49.488C167.935 48.896 167.495 48.2 167.175 47.4C166.871 46.6 166.719 45.736 166.719 44.808C166.719 43.928 166.863 43.096 167.151 42.312C167.455 41.512 167.879 40.816 168.423 40.224C168.967 39.632 169.615 39.168 170.367 38.832C171.135 38.48 171.975 38.304 172.887 38.304C174.423 38.304 175.695 38.84 176.703 39.912V31.08ZM193.027 43.056C192.883 42.448 192.587 41.96 192.139 41.592C191.691 41.224 191.147 41.04 190.507 41.04C189.835 41.04 189.283 41.216 188.851 41.568C188.435 41.92 188.171 42.416 188.059 43.056H193.027ZM187.939 45.576C187.939 47.448 188.819 48.384 190.579 48.384C191.523 48.384 192.235 48 192.715 47.232H196.915C196.067 50.048 193.947 51.456 190.555 51.456C189.515 51.456 188.563 51.304 187.699 51C186.835 50.68 186.091 50.232 185.467 49.656C184.859 49.08 184.387 48.392 184.051 47.592C183.715 46.792 183.547 45.896 183.547 44.904C183.547 43.88 183.707 42.96 184.027 42.144C184.347 41.312 184.803 40.608 185.395 40.032C185.987 39.456 186.699 39.016 187.531 38.712C188.379 38.392 189.331 38.232 190.387 38.232C191.427 38.232 192.363 38.392 193.195 38.712C194.027 39.016 194.731 39.464 195.307 40.056C195.883 40.648 196.323 41.376 196.627 42.24C196.931 43.088 197.083 44.048 197.083 45.12V45.576H187.939ZM202.388 38.688L205.316 45L208.292 38.688H213.14L206.732 51H203.828L197.492 38.688H202.388ZM223.051 43.056C222.907 42.448 222.611 41.96 222.163 41.592C221.715 41.224 221.171 41.04 220.531 41.04C219.859 41.04 219.307 41.216 218.875 41.568C218.459 41.92 218.195 42.416 218.083 43.056H223.051ZM217.963 45.576C217.963 47.448 218.843 48.384 220.603 48.384C221.547 48.384 222.259 48 222.739 47.232H226.939C226.091 50.048 223.971 51.456 220.579 51.456C219.539 51.456 218.587 51.304 217.723 51C216.859 50.68 216.115 50.232 215.491 49.656C214.883 49.08 214.411 48.392 214.075 47.592C213.739 46.792 213.571 45.896 213.571 44.904C213.571 43.88 213.731 42.96 214.051 42.144C214.371 41.312 214.827 40.608 215.419 40.032C216.011 39.456 216.723 39.016 217.555 38.712C218.403 38.392 219.355 38.232 220.411 38.232C221.451 38.232 222.387 38.392 223.219 38.712C224.051 39.016 224.755 39.464 225.331 40.056C225.907 40.648 226.347 41.376 226.651 42.24C226.955 43.088 227.107 44.048 227.107 45.12V45.576H217.963ZM233.934 31.08V51H229.59V31.08H233.934ZM241.006 44.784C241.006 45.2 241.078 45.584 241.222 45.936C241.382 46.272 241.582 46.568 241.822 46.824C242.078 47.08 242.374 47.28 242.71 47.424C243.062 47.568 243.43 47.64 243.814 47.64C244.198 47.64 244.558 47.568 244.894 47.424C245.246 47.28 245.542 47.08 245.782 46.824C246.038 46.568 246.238 46.272 246.382 45.936C246.542 45.584 246.622 45.208 246.622 44.808C246.622 44.424 246.542 44.064 246.382 43.728C246.238 43.376 246.038 43.072 245.782 42.816C245.542 42.56 245.246 42.36 244.894 42.216C244.558 42.072 244.198 42 243.814 42C243.43 42 243.062 42.072 242.71 42.216C242.374 42.36 242.078 42.56 241.822 42.816C241.582 43.072 241.382 43.368 241.222 43.704C241.078 44.04 241.006 44.4 241.006 44.784ZM236.422 44.736C236.422 43.824 236.606 42.976 236.974 42.192C237.342 41.392 237.854 40.704 238.51 40.128C239.166 39.536 239.942 39.072 240.838 38.736C241.75 38.4 242.742 38.232 243.814 38.232C244.87 38.232 245.846 38.4 246.742 38.736C247.654 39.056 248.438 39.512 249.094 40.104C249.766 40.68 250.286 41.376 250.654 42.192C251.022 42.992 251.206 43.88 251.206 44.856C251.206 45.832 251.014 46.728 250.63 47.544C250.262 48.344 249.75 49.04 249.094 49.632C248.438 50.208 247.646 50.656 246.718 50.976C245.806 51.296 244.814 51.456 243.742 51.456C242.686 51.456 241.71 51.296 240.814 50.976C239.918 50.656 239.142 50.2 238.486 49.608C237.846 49.016 237.342 48.312 236.974 47.496C236.606 46.664 236.422 45.744 236.422 44.736ZM263.523 44.88C263.523 44.496 263.451 44.136 263.307 43.8C263.179 43.448 262.987 43.144 262.731 42.888C262.475 42.632 262.171 42.432 261.819 42.288C261.483 42.128 261.115 42.048 260.715 42.048C260.331 42.048 259.971 42.12 259.635 42.264C259.299 42.408 259.003 42.608 258.747 42.864C258.507 43.12 258.307 43.424 258.147 43.776C258.003 44.112 257.931 44.472 257.931 44.856C257.931 45.24 258.003 45.6 258.147 45.936C258.291 46.272 258.491 46.568 258.747 46.824C259.003 47.064 259.299 47.264 259.635 47.424C259.987 47.568 260.355 47.64 260.739 47.64C261.123 47.64 261.483 47.568 261.819 47.424C262.155 47.28 262.443 47.08 262.683 46.824C262.939 46.568 263.139 46.272 263.283 45.936C263.443 45.6 263.523 45.248 263.523 44.88ZM258.051 57.144H253.707V38.688H258.051V40.056C258.979 38.888 260.243 38.304 261.843 38.304C262.723 38.304 263.539 38.48 264.291 38.832C265.059 39.168 265.723 39.632 266.283 40.224C266.843 40.816 267.275 41.512 267.579 42.312C267.899 43.112 268.059 43.968 268.059 44.88C268.059 45.792 267.899 46.64 267.579 47.424C267.275 48.208 266.843 48.896 266.283 49.488C265.739 50.08 265.091 50.544 264.339 50.88C263.587 51.216 262.771 51.384 261.891 51.384C260.355 51.384 259.075 50.856 258.051 49.8V57.144ZM279.535 43.056C279.391 42.448 279.095 41.96 278.647 41.592C278.199 41.224 277.655 41.04 277.015 41.04C276.343 41.04 275.791 41.216 275.359 41.568C274.943 41.92 274.679 42.416 274.567 43.056H279.535ZM274.447 45.576C274.447 47.448 275.327 48.384 277.087 48.384C278.031 48.384 278.743 48 279.223 47.232H283.423C282.575 50.048 280.455 51.456 277.063 51.456C276.023 51.456 275.071 51.304 274.207 51C273.343 50.68 272.599 50.232 271.975 49.656C271.367 49.08 270.895 48.392 270.559 47.592C270.223 46.792 270.055 45.896 270.055 44.904C270.055 43.88 270.215 42.96 270.535 42.144C270.855 41.312 271.311 40.608 271.903 40.032C272.495 39.456 273.207 39.016 274.039 38.712C274.887 38.392 275.839 38.232 276.895 38.232C277.935 38.232 278.871 38.392 279.703 38.712C280.535 39.016 281.239 39.464 281.815 40.056C282.391 40.648 282.831 41.376 283.135 42.24C283.439 43.088 283.591 44.048 283.591 45.12V45.576H274.447ZM286.074 38.688H290.418V40.704C290.882 39.968 291.45 39.408 292.122 39.024C292.794 38.624 293.578 38.424 294.474 38.424C294.586 38.424 294.706 38.424 294.834 38.424C294.978 38.424 295.138 38.44 295.314 38.472V42.624C294.738 42.336 294.114 42.192 293.442 42.192C292.434 42.192 291.674 42.496 291.162 43.104C290.666 43.696 290.418 44.568 290.418 45.72V51H286.074V38.688ZM305.343 41.856C304.543 41.44 303.759 41.232 302.991 41.232C302.591 41.232 302.263 41.312 302.007 41.472C301.767 41.632 301.647 41.848 301.647 42.12C301.647 42.264 301.663 42.384 301.695 42.48C301.743 42.56 301.831 42.64 301.959 42.72C302.103 42.8 302.303 42.872 302.559 42.936C302.831 43 303.183 43.08 303.615 43.176C304.815 43.416 305.711 43.848 306.303 44.472C306.895 45.08 307.191 45.864 307.191 46.824C307.191 47.544 307.047 48.192 306.759 48.768C306.471 49.344 306.071 49.832 305.559 50.232C305.047 50.616 304.431 50.912 303.711 51.12C302.991 51.344 302.199 51.456 301.335 51.456C299.671 51.456 298.031 50.984 296.415 50.04L297.999 46.968C299.215 47.8 300.367 48.216 301.455 48.216C301.855 48.216 302.183 48.128 302.439 47.952C302.695 47.776 302.823 47.552 302.823 47.28C302.823 47.12 302.799 46.992 302.751 46.896C302.719 46.784 302.639 46.688 302.511 46.608C302.383 46.512 302.191 46.432 301.935 46.368C301.695 46.288 301.375 46.208 300.975 46.128C299.631 45.856 298.687 45.456 298.143 44.928C297.615 44.384 297.351 43.64 297.351 42.696C297.351 42.008 297.479 41.392 297.735 40.848C297.991 40.288 298.359 39.816 298.839 39.432C299.319 39.048 299.895 38.752 300.567 38.544C301.255 38.336 302.015 38.232 302.847 38.232C304.207 38.232 305.527 38.496 306.807 39.024L305.343 41.856ZM4.832 70.688V83H0.488V70.688H4.832ZM0.2 65.96C0.2 65.624 0.264 65.312 0.392 65.024C0.52 64.72 0.696 64.456 0.92 64.232C1.144 64.008 1.4 63.832 1.688 63.704C1.992 63.576 2.312 63.512 2.648 63.512C2.984 63.512 3.296 63.576 3.584 63.704C3.888 63.832 4.152 64.008 4.376 64.232C4.6 64.456 4.776 64.72 4.904 65.024C5.032 65.312 5.096 65.624 5.096 65.96C5.096 66.296 5.032 66.616 4.904 66.92C4.776 67.208 4.6 67.464 4.376 67.688C4.152 67.912 3.888 68.088 3.584 68.216C3.296 68.344 2.984 68.408 2.648 68.408C2.312 68.408 1.992 68.344 1.688 68.216C1.4 68.088 1.144 67.912 0.92 67.688C0.696 67.464 0.52 67.208 0.392 66.92C0.264 66.616 0.2 66.296 0.2 65.96ZM7.8005 70.688H12.1445V72.248C12.7365 71.528 13.3365 71.048 13.9445 70.808C14.5525 70.552 15.2645 70.424 16.0805 70.424C16.9445 70.424 17.6805 70.568 18.2885 70.856C18.9125 71.128 19.4405 71.52 19.8725 72.032C20.2245 72.448 20.4645 72.912 20.5925 73.424C20.7205 73.936 20.7845 74.52 20.7845 75.176V83H16.4405V76.784C16.4405 76.176 16.3925 75.688 16.2965 75.32C16.2165 74.936 16.0645 74.632 15.8405 74.408C15.6485 74.216 15.4325 74.08 15.1925 74C14.9525 73.92 14.6965 73.88 14.4245 73.88C13.6885 73.88 13.1205 74.104 12.7205 74.552C12.3365 74.984 12.1445 75.608 12.1445 76.424V83H7.8005V70.688ZM117.602 74.312V83H113.258V74.312H111.818V70.688H113.258V66.992H117.602V70.688H120.074V74.312H117.602ZM126.022 76.784C126.022 77.2 126.094 77.584 126.238 77.936C126.398 78.272 126.598 78.568 126.838 78.824C127.094 79.08 127.39 79.28 127.726 79.424C128.078 79.568 128.446 79.64 128.83 79.64C129.214 79.64 129.574 79.568 129.91 79.424C130.262 79.28 130.558 79.08 130.798 78.824C131.054 78.568 131.254 78.272 131.398 77.936C131.558 77.584 131.638 77.208 131.638 76.808C131.638 76.424 131.558 76.064 131.398 75.728C131.254 75.376 131.054 75.072 130.798 74.816C130.558 74.56 130.262 74.36 129.91 74.216C129.574 74.072 129.214 74 128.83 74C128.446 74 128.078 74.072 127.726 74.216C127.39 74.36 127.094 74.56 126.838 74.816C126.598 75.072 126.398 75.368 126.238 75.704C126.094 76.04 126.022 76.4 126.022 76.784ZM121.438 76.736C121.438 75.824 121.622 74.976 121.99 74.192C122.358 73.392 122.87 72.704 123.526 72.128C124.182 71.536 124.958 71.072 125.854 70.736C126.766 70.4 127.758 70.232 128.83 70.232C129.886 70.232 130.862 70.4 131.758 70.736C132.67 71.056 133.454 71.512 134.11 72.104C134.782 72.68 135.302 73.376 135.67 74.192C136.038 74.992 136.222 75.88 136.222 76.856C136.222 77.832 136.03 78.728 135.646 79.544C135.278 80.344 134.766 81.04 134.11 81.632C133.454 82.208 132.662 82.656 131.734 82.976C130.822 83.296 129.83 83.456 128.758 83.456C127.702 83.456 126.726 83.296 125.83 82.976C124.934 82.656 124.158 82.2 123.502 81.608C122.862 81.016 122.358 80.312 121.99 79.496C121.622 78.664 121.438 77.744 121.438 76.736ZM156.695 76.88C156.695 76.496 156.623 76.136 156.479 75.8C156.335 75.448 156.135 75.144 155.879 74.888C155.623 74.632 155.327 74.432 154.991 74.288C154.655 74.128 154.287 74.048 153.887 74.048C153.503 74.048 153.143 74.12 152.807 74.264C152.471 74.408 152.175 74.608 151.919 74.864C151.679 75.12 151.479 75.424 151.319 75.776C151.175 76.112 151.103 76.472 151.103 76.856C151.103 77.24 151.175 77.6 151.319 77.936C151.463 78.272 151.663 78.568 151.919 78.824C152.175 79.064 152.471 79.264 152.807 79.424C153.159 79.568 153.527 79.64 153.911 79.64C154.295 79.64 154.655 79.568 154.991 79.424C155.327 79.28 155.615 79.08 155.855 78.824C156.111 78.568 156.311 78.272 156.455 77.936C156.615 77.6 156.695 77.248 156.695 76.88ZM151.223 63.08V71.912C152.247 70.84 153.527 70.304 155.063 70.304C155.975 70.304 156.807 70.48 157.559 70.832C158.327 71.168 158.975 71.632 159.503 72.224C160.047 72.8 160.471 73.488 160.775 74.288C161.079 75.072 161.231 75.912 161.231 76.808C161.231 77.72 161.071 78.576 160.751 79.376C160.447 80.176 160.015 80.872 159.455 81.464C158.895 82.056 158.231 82.528 157.463 82.88C156.711 83.216 155.895 83.384 155.015 83.384C153.415 83.384 152.151 82.8 151.223 81.632V83H146.879V63.08H151.223ZM168.051 70.688V77.624C168.051 79.144 168.787 79.904 170.259 79.904C171.731 79.904 172.467 79.144 172.467 77.624V70.688H176.811V78.464C176.811 80.128 176.259 81.376 175.155 82.208C174.067 83.04 172.435 83.456 170.259 83.456C168.083 83.456 166.443 83.04 165.339 82.208C164.251 81.376 163.707 80.128 163.707 78.464V70.688H168.051ZM184.105 70.688V83H179.761V70.688H184.105ZM179.473 65.96C179.473 65.624 179.537 65.312 179.665 65.024C179.793 64.72 179.969 64.456 180.193 64.232C180.417 64.008 180.673 63.832 180.961 63.704C181.265 63.576 181.585 63.512 181.921 63.512C182.257 63.512 182.569 63.576 182.857 63.704C183.161 63.832 183.425 64.008 183.649 64.232C183.873 64.456 184.049 64.72 184.177 65.024C184.305 65.312 184.369 65.624 184.369 65.96C184.369 66.296 184.305 66.616 184.177 66.92C184.049 67.208 183.873 67.464 183.649 67.688C183.425 67.912 183.161 68.088 182.857 68.216C182.569 68.344 182.257 68.408 181.921 68.408C181.585 68.408 181.265 68.344 180.961 68.216C180.673 68.088 180.417 67.912 180.193 67.688C179.969 67.464 179.793 67.208 179.665 66.92C179.537 66.616 179.473 66.296 179.473 65.96ZM191.418 63.08V83H187.074V63.08H191.418ZM198.418 76.808C198.418 77.208 198.49 77.584 198.634 77.936C198.778 78.272 198.97 78.568 199.21 78.824C199.466 79.08 199.762 79.28 200.098 79.424C200.45 79.568 200.826 79.64 201.226 79.64C201.61 79.64 201.97 79.568 202.306 79.424C202.658 79.28 202.954 79.08 203.194 78.824C203.45 78.568 203.65 78.272 203.794 77.936C203.954 77.6 204.034 77.24 204.034 76.856C204.034 76.472 203.954 76.112 203.794 75.776C203.65 75.424 203.45 75.12 203.194 74.864C202.954 74.608 202.658 74.408 202.306 74.264C201.97 74.12 201.61 74.048 201.226 74.048C200.842 74.048 200.474 74.12 200.122 74.264C199.786 74.408 199.49 74.608 199.234 74.864C198.994 75.12 198.794 75.416 198.634 75.752C198.49 76.072 198.418 76.424 198.418 76.808ZM203.89 63.08H208.258V83H203.89V81.632C202.962 82.8 201.706 83.384 200.122 83.384C199.226 83.384 198.402 83.216 197.65 82.88C196.898 82.544 196.242 82.08 195.682 81.488C195.122 80.896 194.682 80.2 194.362 79.4C194.058 78.6 193.906 77.736 193.906 76.808C193.906 75.928 194.05 75.096 194.338 74.312C194.642 73.512 195.066 72.816 195.61 72.224C196.154 71.632 196.802 71.168 197.554 70.832C198.322 70.48 199.162 70.304 200.074 70.304C201.61 70.304 202.882 70.84 203.89 71.912V63.08ZM224.219 74.312V83H219.875V74.312H218.435V70.688H219.875V66.992H224.219V70.688H226.691V74.312H224.219ZM228.886 63.08H233.23V72.248C233.822 71.528 234.422 71.048 235.03 70.808C235.638 70.552 236.35 70.424 237.166 70.424C238.718 70.424 239.886 70.856 240.67 71.72C241.47 72.568 241.87 73.72 241.87 75.176V83H237.526V76.784C237.526 76.16 237.478 75.656 237.382 75.272C237.286 74.888 237.126 74.592 236.902 74.384C236.518 74.048 236.054 73.88 235.51 73.88C234.774 73.88 234.206 74.104 233.806 74.552C233.422 74.984 233.23 75.608 233.23 76.424V83H228.886V63.08ZM253.824 75.056C253.68 74.448 253.384 73.96 252.936 73.592C252.488 73.224 251.944 73.04 251.304 73.04C250.632 73.04 250.08 73.216 249.648 73.568C249.232 73.92 248.968 74.416 248.856 75.056H253.824ZM248.736 77.576C248.736 79.448 249.616 80.384 251.376 80.384C252.32 80.384 253.032 80 253.512 79.232H257.712C256.864 82.048 254.744 83.456 251.352 83.456C250.312 83.456 249.36 83.304 248.496 83C247.632 82.68 246.888 82.232 246.264 81.656C245.656 81.08 245.184 80.392 244.848 79.592C244.512 78.792 244.344 77.896 244.344 76.904C244.344 75.88 244.504 74.96 244.824 74.144C245.144 73.312 245.6 72.608 246.192 72.032C246.784 71.456 247.496 71.016 248.328 70.712C249.176 70.392 250.128 70.232 251.184 70.232C252.224 70.232 253.16 70.392 253.992 70.712C254.824 71.016 255.528 71.464 256.104 72.056C256.68 72.648 257.12 73.376 257.424 74.24C257.728 75.088 257.88 76.048 257.88 77.12V77.576H248.736ZM264.707 70.688V83H260.363V70.688H264.707ZM260.075 65.96C260.075 65.624 260.139 65.312 260.267 65.024C260.395 64.72 260.571 64.456 260.795 64.232C261.019 64.008 261.275 63.832 261.563 63.704C261.867 63.576 262.187 63.512 262.523 63.512C262.859 63.512 263.171 63.576 263.459 63.704C263.763 63.832 264.027 64.008 264.251 64.232C264.475 64.456 264.651 64.72 264.779 65.024C264.907 65.312 264.971 65.624 264.971 65.96C264.971 66.296 264.907 66.616 264.779 66.92C264.651 67.208 264.475 67.464 264.251 67.688C264.027 67.912 263.763 68.088 263.459 68.216C263.171 68.344 262.859 68.408 262.523 68.408C262.187 68.408 261.867 68.344 261.563 68.216C261.275 68.088 261.019 67.912 260.795 67.688C260.571 67.464 260.395 67.208 260.267 66.92C260.139 66.616 260.075 66.296 260.075 65.96ZM267.676 70.688H272.02V72.704C272.484 71.968 273.052 71.408 273.724 71.024C274.396 70.624 275.18 70.424 276.076 70.424C276.188 70.424 276.308 70.424 276.436 70.424C276.58 70.424 276.74 70.44 276.916 70.472V74.624C276.34 74.336 275.716 74.192 275.044 74.192C274.036 74.192 273.276 74.496 272.764 75.104C272.268 75.696 272.02 76.568 272.02 77.72V83H267.676V70.688ZM4.52 108.808C4.52 109.208 4.592 109.584 4.736 109.936C4.88 110.272 5.072 110.568 5.312 110.824C5.568 111.08 5.864 111.28 6.2 111.424C6.552 111.568 6.928 111.64 7.328 111.64C7.712 111.64 8.072 111.568 8.408 111.424C8.76 111.28 9.056 111.08 9.296 110.824C9.552 110.568 9.752 110.272 9.896 109.936C10.056 109.6 10.136 109.24 10.136 108.856C10.136 108.472 10.056 108.112 9.896 107.776C9.752 107.424 9.552 107.12 9.296 106.864C9.056 106.608 8.76 106.408 8.408 106.264C8.072 106.12 7.712 106.048 7.328 106.048C6.944 106.048 6.576 106.12 6.224 106.264C5.888 106.408 5.592 106.608 5.336 106.864C5.096 107.12 4.896 107.416 4.736 107.752C4.592 108.072 4.52 108.424 4.52 108.808ZM9.992 95.08H14.36V115H9.992V113.632C9.064 114.8 7.808 115.384 6.224 115.384C5.328 115.384 4.504 115.216 3.752 114.88C3 114.544 2.344 114.08 1.784 113.488C1.224 112.896 0.784 112.2 0.464 111.4C0.16 110.6 0.00800008 109.736 0.00800008 108.808C0.00800008 107.928 0.152 107.096 0.44 106.312C0.744 105.512 1.168 104.816 1.712 104.224C2.256 103.632 2.904 103.168 3.656 102.832C4.424 102.48 5.264 102.304 6.176 102.304C7.712 102.304 8.984 102.84 9.992 103.912V95.08ZM17.3161 102.688H21.6601V104.704C22.1241 103.968 22.6921 103.408 23.3641 103.024C24.0361 102.624 24.8201 102.424 25.7161 102.424C25.8281 102.424 25.9481 102.424 26.0761 102.424C26.2201 102.424 26.3801 102.44 26.5561 102.472V106.624C25.9801 106.336 25.3561 106.192 24.6841 106.192C23.6761 106.192 22.9161 106.496 22.4041 107.104C21.9081 107.696 21.6601 108.568 21.6601 109.72V115H17.3161V102.688ZM37.6364 107.056C37.4924 106.448 37.1964 105.96 36.7484 105.592C36.3004 105.224 35.7564 105.04 35.1164 105.04C34.4444 105.04 33.8924 105.216 33.4604 105.568C33.0444 105.92 32.7804 106.416 32.6684 107.056H37.6364ZM32.5484 109.576C32.5484 111.448 33.4284 112.384 35.1884 112.384C36.1324 112.384 36.8444 112 37.3244 111.232H41.5244C40.6764 114.048 38.5564 115.456 35.1644 115.456C34.1244 115.456 33.1724 115.304 32.3084 115C31.4444 114.68 30.7004 114.232 30.0764 113.656C29.4684 113.08 28.9964 112.392 28.6604 111.592C28.3244 110.792 28.1564 109.896 28.1564 108.904C28.1564 107.88 28.3164 106.96 28.6364 106.144C28.9564 105.312 29.4124 104.608 30.0044 104.032C30.5964 103.456 31.3084 103.016 32.1404 102.712C32.9884 102.392 33.9404 102.232 34.9964 102.232C36.0364 102.232 36.9724 102.392 37.8044 102.712C38.6364 103.016 39.3404 103.464 39.9164 104.056C40.4924 104.648 40.9324 105.376 41.2364 106.24C41.5404 107.088 41.6924 108.048 41.6924 109.12V109.576H32.5484ZM48.2075 108.808C48.2075 109.208 48.2795 109.584 48.4235 109.936C48.5675 110.272 48.7595 110.568 48.9995 110.824C49.2555 111.08 49.5515 111.28 49.8875 111.424C50.2395 111.568 50.6155 111.64 51.0155 111.64C51.3995 111.64 51.7595 111.568 52.0955 111.424C52.4475 111.28 52.7435 111.08 52.9835 110.824C53.2395 110.568 53.4395 110.272 53.5835 109.936C53.7435 109.6 53.8235 109.24 53.8235 108.856C53.8235 108.472 53.7435 108.112 53.5835 107.776C53.4395 107.424 53.2395 107.12 52.9835 106.864C52.7435 106.608 52.4475 106.408 52.0955 106.264C51.7595 106.12 51.3995 106.048 51.0155 106.048C50.6155 106.048 50.2395 106.12 49.8875 106.264C49.5515 106.408 49.2555 106.608 48.9995 106.864C48.7595 107.12 48.5675 107.416 48.4235 107.752C48.2795 108.072 48.2075 108.424 48.2075 108.808ZM53.6795 102.688H58.0475V115H53.6795V113.632C52.7515 114.8 51.4955 115.384 49.9115 115.384C49.0155 115.384 48.1915 115.224 47.4395 114.904C46.6875 114.568 46.0315 114.104 45.4715 113.512C44.9115 112.92 44.4715 112.224 44.1515 111.424C43.8475 110.624 43.6955 109.752 43.6955 108.808C43.6955 107.928 43.8475 107.096 44.1515 106.312C44.4555 105.512 44.8795 104.816 45.4235 104.224C45.9675 103.632 46.6155 103.168 47.3675 102.832C48.1195 102.48 48.9515 102.304 49.8635 102.304C51.3995 102.304 52.6715 102.84 53.6795 103.912V102.688ZM61.0036 102.688H65.3476V104.2C66.5316 103.064 67.8596 102.496 69.3316 102.496C71.1556 102.496 72.5476 103.264 73.5076 104.8C74.4836 103.248 75.8756 102.472 77.6836 102.472C78.2596 102.472 78.8036 102.56 79.3156 102.736C79.8276 102.896 80.2676 103.16 80.6356 103.528C81.0036 103.88 81.2916 104.344 81.4996 104.92C81.7236 105.496 81.8356 106.192 81.8356 107.008V115H77.4916V108.928C77.4916 108.304 77.4436 107.792 77.3476 107.392C77.2676 106.992 77.1396 106.68 76.9636 106.456C76.8036 106.232 76.6116 106.08 76.3876 106C76.1636 105.92 75.9236 105.88 75.6676 105.88C74.2756 105.88 73.5796 106.896 73.5796 108.928V115H69.2356V108.928C69.2356 108.304 69.1956 107.792 69.1156 107.392C69.0356 106.976 68.9156 106.648 68.7556 106.408C68.6116 106.168 68.4196 106.008 68.1796 105.928C67.9396 105.832 67.6596 105.784 67.3396 105.784C67.0676 105.784 66.8116 105.824 66.5716 105.904C66.3316 105.984 66.1156 106.144 65.9236 106.384C65.7476 106.608 65.6036 106.928 65.4916 107.344C65.3956 107.744 65.3476 108.272 65.3476 108.928V115H61.0036V102.688ZM92.9761 105.856C92.1761 105.44 91.3921 105.232 90.6241 105.232C90.2241 105.232 89.8961 105.312 89.6401 105.472C89.4001 105.632 89.2801 105.848 89.2801 106.12C89.2801 106.264 89.2961 106.384 89.3281 106.48C89.3761 106.56 89.4641 106.64 89.5921 106.72C89.7361 106.8 89.9361 106.872 90.1921 106.936C90.4641 107 90.8161 107.08 91.2481 107.176C92.4481 107.416 93.3441 107.848 93.9361 108.472C94.5281 109.08 94.8241 109.864 94.8241 110.824C94.8241 111.544 94.6801 112.192 94.3921 112.768C94.1041 113.344 93.7041 113.832 93.1921 114.232C92.6801 114.616 92.0641 114.912 91.3441 115.12C90.6241 115.344 89.8321 115.456 88.9681 115.456C87.3041 115.456 85.6641 114.984 84.0481 114.04L85.6321 110.968C86.8481 111.8 88.0001 112.216 89.0881 112.216C89.4881 112.216 89.8161 112.128 90.0721 111.952C90.3281 111.776 90.4561 111.552 90.4561 111.28C90.4561 111.12 90.4321 110.992 90.3841 110.896C90.3521 110.784 90.2721 110.688 90.1441 110.608C90.0161 110.512 89.8241 110.432 89.5681 110.368C89.3281 110.288 89.0081 110.208 88.6081 110.128C87.2641 109.856 86.3201 109.456 85.7761 108.928C85.2481 108.384 84.9841 107.64 84.9841 106.696C84.9841 106.008 85.1121 105.392 85.3681 104.848C85.6241 104.288 85.9921 103.816 86.4721 103.432C86.9521 103.048 87.5281 102.752 88.2001 102.544C88.8881 102.336 89.6481 102.232 90.4801 102.232C91.8401 102.232 93.1601 102.496 94.4401 103.024L92.9761 105.856Z" fill="white"/>
<path d="M35.2543 70.688L38.2063 77.168L41.2783 70.688H44.0143L47.0863 77.36L50.1823 70.688H55.0063L48.5743 83H45.6703L42.5983 76.256L39.6703 83H36.7183L30.4062 70.688H35.2543ZM64.9177 75.056C64.7737 74.448 64.4777 73.96 64.0297 73.592C63.5817 73.224 63.0377 73.04 62.3977 73.04C61.7257 73.04 61.1737 73.216 60.7417 73.568C60.3257 73.92 60.0617 74.416 59.9497 75.056H64.9177ZM59.8297 77.576C59.8297 79.448 60.7097 80.384 62.4697 80.384C63.4137 80.384 64.1257 80 64.6057 79.232H68.8057C67.9577 82.048 65.8377 83.456 62.4457 83.456C61.4057 83.456 60.4537 83.304 59.5897 83C58.7257 82.68 57.9817 82.232 57.3577 81.656C56.7497 81.08 56.2777 80.392 55.9417 79.592C55.6057 78.792 55.4377 77.896 55.4377 76.904C55.4377 75.88 55.5977 74.96 55.9177 74.144C56.2377 73.312 56.6937 72.608 57.2857 72.032C57.8777 71.456 58.5897 71.016 59.4217 70.712C60.2697 70.392 61.2217 70.232 62.2777 70.232C63.3177 70.232 64.2537 70.392 65.0857 70.712C65.9177 71.016 66.6217 71.464 67.1977 72.056C67.7737 72.648 68.2137 73.376 68.5177 74.24C68.8217 75.088 68.9737 76.048 68.9737 77.12V77.576H59.8297ZM81.2728 76.88C81.2728 76.496 81.2008 76.136 81.0568 75.8C80.9128 75.448 80.7128 75.144 80.4568 74.888C80.2008 74.632 79.9048 74.432 79.5688 74.288C79.2328 74.128 78.8648 74.048 78.4648 74.048C78.0808 74.048 77.7208 74.12 77.3848 74.264C77.0488 74.408 76.7528 74.608 76.4968 74.864C76.2568 75.12 76.0568 75.424 75.8968 75.776C75.7528 76.112 75.6808 76.472 75.6808 76.856C75.6808 77.24 75.7528 77.6 75.8968 77.936C76.0408 78.272 76.2408 78.568 76.4968 78.824C76.7528 79.064 77.0488 79.264 77.3848 79.424C77.7368 79.568 78.1048 79.64 78.4888 79.64C78.8728 79.64 79.2328 79.568 79.5688 79.424C79.9048 79.28 80.1928 79.08 80.4328 78.824C80.6888 78.568 80.8888 78.272 81.0328 77.936C81.1928 77.6 81.2728 77.248 81.2728 76.88ZM75.8008 63.08V71.912C76.8248 70.84 78.1048 70.304 79.6408 70.304C80.5528 70.304 81.3848 70.48 82.1368 70.832C82.9048 71.168 83.5528 71.632 84.0807 72.224C84.6248 72.8 85.0488 73.488 85.3528 74.288C85.6568 75.072 85.8088 75.912 85.8088 76.808C85.8088 77.72 85.6488 78.576 85.3288 79.376C85.0248 80.176 84.5928 80.872 84.0328 81.464C83.4728 82.056 82.8088 82.528 82.0408 82.88C81.2888 83.216 80.4728 83.384 79.5928 83.384C77.9928 83.384 76.7288 82.8 75.8008 81.632V83H71.4568V63.08H75.8008ZM93.9729 71.96C94.1009 71.976 94.2049 71.984 94.2849 71.984C94.3809 71.984 94.4609 71.984 94.5249 71.984C95.1169 71.984 95.5969 71.808 95.9649 71.456C96.3329 71.104 96.5169 70.648 96.5169 70.088C96.5169 69.544 96.3409 69.104 95.9889 68.768C95.6529 68.432 95.2129 68.264 94.6689 68.264C94.0929 68.264 93.6289 68.456 93.2769 68.84C92.9249 69.224 92.7489 69.72 92.7489 70.328H88.4049C88.5169 69.384 88.7489 68.544 89.1009 67.808C89.4689 67.072 89.9329 66.456 90.4929 65.96C91.0529 65.448 91.7089 65.064 92.4609 64.808C93.2129 64.536 94.0449 64.4 94.9569 64.4C95.8529 64.4 96.6609 64.528 97.3809 64.784C98.1169 65.024 98.7409 65.376 99.2529 65.84C99.7809 66.288 100.181 66.84 100.453 67.496C100.741 68.136 100.885 68.856 100.885 69.656C100.885 70.52 100.717 71.232 100.381 71.792C100.061 72.336 99.5969 72.808 98.9889 73.208C99.9169 73.496 100.637 74.016 101.149 74.768C101.677 75.504 101.941 76.416 101.941 77.504C101.941 78.4 101.765 79.216 101.413 79.952C101.061 80.688 100.565 81.32 99.9249 81.848C99.3009 82.376 98.5489 82.784 97.6689 83.072C96.8049 83.36 95.8529 83.504 94.8129 83.504C93.4209 83.504 92.1649 83.232 91.0449 82.688C89.9249 82.144 89.0289 81.28 88.3569 80.096C88.0529 79.568 87.8449 79.04 87.7329 78.512C87.6369 77.984 87.5889 77.448 87.5889 76.904H92.2449C92.2769 77.752 92.5249 78.4 92.9889 78.848C93.4529 79.28 94.0769 79.496 94.8609 79.496C95.6929 79.496 96.3009 79.272 96.6849 78.824C97.0689 78.376 97.2609 77.824 97.2609 77.168C97.2609 76.384 97.0289 75.792 96.5649 75.392C96.1009 74.992 95.5489 74.792 94.9089 74.792C94.7489 74.792 94.5969 74.808 94.4529 74.84C94.3089 74.856 94.1489 74.88 93.9729 74.912V71.96Z" fill="#27FFB8"/>
</svg>
