<svg width="790" height="187" viewBox="0 0 790 187" fill="none" xmlns="http://www.w3.org/2000/svg">
<path d="M14.85 15.998H30.132V0.284H40.716V41H30.132V24.206H14.85V41H4.266V0.284H14.85V15.998ZM57.4024 27.068C57.4024 27.968 57.5644 28.814 57.8884 29.606C58.2124 30.362 58.6444 31.028 59.1844 31.604C59.7604 32.18 60.4264 32.63 61.1824 32.954C61.9744 33.278 62.8204 33.44 63.7204 33.44C64.5844 33.44 65.3944 33.278 66.1504 32.954C66.9424 32.63 67.6084 32.18 68.1484 31.604C68.7244 31.028 69.1744 30.362 69.4984 29.606C69.8584 28.85 70.0384 28.04 70.0384 27.176C70.0384 26.312 69.8584 25.502 69.4984 24.746C69.1744 23.954 68.7244 23.27 68.1484 22.694C67.6084 22.118 66.9424 21.668 66.1504 21.344C65.3944 21.02 64.5844 20.858 63.7204 20.858C62.8204 20.858 61.9744 21.02 61.1824 21.344C60.4264 21.668 59.7604 22.118 59.1844 22.694C58.6444 23.27 58.2124 23.936 57.8884 24.692C57.5644 25.412 57.4024 26.204 57.4024 27.068ZM69.7144 13.298H79.5424V41H69.7144V37.922C67.6264 40.55 64.8004 41.864 61.2364 41.864C59.2204 41.864 57.3664 41.504 55.6744 40.784C53.9824 40.028 52.5064 38.984 51.2464 37.652C49.9864 36.32 48.9964 34.754 48.2764 32.954C47.5924 31.154 47.2504 29.192 47.2504 27.068C47.2504 25.088 47.5924 23.216 48.2764 21.452C48.9604 19.652 49.9144 18.086 51.1384 16.754C52.3624 15.422 53.8204 14.378 55.5124 13.622C57.2044 12.83 59.0764 12.434 61.1284 12.434C64.5844 12.434 67.4464 13.64 69.7144 16.052V13.298ZM86.1937 13.298H95.9677V16.7C98.6317 14.144 101.62 12.866 104.932 12.866C109.036 12.866 112.168 14.594 114.328 18.05C116.524 14.558 119.656 12.812 123.724 12.812C125.02 12.812 126.244 13.01 127.396 13.406C128.548 13.766 129.538 14.36 130.366 15.188C131.194 15.98 131.842 17.024 132.31 18.32C132.814 19.616 133.066 21.182 133.066 23.018V41H123.292V27.338C123.292 25.934 123.184 24.782 122.968 23.882C122.788 22.982 122.5 22.28 122.104 21.776C121.744 21.272 121.312 20.93 120.808 20.75C120.304 20.57 119.764 20.48 119.188 20.48C116.056 20.48 114.49 22.766 114.49 27.338V41H104.716V27.338C104.716 25.934 104.626 24.782 104.446 23.882C104.266 22.946 103.996 22.208 103.636 21.668C103.312 21.128 102.88 20.768 102.34 20.588C101.8 20.372 101.17 20.264 100.45 20.264C99.8377 20.264 99.2617 20.354 98.7217 20.534C98.1817 20.714 97.6957 21.074 97.2637 21.614C96.8677 22.118 96.5437 22.838 96.2917 23.774C96.0757 24.674 95.9677 25.862 95.9677 27.338V41H86.1937V13.298ZM158.132 20.426C156.332 19.49 154.568 19.022 152.84 19.022C151.94 19.022 151.202 19.202 150.626 19.562C150.086 19.922 149.816 20.408 149.816 21.02C149.816 21.344 149.852 21.614 149.924 21.83C150.032 22.01 150.23 22.19 150.518 22.37C150.842 22.55 151.292 22.712 151.868 22.856C152.48 23 153.272 23.18 154.244 23.396C156.944 23.936 158.96 24.908 160.292 26.312C161.624 27.68 162.29 29.444 162.29 31.604C162.29 33.224 161.966 34.682 161.318 35.978C160.67 37.274 159.77 38.372 158.618 39.272C157.466 40.136 156.08 40.802 154.46 41.27C152.84 41.774 151.058 42.026 149.114 42.026C145.37 42.026 141.68 40.964 138.044 38.84L141.608 31.928C144.344 33.8 146.936 34.736 149.384 34.736C150.284 34.736 151.022 34.538 151.598 34.142C152.174 33.746 152.462 33.242 152.462 32.63C152.462 32.27 152.408 31.982 152.3 31.766C152.228 31.514 152.048 31.298 151.76 31.118C151.472 30.902 151.04 30.722 150.464 30.578C149.924 30.398 149.204 30.218 148.304 30.038C145.28 29.426 143.156 28.526 141.932 27.338C140.744 26.114 140.15 24.44 140.15 22.316C140.15 20.768 140.438 19.382 141.014 18.158C141.59 16.898 142.418 15.836 143.498 14.972C144.578 14.108 145.874 13.442 147.386 12.974C148.934 12.506 150.644 12.272 152.516 12.272C155.576 12.272 158.546 12.866 161.426 14.054L158.132 20.426ZM178.893 21.452V41H169.119V21.452H165.879V13.298H169.119V4.982H178.893V13.298H184.455V21.452H178.893ZM208.907 23.126C208.583 21.758 207.917 20.66 206.909 19.832C205.901 19.004 204.677 18.59 203.237 18.59C201.725 18.59 200.483 18.986 199.511 19.778C198.575 20.57 197.981 21.686 197.729 23.126H208.907ZM197.459 28.796C197.459 33.008 199.439 35.114 203.399 35.114C205.523 35.114 207.125 34.25 208.205 32.522H217.655C215.747 38.858 210.977 42.026 203.345 42.026C201.005 42.026 198.863 41.684 196.919 41C194.975 40.28 193.301 39.272 191.897 37.976C190.529 36.68 189.467 35.132 188.711 33.332C187.955 31.532 187.577 29.516 187.577 27.284C187.577 24.98 187.937 22.91 188.657 21.074C189.377 19.202 190.403 17.618 191.735 16.322C193.067 15.026 194.669 14.036 196.541 13.352C198.449 12.632 200.591 12.272 202.967 12.272C205.307 12.272 207.413 12.632 209.285 13.352C211.157 14.036 212.741 15.044 214.037 16.376C215.333 17.708 216.323 19.346 217.007 21.29C217.691 23.198 218.033 25.358 218.033 27.77V28.796H197.459ZM223.619 13.298H233.393V17.834C234.437 16.178 235.715 14.918 237.227 14.054C238.739 13.154 240.503 12.704 242.519 12.704C242.771 12.704 243.041 12.704 243.329 12.704C243.653 12.704 244.013 12.74 244.409 12.812V22.154C243.113 21.506 241.709 21.182 240.197 21.182C237.929 21.182 236.219 21.866 235.067 23.234C233.951 24.566 233.393 26.528 233.393 29.12V41H223.619V13.298ZM287.323 23.126C286.999 21.758 286.333 20.66 285.325 19.832C284.317 19.004 283.093 18.59 281.653 18.59C280.141 18.59 278.899 18.986 277.927 19.778C276.991 20.57 276.397 21.686 276.145 23.126H287.323ZM275.875 28.796C275.875 33.008 277.855 35.114 281.815 35.114C283.939 35.114 285.541 34.25 286.621 32.522H296.071C294.163 38.858 289.393 42.026 281.761 42.026C279.421 42.026 277.279 41.684 275.335 41C273.391 40.28 271.717 39.272 270.313 37.976C268.945 36.68 267.883 35.132 267.127 33.332C266.371 31.532 265.993 29.516 265.993 27.284C265.993 24.98 266.353 22.91 267.073 21.074C267.793 19.202 268.819 17.618 270.151 16.322C271.483 15.026 273.085 14.036 274.957 13.352C276.865 12.632 279.007 12.272 281.383 12.272C283.723 12.272 285.829 12.632 287.701 13.352C289.573 14.036 291.157 15.044 292.453 16.376C293.749 17.708 294.739 19.346 295.423 21.29C296.107 23.198 296.449 25.358 296.449 27.77V28.796H275.875ZM302.036 13.298H311.81V16.7C314.474 14.144 317.462 12.866 320.774 12.866C324.878 12.866 328.01 14.594 330.17 18.05C332.366 14.558 335.498 12.812 339.566 12.812C340.862 12.812 342.086 13.01 343.238 13.406C344.39 13.766 345.38 14.36 346.208 15.188C347.036 15.98 347.684 17.024 348.152 18.32C348.656 19.616 348.908 21.182 348.908 23.018V41H339.134V27.338C339.134 25.934 339.026 24.782 338.81 23.882C338.63 22.982 338.342 22.28 337.946 21.776C337.586 21.272 337.154 20.93 336.65 20.75C336.146 20.57 335.606 20.48 335.03 20.48C331.898 20.48 330.332 22.766 330.332 27.338V41H320.558V27.338C320.558 25.934 320.468 24.782 320.288 23.882C320.108 22.946 319.838 22.208 319.478 21.668C319.154 21.128 318.722 20.768 318.182 20.588C317.642 20.372 317.012 20.264 316.292 20.264C315.68 20.264 315.104 20.354 314.563 20.534C314.024 20.714 313.538 21.074 313.106 21.614C312.71 22.118 312.386 22.838 312.134 23.774C311.918 24.674 311.81 25.862 311.81 27.338V41H302.036V13.298ZM378.649 27.23C378.649 26.366 378.487 25.556 378.163 24.8C377.875 24.008 377.443 23.324 376.867 22.748C376.291 22.172 375.607 21.722 374.815 21.398C374.059 21.038 373.231 20.858 372.331 20.858C371.467 20.858 370.657 21.02 369.901 21.344C369.145 21.668 368.479 22.118 367.903 22.694C367.363 23.27 366.913 23.954 366.553 24.746C366.229 25.502 366.067 26.312 366.067 27.176C366.067 28.04 366.229 28.85 366.553 29.606C366.877 30.362 367.327 31.028 367.903 31.604C368.479 32.144 369.145 32.594 369.901 32.954C370.693 33.278 371.521 33.44 372.385 33.44C373.249 33.44 374.059 33.278 374.815 32.954C375.571 32.63 376.219 32.18 376.759 31.604C377.335 31.028 377.785 30.362 378.109 29.606C378.469 28.85 378.649 28.058 378.649 27.23ZM366.337 54.824H356.563V13.298H366.337V16.376C368.425 13.748 371.269 12.434 374.869 12.434C376.849 12.434 378.685 12.83 380.377 13.622C382.105 14.378 383.599 15.422 384.859 16.754C386.119 18.086 387.091 19.652 387.775 21.452C388.495 23.252 388.855 25.178 388.855 27.23C388.855 29.282 388.495 31.19 387.775 32.954C387.091 34.718 386.119 36.266 384.859 37.598C383.635 38.93 382.177 39.974 380.485 40.73C378.793 41.486 376.957 41.864 374.977 41.864C371.521 41.864 368.641 40.676 366.337 38.3V54.824ZM403.66 27.014C403.66 27.95 403.822 28.814 404.146 29.606C404.506 30.362 404.956 31.028 405.496 31.604C406.072 32.18 406.738 32.63 407.494 32.954C408.286 33.278 409.114 33.44 409.978 33.44C410.842 33.44 411.652 33.278 412.408 32.954C413.2 32.63 413.866 32.18 414.406 31.604C414.982 31.028 415.432 30.362 415.756 29.606C416.116 28.814 416.296 27.968 416.296 27.068C416.296 26.204 416.116 25.394 415.756 24.638C415.432 23.846 414.982 23.162 414.406 22.586C413.866 22.01 413.2 21.56 412.408 21.236C411.652 20.912 410.842 20.75 409.978 20.75C409.114 20.75 408.286 20.912 407.494 21.236C406.738 21.56 406.072 22.01 405.496 22.586C404.956 23.162 404.506 23.828 404.146 24.584C403.822 25.34 403.66 26.15 403.66 27.014ZM393.346 26.906C393.346 24.854 393.76 22.946 394.588 21.182C395.416 19.382 396.568 17.834 398.044 16.538C399.52 15.206 401.266 14.162 403.282 13.406C405.334 12.65 407.566 12.272 409.978 12.272C412.354 12.272 414.55 12.65 416.566 13.406C418.618 14.126 420.382 15.152 421.858 16.484C423.37 17.78 424.54 19.346 425.368 21.182C426.196 22.982 426.61 24.98 426.61 27.176C426.61 29.372 426.178 31.388 425.314 33.224C424.486 35.024 423.334 36.59 421.858 37.922C420.382 39.218 418.6 40.226 416.512 40.946C414.46 41.666 412.228 42.026 409.816 42.026C407.44 42.026 405.244 41.666 403.228 40.946C401.212 40.226 399.466 39.2 397.99 37.868C396.55 36.536 395.416 34.952 394.588 33.116C393.76 31.244 393.346 29.174 393.346 26.906ZM438.373 13.298L445.015 27.878L451.927 13.298H458.083L464.995 28.31L471.961 13.298H482.815L468.343 41H461.809L454.897 25.826L448.309 41H441.667L427.465 13.298H438.373ZM505.116 23.126C504.792 21.758 504.126 20.66 503.118 19.832C502.11 19.004 500.886 18.59 499.446 18.59C497.934 18.59 496.692 18.986 495.72 19.778C494.784 20.57 494.19 21.686 493.938 23.126H505.116ZM493.668 28.796C493.668 33.008 495.648 35.114 499.608 35.114C501.732 35.114 503.334 34.25 504.414 32.522H513.864C511.956 38.858 507.186 42.026 499.554 42.026C497.214 42.026 495.072 41.684 493.128 41C491.184 40.28 489.51 39.272 488.106 37.976C486.738 36.68 485.676 35.132 484.92 33.332C484.164 31.532 483.786 29.516 483.786 27.284C483.786 24.98 484.146 22.91 484.866 21.074C485.586 19.202 486.612 17.618 487.944 16.322C489.276 15.026 490.878 14.036 492.75 13.352C494.658 12.632 496.8 12.272 499.176 12.272C501.516 12.272 503.622 12.632 505.494 13.352C507.366 14.036 508.95 15.044 510.246 16.376C511.542 17.708 512.532 19.346 513.216 21.29C513.9 23.198 514.242 25.358 514.242 27.77V28.796H493.668ZM519.828 13.298H529.602V17.834C530.646 16.178 531.924 14.918 533.436 14.054C534.948 13.154 536.712 12.704 538.728 12.704C538.98 12.704 539.25 12.704 539.538 12.704C539.862 12.704 540.222 12.74 540.618 12.812V22.154C539.322 21.506 537.918 21.182 536.406 21.182C534.138 21.182 532.428 21.866 531.276 23.234C530.16 24.566 529.602 26.528 529.602 29.12V41H519.828V13.298ZM563.185 20.426C561.385 19.49 559.621 19.022 557.893 19.022C556.993 19.022 556.255 19.202 555.679 19.562C555.139 19.922 554.869 20.408 554.869 21.02C554.869 21.344 554.905 21.614 554.977 21.83C555.085 22.01 555.283 22.19 555.571 22.37C555.895 22.55 556.345 22.712 556.921 22.856C557.533 23 558.325 23.18 559.297 23.396C561.997 23.936 564.013 24.908 565.345 26.312C566.677 27.68 567.343 29.444 567.343 31.604C567.343 33.224 567.019 34.682 566.371 35.978C565.723 37.274 564.823 38.372 563.671 39.272C562.519 40.136 561.133 40.802 559.513 41.27C557.893 41.774 556.111 42.026 554.167 42.026C550.423 42.026 546.733 40.964 543.097 38.84L546.661 31.928C549.397 33.8 551.989 34.736 554.437 34.736C555.337 34.736 556.075 34.538 556.651 34.142C557.227 33.746 557.515 33.242 557.515 32.63C557.515 32.27 557.461 31.982 557.353 31.766C557.281 31.514 557.101 31.298 556.813 31.118C556.525 30.902 556.093 30.722 555.517 30.578C554.977 30.398 554.257 30.218 553.357 30.038C550.333 29.426 548.209 28.526 546.985 27.338C545.797 26.114 545.203 24.44 545.203 22.316C545.203 20.768 545.491 19.382 546.067 18.158C546.643 16.898 547.471 15.836 548.551 14.972C549.631 14.108 550.927 13.442 552.439 12.974C553.987 12.506 555.697 12.272 557.569 12.272C560.629 12.272 563.599 12.866 566.479 14.054L563.185 20.426ZM25.434 99.23C25.434 98.366 25.272 97.556 24.948 96.8C24.66 96.008 24.228 95.324 23.652 94.748C23.076 94.172 22.392 93.722 21.6 93.398C20.844 93.038 20.016 92.858 19.116 92.858C18.252 92.858 17.442 93.02 16.686 93.344C15.93 93.668 15.264 94.118 14.688 94.694C14.148 95.27 13.698 95.954 13.338 96.746C13.014 97.502 12.852 98.312 12.852 99.176C12.852 100.04 13.014 100.85 13.338 101.606C13.662 102.362 14.112 103.028 14.688 103.604C15.264 104.144 15.93 104.594 16.686 104.954C17.478 105.278 18.306 105.44 19.17 105.44C20.034 105.44 20.844 105.278 21.6 104.954C22.356 104.63 23.004 104.18 23.544 103.604C24.12 103.028 24.57 102.362 24.894 101.606C25.254 100.85 25.434 100.058 25.434 99.23ZM13.122 126.824H3.348V85.298H13.122V88.376C15.21 85.748 18.054 84.434 21.654 84.434C23.634 84.434 25.47 84.83 27.162 85.622C28.89 86.378 30.384 87.422 31.644 88.754C32.904 90.086 33.876 91.652 34.56 93.452C35.28 95.252 35.64 97.178 35.64 99.23C35.64 101.282 35.28 103.19 34.56 104.954C33.876 106.718 32.904 108.266 31.644 109.598C30.42 110.93 28.962 111.974 27.27 112.73C25.578 113.486 23.742 113.864 21.762 113.864C18.306 113.864 15.426 112.676 13.122 110.3V126.824ZM41.2113 85.298H50.9853V89.834C52.0293 88.178 53.3073 86.918 54.8193 86.054C56.3313 85.154 58.0953 84.704 60.1113 84.704C60.3633 84.704 60.6333 84.704 60.9213 84.704C61.2453 84.704 61.6053 84.74 62.0013 84.812V94.154C60.7053 93.506 59.3013 93.182 57.7893 93.182C55.5213 93.182 53.8113 93.866 52.6593 95.234C51.5433 96.566 50.9853 98.528 50.9853 101.12V113H41.2113V85.298ZM75.8105 99.014C75.8105 99.95 75.9725 100.814 76.2965 101.606C76.6565 102.362 77.1065 103.028 77.6465 103.604C78.2225 104.18 78.8885 104.63 79.6445 104.954C80.4365 105.278 81.2645 105.44 82.1285 105.44C82.9925 105.44 83.8025 105.278 84.5585 104.954C85.3505 104.63 86.0165 104.18 86.5565 103.604C87.1325 103.028 87.5825 102.362 87.9065 101.606C88.2665 100.814 88.4465 99.968 88.4465 99.068C88.4465 98.204 88.2665 97.394 87.9065 96.638C87.5825 95.846 87.1325 95.162 86.5565 94.586C86.0165 94.01 85.3505 93.56 84.5585 93.236C83.8025 92.912 82.9925 92.75 82.1285 92.75C81.2645 92.75 80.4365 92.912 79.6445 93.236C78.8885 93.56 78.2225 94.01 77.6465 94.586C77.1065 95.162 76.6565 95.828 76.2965 96.584C75.9725 97.34 75.8105 98.15 75.8105 99.014ZM65.4965 98.906C65.4965 96.854 65.9105 94.946 66.7385 93.182C67.5665 91.382 68.7185 89.834 70.1945 88.538C71.6705 87.206 73.4165 86.162 75.4325 85.406C77.4845 84.65 79.7165 84.272 82.1285 84.272C84.5045 84.272 86.7005 84.65 88.7165 85.406C90.7685 86.126 92.5325 87.152 94.0085 88.484C95.5205 89.78 96.6905 91.346 97.5185 93.182C98.3465 94.982 98.7605 96.98 98.7605 99.176C98.7605 101.372 98.3285 103.388 97.4645 105.224C96.6365 107.024 95.4845 108.59 94.0085 109.922C92.5325 111.218 90.7505 112.226 88.6625 112.946C86.6105 113.666 84.3785 114.026 81.9665 114.026C79.5905 114.026 77.3945 113.666 75.3785 112.946C73.3625 112.226 71.6165 111.2 70.1405 109.868C68.7005 108.536 67.5665 106.952 66.7385 105.116C65.9105 103.244 65.4965 101.174 65.4965 98.906ZM114.161 85.298V126.824H104.387V85.298H114.161ZM103.739 74.66C103.739 73.904 103.883 73.202 104.171 72.554C104.459 71.87 104.855 71.276 105.359 70.772C105.863 70.268 106.439 69.872 107.087 69.584C107.771 69.296 108.491 69.152 109.247 69.152C110.003 69.152 110.705 69.296 111.353 69.584C112.037 69.872 112.631 70.268 113.135 70.772C113.639 71.276 114.035 71.87 114.323 72.554C114.611 73.202 114.755 73.904 114.755 74.66C114.755 75.416 114.611 76.136 114.323 76.82C114.035 77.468 113.639 78.044 113.135 78.548C112.631 79.052 112.037 79.448 111.353 79.736C110.705 80.024 110.003 80.168 109.247 80.168C108.491 80.168 107.771 80.024 107.087 79.736C106.439 79.448 105.863 79.052 105.359 78.548C104.855 78.044 104.459 77.468 104.171 76.82C103.883 76.136 103.739 75.416 103.739 74.66ZM141.09 95.126C140.766 93.758 140.1 92.66 139.092 91.832C138.084 91.004 136.86 90.59 135.42 90.59C133.908 90.59 132.666 90.986 131.694 91.778C130.758 92.57 130.164 93.686 129.912 95.126H141.09ZM129.642 100.796C129.642 105.008 131.622 107.114 135.582 107.114C137.706 107.114 139.308 106.25 140.388 104.522H149.838C147.93 110.858 143.16 114.026 135.528 114.026C133.188 114.026 131.046 113.684 129.102 113C127.158 112.28 125.484 111.272 124.08 109.976C122.712 108.68 121.65 107.132 120.894 105.332C120.138 103.532 119.76 101.516 119.76 99.284C119.76 96.98 120.12 94.91 120.84 93.074C121.56 91.202 122.586 89.618 123.918 88.322C125.25 87.026 126.852 86.036 128.724 85.352C130.632 84.632 132.774 84.272 135.15 84.272C137.49 84.272 139.596 84.632 141.468 85.352C143.34 86.036 144.924 87.044 146.22 88.376C147.516 89.708 148.506 91.346 149.19 93.29C149.874 95.198 150.216 97.358 150.216 99.77V100.796H129.642ZM176.701 94.262C175.009 93.11 173.299 92.534 171.571 92.534C170.635 92.534 169.753 92.696 168.925 93.02C168.133 93.344 167.431 93.812 166.819 94.424C166.207 95 165.721 95.702 165.361 96.53C165.037 97.322 164.875 98.222 164.875 99.23C164.875 100.202 165.037 101.102 165.361 101.93C165.721 102.722 166.189 103.424 166.765 104.036C167.377 104.612 168.097 105.062 168.925 105.386C169.753 105.71 170.635 105.872 171.571 105.872C173.407 105.872 175.117 105.242 176.701 103.982V112.298C174.289 113.342 172.003 113.864 169.843 113.864C167.827 113.864 165.901 113.522 164.065 112.838C162.265 112.154 160.663 111.182 159.259 109.922C157.891 108.626 156.793 107.096 155.965 105.332C155.137 103.532 154.723 101.534 154.723 99.338C154.723 97.142 155.119 95.144 155.911 93.344C156.703 91.508 157.783 89.942 159.151 88.646C160.519 87.314 162.139 86.288 164.011 85.568C165.919 84.812 167.953 84.434 170.113 84.434C172.489 84.434 174.685 84.938 176.701 85.946V94.262ZM193.184 93.452V113H183.41V93.452H180.17V85.298H183.41V76.982H193.184V85.298H198.746V93.452H193.184ZM221.044 92.426C219.244 91.49 217.48 91.022 215.752 91.022C214.852 91.022 214.114 91.202 213.538 91.562C212.998 91.922 212.728 92.408 212.728 93.02C212.728 93.344 212.764 93.614 212.836 93.83C212.944 94.01 213.142 94.19 213.43 94.37C213.754 94.55 214.204 94.712 214.78 94.856C215.392 95 216.184 95.18 217.156 95.396C219.856 95.936 221.872 96.908 223.204 98.312C224.536 99.68 225.202 101.444 225.202 103.604C225.202 105.224 224.878 106.682 224.23 107.978C223.582 109.274 222.682 110.372 221.53 111.272C220.378 112.136 218.992 112.802 217.372 113.27C215.752 113.774 213.97 114.026 212.026 114.026C208.282 114.026 204.592 112.964 200.956 110.84L204.52 103.928C207.256 105.8 209.848 106.736 212.296 106.736C213.196 106.736 213.934 106.538 214.51 106.142C215.086 105.746 215.374 105.242 215.374 104.63C215.374 104.27 215.32 103.982 215.212 103.766C215.14 103.514 214.96 103.298 214.672 103.118C214.384 102.902 213.952 102.722 213.376 102.578C212.836 102.398 212.116 102.218 211.216 102.038C208.192 101.426 206.068 100.526 204.844 99.338C203.656 98.114 203.062 96.44 203.062 94.316C203.062 92.768 203.35 91.382 203.926 90.158C204.502 88.898 205.33 87.836 206.41 86.972C207.49 86.108 208.786 85.442 210.298 84.974C211.846 84.506 213.556 84.272 215.428 84.272C218.488 84.272 221.458 84.866 224.338 86.054L221.044 92.426ZM257.582 99.068C257.582 99.968 257.744 100.814 258.068 101.606C258.392 102.362 258.824 103.028 259.364 103.604C259.94 104.18 260.606 104.63 261.362 104.954C262.154 105.278 263 105.44 263.9 105.44C264.764 105.44 265.574 105.278 266.33 104.954C267.122 104.63 267.788 104.18 268.328 103.604C268.904 103.028 269.354 102.362 269.678 101.606C270.038 100.85 270.218 100.04 270.218 99.176C270.218 98.312 270.038 97.502 269.678 96.746C269.354 95.954 268.904 95.27 268.328 94.694C267.788 94.118 267.122 93.668 266.33 93.344C265.574 93.02 264.764 92.858 263.9 92.858C263 92.858 262.154 93.02 261.362 93.344C260.606 93.668 259.94 94.118 259.364 94.694C258.824 95.27 258.392 95.936 258.068 96.692C257.744 97.412 257.582 98.204 257.582 99.068ZM269.894 85.298H279.722V113H269.894V109.922C267.806 112.55 264.98 113.864 261.416 113.864C259.4 113.864 257.546 113.504 255.854 112.784C254.162 112.028 252.686 110.984 251.426 109.652C250.166 108.32 249.176 106.754 248.456 104.954C247.772 103.154 247.43 101.192 247.43 99.068C247.43 97.088 247.772 95.216 248.456 93.452C249.14 91.652 250.094 90.086 251.318 88.754C252.542 87.422 254 86.378 255.692 85.622C257.384 84.83 259.256 84.434 261.308 84.434C264.764 84.434 267.626 85.64 269.894 88.052V85.298ZM286.373 85.298H296.147V88.808C297.479 87.188 298.829 86.108 300.197 85.568C301.565 84.992 303.167 84.704 305.003 84.704C306.947 84.704 308.603 85.028 309.971 85.676C311.375 86.288 312.563 87.17 313.535 88.322C314.327 89.258 314.867 90.302 315.155 91.454C315.443 92.606 315.587 93.92 315.587 95.396V113H305.813V99.014C305.813 97.646 305.705 96.548 305.489 95.72C305.309 94.856 304.967 94.172 304.463 93.668C304.031 93.236 303.545 92.93 303.005 92.75C302.465 92.57 301.889 92.48 301.277 92.48C299.621 92.48 298.343 92.984 297.443 93.992C296.579 94.964 296.147 96.368 296.147 98.204V113H286.373V85.298ZM331.305 99.068C331.305 99.968 331.467 100.814 331.791 101.606C332.115 102.362 332.547 103.028 333.087 103.604C333.663 104.18 334.329 104.63 335.085 104.954C335.877 105.278 336.723 105.44 337.623 105.44C338.487 105.44 339.297 105.278 340.053 104.954C340.845 104.63 341.511 104.18 342.051 103.604C342.627 103.028 343.077 102.362 343.401 101.606C343.761 100.85 343.941 100.04 343.941 99.176C343.941 98.312 343.761 97.502 343.401 96.746C343.077 95.954 342.627 95.27 342.051 94.694C341.511 94.118 340.845 93.668 340.053 93.344C339.297 93.02 338.487 92.858 337.623 92.858C336.759 92.858 335.931 93.02 335.139 93.344C334.383 93.668 333.717 94.118 333.141 94.694C332.601 95.27 332.151 95.936 331.791 96.692C331.467 97.412 331.305 98.204 331.305 99.068ZM343.617 68.18H353.445V113H343.617V109.922C341.529 112.55 338.703 113.864 335.139 113.864C333.123 113.864 331.269 113.486 329.577 112.73C327.885 111.974 326.409 110.93 325.149 109.598C323.889 108.266 322.899 106.7 322.179 104.9C321.495 103.1 321.153 101.156 321.153 99.068C321.153 97.088 321.477 95.216 322.125 93.452C322.809 91.652 323.763 90.086 324.987 88.754C326.211 87.422 327.669 86.378 329.361 85.622C331.089 84.83 332.979 84.434 335.031 84.434C338.487 84.434 341.349 85.64 343.617 88.052V68.18ZM387.52 99.068C387.52 99.968 387.682 100.814 388.006 101.606C388.33 102.362 388.762 103.028 389.302 103.604C389.878 104.18 390.544 104.63 391.3 104.954C392.092 105.278 392.938 105.44 393.838 105.44C394.702 105.44 395.512 105.278 396.268 104.954C397.06 104.63 397.726 104.18 398.266 103.604C398.842 103.028 399.292 102.362 399.616 101.606C399.976 100.85 400.156 100.04 400.156 99.176C400.156 98.312 399.976 97.502 399.616 96.746C399.292 95.954 398.842 95.27 398.266 94.694C397.726 94.118 397.06 93.668 396.268 93.344C395.512 93.02 394.702 92.858 393.838 92.858C392.974 92.858 392.146 93.02 391.354 93.344C390.598 93.668 389.932 94.118 389.356 94.694C388.816 95.27 388.366 95.936 388.006 96.692C387.682 97.412 387.52 98.204 387.52 99.068ZM399.832 68.18H409.66V113H399.832V109.922C397.744 112.55 394.918 113.864 391.354 113.864C389.338 113.864 387.484 113.486 385.792 112.73C384.1 111.974 382.624 110.93 381.364 109.598C380.104 108.266 379.114 106.7 378.394 104.9C377.71 103.1 377.368 101.156 377.368 99.068C377.368 97.088 377.692 95.216 378.34 93.452C379.024 91.652 379.978 90.086 381.202 88.754C382.426 87.422 383.884 86.378 385.576 85.622C387.304 84.83 389.194 84.434 391.246 84.434C394.702 84.434 397.564 85.64 399.832 88.052V68.18ZM436.561 95.126C436.237 93.758 435.571 92.66 434.563 91.832C433.555 91.004 432.331 90.59 430.891 90.59C429.379 90.59 428.137 90.986 427.165 91.778C426.229 92.57 425.635 93.686 425.383 95.126H436.561ZM425.113 100.796C425.113 105.008 427.093 107.114 431.053 107.114C433.177 107.114 434.779 106.25 435.859 104.522H445.309C443.401 110.858 438.631 114.026 430.999 114.026C428.659 114.026 426.517 113.684 424.573 113C422.629 112.28 420.955 111.272 419.551 109.976C418.183 108.68 417.121 107.132 416.365 105.332C415.609 103.532 415.231 101.516 415.231 99.284C415.231 96.98 415.591 94.91 416.311 93.074C417.031 91.202 418.057 89.618 419.389 88.322C420.721 87.026 422.323 86.036 424.195 85.352C426.103 84.632 428.245 84.272 430.621 84.272C432.961 84.272 435.067 84.632 436.939 85.352C438.811 86.036 440.395 87.044 441.691 88.376C442.987 89.708 443.977 91.346 444.661 93.29C445.345 95.198 445.687 97.358 445.687 99.77V100.796H425.113ZM457.623 85.298L464.211 99.5L470.907 85.298H481.815L467.397 113H460.863L446.607 85.298H457.623ZM504.114 95.126C503.79 93.758 503.124 92.66 502.116 91.832C501.108 91.004 499.884 90.59 498.444 90.59C496.932 90.59 495.69 90.986 494.718 91.778C493.782 92.57 493.188 93.686 492.936 95.126H504.114ZM492.666 100.796C492.666 105.008 494.646 107.114 498.606 107.114C500.73 107.114 502.332 106.25 503.412 104.522H512.862C510.954 110.858 506.184 114.026 498.552 114.026C496.212 114.026 494.07 113.684 492.126 113C490.182 112.28 488.508 111.272 487.104 109.976C485.736 108.68 484.674 107.132 483.918 105.332C483.162 103.532 482.784 101.516 482.784 99.284C482.784 96.98 483.144 94.91 483.864 93.074C484.584 91.202 485.61 89.618 486.942 88.322C488.274 87.026 489.876 86.036 491.748 85.352C493.656 84.632 495.798 84.272 498.174 84.272C500.514 84.272 502.62 84.632 504.492 85.352C506.364 86.036 507.948 87.044 509.244 88.376C510.54 89.708 511.53 91.346 512.214 93.29C512.898 95.198 513.24 97.358 513.24 99.77V100.796H492.666ZM528.601 68.18V113H518.827V68.18H528.601ZM544.514 99.014C544.514 99.95 544.676 100.814 545 101.606C545.36 102.362 545.81 103.028 546.35 103.604C546.926 104.18 547.592 104.63 548.348 104.954C549.14 105.278 549.968 105.44 550.832 105.44C551.696 105.44 552.506 105.278 553.262 104.954C554.054 104.63 554.72 104.18 555.26 103.604C555.836 103.028 556.286 102.362 556.61 101.606C556.97 100.814 557.15 99.968 557.15 99.068C557.15 98.204 556.97 97.394 556.61 96.638C556.286 95.846 555.836 95.162 555.26 94.586C554.72 94.01 554.054 93.56 553.262 93.236C552.506 92.912 551.696 92.75 550.832 92.75C549.968 92.75 549.14 92.912 548.348 93.236C547.592 93.56 546.926 94.01 546.35 94.586C545.81 95.162 545.36 95.828 545 96.584C544.676 97.34 544.514 98.15 544.514 99.014ZM534.2 98.906C534.2 96.854 534.614 94.946 535.442 93.182C536.27 91.382 537.422 89.834 538.898 88.538C540.374 87.206 542.12 86.162 544.136 85.406C546.188 84.65 548.42 84.272 550.832 84.272C553.208 84.272 555.404 84.65 557.42 85.406C559.472 86.126 561.236 87.152 562.712 88.484C564.224 89.78 565.394 91.346 566.222 93.182C567.05 94.982 567.464 96.98 567.464 99.176C567.464 101.372 567.032 103.388 566.168 105.224C565.34 107.024 564.188 108.59 562.712 109.922C561.236 111.218 559.454 112.226 557.366 112.946C555.314 113.666 553.082 114.026 550.67 114.026C548.294 114.026 546.098 113.666 544.082 112.946C542.066 112.226 540.32 111.2 538.844 109.868C537.404 108.536 536.27 106.952 535.442 105.116C534.614 103.244 534.2 101.174 534.2 98.906ZM595.176 99.23C595.176 98.366 595.014 97.556 594.69 96.8C594.402 96.008 593.97 95.324 593.394 94.748C592.818 94.172 592.134 93.722 591.342 93.398C590.586 93.038 589.758 92.858 588.858 92.858C587.994 92.858 587.184 93.02 586.428 93.344C585.672 93.668 585.006 94.118 584.43 94.694C583.89 95.27 583.44 95.954 583.08 96.746C582.756 97.502 582.594 98.312 582.594 99.176C582.594 100.04 582.756 100.85 583.08 101.606C583.404 102.362 583.854 103.028 584.43 103.604C585.006 104.144 585.672 104.594 586.428 104.954C587.22 105.278 588.048 105.44 588.912 105.44C589.776 105.44 590.586 105.278 591.342 104.954C592.098 104.63 592.746 104.18 593.286 103.604C593.862 103.028 594.312 102.362 594.636 101.606C594.996 100.85 595.176 100.058 595.176 99.23ZM582.864 126.824H573.09V85.298H582.864V88.376C584.952 85.748 587.796 84.434 591.396 84.434C593.376 84.434 595.212 84.83 596.904 85.622C598.632 86.378 600.126 87.422 601.386 88.754C602.646 90.086 603.618 91.652 604.302 93.452C605.022 95.252 605.382 97.178 605.382 99.23C605.382 101.282 605.022 103.19 604.302 104.954C603.618 106.718 602.646 108.266 601.386 109.598C600.162 110.93 598.704 111.974 597.012 112.73C595.32 113.486 593.484 113.864 591.504 113.864C588.048 113.864 585.168 112.676 582.864 110.3V126.824ZM631.203 95.126C630.879 93.758 630.213 92.66 629.205 91.832C628.197 91.004 626.973 90.59 625.533 90.59C624.021 90.59 622.779 90.986 621.807 91.778C620.871 92.57 620.277 93.686 620.025 95.126H631.203ZM619.755 100.796C619.755 105.008 621.735 107.114 625.695 107.114C627.819 107.114 629.421 106.25 630.501 104.522H639.951C638.043 110.858 633.273 114.026 625.641 114.026C623.301 114.026 621.159 113.684 619.215 113C617.271 112.28 615.597 111.272 614.193 109.976C612.825 108.68 611.763 107.132 611.007 105.332C610.251 103.532 609.873 101.516 609.873 99.284C609.873 96.98 610.233 94.91 610.953 93.074C611.673 91.202 612.699 89.618 614.031 88.322C615.363 87.026 616.965 86.036 618.837 85.352C620.745 84.632 622.887 84.272 625.263 84.272C627.603 84.272 629.709 84.632 631.581 85.352C633.453 86.036 635.037 87.044 636.333 88.376C637.629 89.708 638.619 91.346 639.303 93.29C639.987 95.198 640.329 97.358 640.329 99.77V100.796H619.755ZM645.916 85.298H655.69V89.834C656.734 88.178 658.012 86.918 659.524 86.054C661.036 85.154 662.8 84.704 664.816 84.704C665.068 84.704 665.338 84.704 665.626 84.704C665.95 84.704 666.31 84.74 666.706 84.812V94.154C665.41 93.506 664.006 93.182 662.494 93.182C660.226 93.182 658.516 93.866 657.364 95.234C656.248 96.566 655.69 98.528 655.69 101.12V113H645.916V85.298ZM689.272 92.426C687.472 91.49 685.708 91.022 683.98 91.022C683.08 91.022 682.342 91.202 681.766 91.562C681.226 91.922 680.956 92.408 680.956 93.02C680.956 93.344 680.992 93.614 681.064 93.83C681.172 94.01 681.37 94.19 681.658 94.37C681.982 94.55 682.432 94.712 683.008 94.856C683.62 95 684.412 95.18 685.384 95.396C688.084 95.936 690.1 96.908 691.432 98.312C692.764 99.68 693.43 101.444 693.43 103.604C693.43 105.224 693.106 106.682 692.458 107.978C691.81 109.274 690.91 110.372 689.758 111.272C688.606 112.136 687.22 112.802 685.6 113.27C683.98 113.774 682.198 114.026 680.254 114.026C676.51 114.026 672.82 112.964 669.184 110.84L672.748 103.928C675.484 105.8 678.076 106.736 680.524 106.736C681.424 106.736 682.162 106.538 682.738 106.142C683.314 105.746 683.602 105.242 683.602 104.63C683.602 104.27 683.548 103.982 683.44 103.766C683.368 103.514 683.188 103.298 682.9 103.118C682.612 102.902 682.18 102.722 681.604 102.578C681.064 102.398 680.344 102.218 679.444 102.038C676.42 101.426 674.296 100.526 673.072 99.338C671.884 98.114 671.29 96.44 671.29 94.316C671.29 92.768 671.578 91.382 672.154 90.158C672.73 88.898 673.558 87.836 674.638 86.972C675.718 86.108 677.014 85.442 678.526 84.974C680.074 84.506 681.784 84.272 683.656 84.272C686.716 84.272 689.686 84.866 692.566 86.054L689.272 92.426ZM726.513 85.298V113H716.739V85.298H726.513ZM716.091 74.66C716.091 73.904 716.235 73.202 716.523 72.554C716.811 71.87 717.207 71.276 717.711 70.772C718.215 70.268 718.791 69.872 719.439 69.584C720.123 69.296 720.843 69.152 721.599 69.152C722.355 69.152 723.057 69.296 723.705 69.584C724.389 69.872 724.983 70.268 725.487 70.772C725.991 71.276 726.387 71.87 726.675 72.554C726.963 73.202 727.107 73.904 727.107 74.66C727.107 75.416 726.963 76.136 726.675 76.82C726.387 77.468 725.991 78.044 725.487 78.548C724.983 79.052 724.389 79.448 723.705 79.736C723.057 80.024 722.355 80.168 721.599 80.168C720.843 80.168 720.123 80.024 719.439 79.736C718.791 79.448 718.215 79.052 717.711 78.548C717.207 78.044 716.811 77.468 716.523 76.82C716.235 76.136 716.091 75.416 716.091 74.66ZM733.192 85.298H742.966V88.808C744.298 87.188 745.648 86.108 747.016 85.568C748.384 84.992 749.986 84.704 751.822 84.704C753.766 84.704 755.422 85.028 756.79 85.676C758.194 86.288 759.382 87.17 760.354 88.322C761.146 89.258 761.686 90.302 761.974 91.454C762.262 92.606 762.406 93.92 762.406 95.396V113H752.632V99.014C752.632 97.646 752.524 96.548 752.308 95.72C752.128 94.856 751.786 94.172 751.282 93.668C750.85 93.236 750.364 92.93 749.824 92.75C749.284 92.57 748.708 92.48 748.096 92.48C746.44 92.48 745.162 92.984 744.262 93.992C743.398 94.964 742.966 96.368 742.966 98.204V113H733.192V85.298ZM196.19 165.452V185H186.416V165.452H183.176V157.298H186.416V148.982H196.19V157.298H201.752V165.452H196.19ZM215.135 171.014C215.135 171.95 215.297 172.814 215.621 173.606C215.981 174.362 216.431 175.028 216.971 175.604C217.547 176.18 218.213 176.63 218.969 176.954C219.761 177.278 220.589 177.44 221.453 177.44C222.317 177.44 223.127 177.278 223.883 176.954C224.675 176.63 225.341 176.18 225.881 175.604C226.457 175.028 226.907 174.362 227.231 173.606C227.591 172.814 227.771 171.968 227.771 171.068C227.771 170.204 227.591 169.394 227.231 168.638C226.907 167.846 226.457 167.162 225.881 166.586C225.341 166.01 224.675 165.56 223.883 165.236C223.127 164.912 222.317 164.75 221.453 164.75C220.589 164.75 219.761 164.912 218.969 165.236C218.213 165.56 217.547 166.01 216.971 166.586C216.431 167.162 215.981 167.828 215.621 168.584C215.297 169.34 215.135 170.15 215.135 171.014ZM204.821 170.906C204.821 168.854 205.235 166.946 206.063 165.182C206.891 163.382 208.043 161.834 209.519 160.538C210.995 159.206 212.741 158.162 214.757 157.406C216.809 156.65 219.041 156.272 221.453 156.272C223.829 156.272 226.025 156.65 228.041 157.406C230.093 158.126 231.857 159.152 233.333 160.484C234.845 161.78 236.015 163.346 236.843 165.182C237.671 166.982 238.085 168.98 238.085 171.176C238.085 173.372 237.653 175.388 236.789 177.224C235.961 179.024 234.809 180.59 233.333 181.922C231.857 183.218 230.075 184.226 227.987 184.946C225.935 185.666 223.703 186.026 221.291 186.026C218.915 186.026 216.719 185.666 214.703 184.946C212.687 184.226 210.941 183.2 209.465 181.868C208.025 180.536 206.891 178.952 206.063 177.116C205.235 175.244 204.821 173.174 204.821 170.906ZM284.149 171.23C284.149 170.366 283.987 169.556 283.663 168.8C283.339 168.008 282.889 167.324 282.313 166.748C281.737 166.172 281.071 165.722 280.315 165.398C279.559 165.038 278.731 164.858 277.831 164.858C276.967 164.858 276.157 165.02 275.401 165.344C274.645 165.668 273.979 166.118 273.403 166.694C272.863 167.27 272.413 167.954 272.053 168.746C271.729 169.502 271.567 170.312 271.567 171.176C271.567 172.04 271.729 172.85 272.053 173.606C272.377 174.362 272.827 175.028 273.403 175.604C273.979 176.144 274.645 176.594 275.401 176.954C276.193 177.278 277.021 177.44 277.885 177.44C278.749 177.44 279.559 177.278 280.315 176.954C281.071 176.63 281.719 176.18 282.259 175.604C282.835 175.028 283.285 174.362 283.609 173.606C283.969 172.85 284.149 172.058 284.149 171.23ZM271.837 140.18V160.052C274.141 157.64 277.021 156.434 280.477 156.434C282.529 156.434 284.401 156.83 286.093 157.622C287.821 158.378 289.279 159.422 290.467 160.754C291.691 162.05 292.645 163.598 293.329 165.398C294.013 167.162 294.355 169.052 294.355 171.068C294.355 173.12 293.995 175.046 293.275 176.846C292.591 178.646 291.619 180.212 290.359 181.544C289.099 182.876 287.605 183.938 285.877 184.73C284.185 185.486 282.349 185.864 280.369 185.864C276.769 185.864 273.925 184.55 271.837 181.922V185H262.063V140.18H271.837ZM309.7 157.298V172.904C309.7 176.324 311.356 178.034 314.668 178.034C317.98 178.034 319.636 176.324 319.636 172.904V157.298H329.41V174.794C329.41 178.538 328.168 181.346 325.684 183.218C323.236 185.09 319.564 186.026 314.668 186.026C309.772 186.026 306.082 185.09 303.598 183.218C301.15 181.346 299.926 178.538 299.926 174.794V157.298H309.7ZM345.823 157.298V185H336.049V157.298H345.823ZM335.401 146.66C335.401 145.904 335.545 145.202 335.833 144.554C336.121 143.87 336.517 143.276 337.021 142.772C337.525 142.268 338.101 141.872 338.749 141.584C339.433 141.296 340.153 141.152 340.909 141.152C341.665 141.152 342.367 141.296 343.015 141.584C343.699 141.872 344.293 142.268 344.797 142.772C345.301 143.276 345.697 143.87 345.985 144.554C346.273 145.202 346.417 145.904 346.417 146.66C346.417 147.416 346.273 148.136 345.985 148.82C345.697 149.468 345.301 150.044 344.797 150.548C344.293 151.052 343.699 151.448 343.015 151.736C342.367 152.024 341.665 152.168 340.909 152.168C340.153 152.168 339.433 152.024 338.749 151.736C338.101 151.448 337.525 151.052 337.021 150.548C336.517 150.044 336.121 149.468 335.833 148.82C335.545 148.136 335.401 147.416 335.401 146.66ZM362.276 140.18V185H352.502V140.18H362.276ZM378.027 171.068C378.027 171.968 378.189 172.814 378.513 173.606C378.837 174.362 379.269 175.028 379.809 175.604C380.385 176.18 381.051 176.63 381.807 176.954C382.599 177.278 383.445 177.44 384.345 177.44C385.209 177.44 386.019 177.278 386.775 176.954C387.567 176.63 388.233 176.18 388.773 175.604C389.349 175.028 389.799 174.362 390.123 173.606C390.483 172.85 390.663 172.04 390.663 171.176C390.663 170.312 390.483 169.502 390.123 168.746C389.799 167.954 389.349 167.27 388.773 166.694C388.233 166.118 387.567 165.668 386.775 165.344C386.019 165.02 385.209 164.858 384.345 164.858C383.481 164.858 382.653 165.02 381.861 165.344C381.105 165.668 380.439 166.118 379.863 166.694C379.323 167.27 378.873 167.936 378.513 168.692C378.189 169.412 378.027 170.204 378.027 171.068ZM390.339 140.18H400.167V185H390.339V181.922C388.251 184.55 385.425 185.864 381.861 185.864C379.845 185.864 377.991 185.486 376.299 184.73C374.607 183.974 373.131 182.93 371.871 181.598C370.611 180.266 369.621 178.7 368.901 176.9C368.217 175.1 367.875 173.156 367.875 171.068C367.875 169.088 368.199 167.216 368.847 165.452C369.531 163.652 370.485 162.086 371.709 160.754C372.933 159.422 374.391 158.378 376.083 157.622C377.811 156.83 379.701 156.434 381.753 156.434C385.209 156.434 388.071 157.64 390.339 160.052V140.18ZM436.078 165.452V185H426.304V165.452H423.064V157.298H426.304V148.982H436.078V157.298H441.64V165.452H436.078ZM446.58 140.18H456.354V160.808C457.686 159.188 459.036 158.108 460.404 157.568C461.772 156.992 463.374 156.704 465.21 156.704C468.702 156.704 471.33 157.676 473.094 159.62C474.894 161.528 475.794 164.12 475.794 167.396V185H466.02V171.014C466.02 169.61 465.912 168.476 465.696 167.612C465.48 166.748 465.12 166.082 464.616 165.614C463.752 164.858 462.708 164.48 461.484 164.48C459.828 164.48 458.55 164.984 457.65 165.992C456.786 166.964 456.354 168.368 456.354 170.204V185H446.58V140.18ZM502.69 167.126C502.366 165.758 501.7 164.66 500.692 163.832C499.684 163.004 498.46 162.59 497.02 162.59C495.508 162.59 494.266 162.986 493.294 163.778C492.358 164.57 491.764 165.686 491.512 167.126H502.69ZM491.242 172.796C491.242 177.008 493.222 179.114 497.182 179.114C499.306 179.114 500.908 178.25 501.988 176.522H511.438C509.53 182.858 504.76 186.026 497.128 186.026C494.788 186.026 492.646 185.684 490.702 185C488.758 184.28 487.084 183.272 485.68 181.976C484.312 180.68 483.25 179.132 482.494 177.332C481.738 175.532 481.36 173.516 481.36 171.284C481.36 168.98 481.72 166.91 482.44 165.074C483.16 163.202 484.186 161.618 485.518 160.322C486.85 159.026 488.452 158.036 490.324 157.352C492.232 156.632 494.374 156.272 496.75 156.272C499.09 156.272 501.196 156.632 503.068 157.352C504.94 158.036 506.524 159.044 507.82 160.376C509.116 161.708 510.106 163.346 510.79 165.29C511.474 167.198 511.816 169.358 511.816 171.77V172.796H491.242ZM527.177 157.298V185H517.403V157.298H527.177ZM516.755 146.66C516.755 145.904 516.899 145.202 517.187 144.554C517.475 143.87 517.871 143.276 518.375 142.772C518.879 142.268 519.455 141.872 520.103 141.584C520.787 141.296 521.507 141.152 522.263 141.152C523.019 141.152 523.721 141.296 524.369 141.584C525.053 141.872 525.647 142.268 526.151 142.772C526.655 143.276 527.051 143.87 527.339 144.554C527.627 145.202 527.771 145.904 527.771 146.66C527.771 147.416 527.627 148.136 527.339 148.82C527.051 149.468 526.655 150.044 526.151 150.548C525.647 151.052 525.053 151.448 524.369 151.736C523.721 152.024 523.019 152.168 522.263 152.168C521.507 152.168 520.787 152.024 520.103 151.736C519.455 151.448 518.879 151.052 518.375 150.548C517.871 150.044 517.475 149.468 517.187 148.82C516.899 148.136 516.755 147.416 516.755 146.66ZM533.856 157.298H543.63V161.834C544.674 160.178 545.952 158.918 547.464 158.054C548.976 157.154 550.74 156.704 552.756 156.704C553.008 156.704 553.278 156.704 553.566 156.704C553.89 156.704 554.25 156.74 554.646 156.812V166.154C553.35 165.506 551.946 165.182 550.434 165.182C548.166 165.182 546.456 165.866 545.304 167.234C544.188 168.566 543.63 170.528 543.63 173.12V185H533.856V157.298ZM586.381 171.068C586.381 171.968 586.543 172.814 586.867 173.606C587.191 174.362 587.623 175.028 588.163 175.604C588.739 176.18 589.405 176.63 590.161 176.954C590.953 177.278 591.799 177.44 592.699 177.44C593.563 177.44 594.373 177.278 595.129 176.954C595.921 176.63 596.587 176.18 597.127 175.604C597.703 175.028 598.153 174.362 598.477 173.606C598.837 172.85 599.017 172.04 599.017 171.176C599.017 170.312 598.837 169.502 598.477 168.746C598.153 167.954 597.703 167.27 597.127 166.694C596.587 166.118 595.921 165.668 595.129 165.344C594.373 165.02 593.563 164.858 592.699 164.858C591.835 164.858 591.007 165.02 590.215 165.344C589.459 165.668 588.793 166.118 588.217 166.694C587.677 167.27 587.227 167.936 586.867 168.692C586.543 169.412 586.381 170.204 586.381 171.068ZM598.693 140.18H608.521V185H598.693V181.922C596.605 184.55 593.779 185.864 590.215 185.864C588.199 185.864 586.345 185.486 584.653 184.73C582.961 183.974 581.485 182.93 580.225 181.598C578.965 180.266 577.975 178.7 577.255 176.9C576.571 175.1 576.229 173.156 576.229 171.068C576.229 169.088 576.553 167.216 577.201 165.452C577.885 163.652 578.839 162.086 580.063 160.754C581.287 159.422 582.745 158.378 584.437 157.622C586.165 156.83 588.055 156.434 590.107 156.434C593.563 156.434 596.425 157.64 598.693 160.052V140.18ZM615.172 157.298H624.946V161.834C625.99 160.178 627.268 158.918 628.78 158.054C630.292 157.154 632.056 156.704 634.072 156.704C634.324 156.704 634.594 156.704 634.882 156.704C635.206 156.704 635.566 156.74 635.962 156.812V166.154C634.666 165.506 633.262 165.182 631.75 165.182C629.482 165.182 627.772 165.866 626.62 167.234C625.504 168.566 624.946 170.528 624.946 173.12V185H615.172V157.298ZM660.893 167.126C660.569 165.758 659.903 164.66 658.895 163.832C657.887 163.004 656.663 162.59 655.223 162.59C653.711 162.59 652.469 162.986 651.497 163.778C650.561 164.57 649.967 165.686 649.715 167.126H660.893ZM649.445 172.796C649.445 177.008 651.425 179.114 655.385 179.114C657.509 179.114 659.111 178.25 660.191 176.522H669.641C667.733 182.858 662.963 186.026 655.331 186.026C652.991 186.026 650.849 185.684 648.905 185C646.961 184.28 645.287 183.272 643.883 181.976C642.515 180.68 641.453 179.132 640.697 177.332C639.941 175.532 639.563 173.516 639.563 171.284C639.563 168.98 639.923 166.91 640.643 165.074C641.363 163.202 642.389 161.618 643.721 160.322C645.053 159.026 646.655 158.036 648.527 157.352C650.435 156.632 652.577 156.272 654.953 156.272C657.293 156.272 659.399 156.632 661.271 157.352C663.143 158.036 664.727 159.044 666.023 160.376C667.319 161.708 668.309 163.346 668.993 165.29C669.677 167.198 670.019 169.358 670.019 171.77V172.796H649.445ZM684.678 171.068C684.678 171.968 684.84 172.814 685.164 173.606C685.488 174.362 685.92 175.028 686.46 175.604C687.036 176.18 687.702 176.63 688.458 176.954C689.25 177.278 690.096 177.44 690.996 177.44C691.86 177.44 692.67 177.278 693.426 176.954C694.218 176.63 694.884 176.18 695.424 175.604C696 175.028 696.45 174.362 696.774 173.606C697.134 172.85 697.314 172.04 697.314 171.176C697.314 170.312 697.134 169.502 696.774 168.746C696.45 167.954 696 167.27 695.424 166.694C694.884 166.118 694.218 165.668 693.426 165.344C692.67 165.02 691.86 164.858 690.996 164.858C690.096 164.858 689.25 165.02 688.458 165.344C687.702 165.668 687.036 166.118 686.46 166.694C685.92 167.27 685.488 167.936 685.164 168.692C684.84 169.412 684.678 170.204 684.678 171.068ZM696.99 157.298H706.818V185H696.99V181.922C694.902 184.55 692.076 185.864 688.512 185.864C686.496 185.864 684.642 185.504 682.95 184.784C681.258 184.028 679.782 182.984 678.522 181.652C677.262 180.32 676.272 178.754 675.552 176.954C674.868 175.154 674.526 173.192 674.526 171.068C674.526 169.088 674.868 167.216 675.552 165.452C676.236 163.652 677.19 162.086 678.414 160.754C679.638 159.422 681.096 158.378 682.788 157.622C684.48 156.83 686.352 156.434 688.404 156.434C691.86 156.434 694.722 157.64 696.99 160.052V157.298ZM713.469 157.298H723.243V160.7C725.907 158.144 728.895 156.866 732.207 156.866C736.311 156.866 739.443 158.594 741.603 162.05C743.799 158.558 746.931 156.812 750.999 156.812C752.295 156.812 753.519 157.01 754.671 157.406C755.823 157.766 756.813 158.36 757.641 159.188C758.469 159.98 759.117 161.024 759.585 162.32C760.089 163.616 760.341 165.182 760.341 167.018V185H750.567V171.338C750.567 169.934 750.459 168.782 750.243 167.882C750.063 166.982 749.775 166.28 749.379 165.776C749.019 165.272 748.587 164.93 748.083 164.75C747.579 164.57 747.039 164.48 746.463 164.48C743.331 164.48 741.765 166.766 741.765 171.338V185H731.991V171.338C731.991 169.934 731.901 168.782 731.721 167.882C731.541 166.946 731.271 166.208 730.911 165.668C730.587 165.128 730.155 164.768 729.615 164.588C729.075 164.372 728.445 164.264 727.725 164.264C727.113 164.264 726.537 164.354 725.997 164.534C725.457 164.714 724.971 165.074 724.539 165.614C724.143 166.118 723.819 166.838 723.567 167.774C723.351 168.674 723.243 169.862 723.243 171.338V185H713.469V157.298ZM785.407 164.426C783.607 163.49 781.843 163.022 780.115 163.022C779.215 163.022 778.477 163.202 777.901 163.562C777.361 163.922 777.091 164.408 777.091 165.02C777.091 165.344 777.127 165.614 777.199 165.83C777.307 166.01 777.505 166.19 777.793 166.37C778.117 166.55 778.567 166.712 779.143 166.856C779.755 167 780.547 167.18 781.519 167.396C784.219 167.936 786.235 168.908 787.567 170.312C788.899 171.68 789.565 173.444 789.565 175.604C789.565 177.224 789.241 178.682 788.593 179.978C787.945 181.274 787.045 182.372 785.893 183.272C784.741 184.136 783.355 184.802 781.735 185.27C780.115 185.774 778.333 186.026 776.389 186.026C772.645 186.026 768.955 184.964 765.319 182.84L768.883 175.928C771.619 177.8 774.211 178.736 776.659 178.736C777.559 178.736 778.297 178.538 778.873 178.142C779.449 177.746 779.737 177.242 779.737 176.63C779.737 176.27 779.683 175.982 779.575 175.766C779.503 175.514 779.323 175.298 779.035 175.118C778.747 174.902 778.315 174.722 777.739 174.578C777.199 174.398 776.479 174.218 775.579 174.038C772.555 173.426 770.431 172.526 769.207 171.338C768.019 170.114 767.425 168.44 767.425 166.316C767.425 164.768 767.713 163.382 768.289 162.158C768.865 160.898 769.693 159.836 770.773 158.972C771.853 158.108 773.149 157.442 774.661 156.974C776.209 156.506 777.919 156.272 779.791 156.272C782.851 156.272 785.821 156.866 788.701 158.054L785.407 164.426Z" fill="white"/>
<path d="M10.908 157.298L17.55 171.878L24.462 157.298H30.618L37.53 172.31L44.496 157.298H55.35L40.878 185H34.344L27.432 169.826L20.844 185H14.202L0 157.298H10.908ZM77.6507 167.126C77.3267 165.758 76.6607 164.66 75.6527 163.832C74.6447 163.004 73.4207 162.59 71.9807 162.59C70.4687 162.59 69.2267 162.986 68.2547 163.778C67.3187 164.57 66.7247 165.686 66.4727 167.126H77.6507ZM66.2027 172.796C66.2027 177.008 68.1827 179.114 72.1427 179.114C74.2667 179.114 75.8687 178.25 76.9487 176.522H86.3987C84.4907 182.858 79.7207 186.026 72.0887 186.026C69.7487 186.026 67.6067 185.684 65.6627 185C63.7187 184.28 62.0447 183.272 60.6407 181.976C59.2727 180.68 58.2107 179.132 57.4547 177.332C56.6987 175.532 56.3207 173.516 56.3207 171.284C56.3207 168.98 56.6807 166.91 57.4007 165.074C58.1207 163.202 59.1467 161.618 60.4787 160.322C61.8107 159.026 63.4127 158.036 65.2847 157.352C67.1927 156.632 69.3347 156.272 71.7107 156.272C74.0507 156.272 76.1567 156.632 78.0287 157.352C79.9007 158.036 81.4847 159.044 82.7807 160.376C84.0767 161.708 85.0667 163.346 85.7507 165.29C86.4347 167.198 86.7767 169.358 86.7767 171.77V172.796H66.2027ZM114.45 171.23C114.45 170.366 114.288 169.556 113.964 168.8C113.64 168.008 113.19 167.324 112.614 166.748C112.038 166.172 111.372 165.722 110.616 165.398C109.86 165.038 109.032 164.858 108.132 164.858C107.268 164.858 106.458 165.02 105.702 165.344C104.946 165.668 104.28 166.118 103.704 166.694C103.164 167.27 102.714 167.954 102.354 168.746C102.03 169.502 101.868 170.312 101.868 171.176C101.868 172.04 102.03 172.85 102.354 173.606C102.678 174.362 103.128 175.028 103.704 175.604C104.28 176.144 104.946 176.594 105.702 176.954C106.494 177.278 107.322 177.44 108.186 177.44C109.05 177.44 109.86 177.278 110.616 176.954C111.372 176.63 112.02 176.18 112.56 175.604C113.136 175.028 113.586 174.362 113.91 173.606C114.27 172.85 114.45 172.058 114.45 171.23ZM102.138 140.18V160.052C104.442 157.64 107.322 156.434 110.778 156.434C112.83 156.434 114.702 156.83 116.394 157.622C118.122 158.378 119.58 159.422 120.768 160.754C121.992 162.05 122.946 163.598 123.63 165.398C124.314 167.162 124.656 169.052 124.656 171.068C124.656 173.12 124.296 175.046 123.576 176.846C122.892 178.646 121.92 180.212 120.66 181.544C119.4 182.876 117.906 183.938 116.178 184.73C114.486 185.486 112.65 185.864 110.67 185.864C107.07 185.864 104.226 184.55 102.138 181.922V185H92.3636V140.18H102.138ZM143.025 160.16C143.313 160.196 143.547 160.214 143.727 160.214C143.943 160.214 144.123 160.214 144.267 160.214C145.599 160.214 146.679 159.818 147.507 159.026C148.335 158.234 148.749 157.208 148.749 155.948C148.749 154.724 148.353 153.734 147.561 152.978C146.805 152.222 145.815 151.844 144.591 151.844C143.295 151.844 142.251 152.276 141.459 153.14C140.667 154.004 140.271 155.12 140.271 156.488H130.497C130.749 154.364 131.271 152.474 132.063 150.818C132.891 149.162 133.935 147.776 135.195 146.66C136.455 145.508 137.931 144.644 139.623 144.068C141.315 143.456 143.187 143.15 145.239 143.15C147.255 143.15 149.073 143.438 150.693 144.014C152.349 144.554 153.753 145.346 154.905 146.39C156.093 147.398 156.993 148.64 157.605 150.116C158.253 151.556 158.577 153.176 158.577 154.976C158.577 156.92 158.199 158.522 157.443 159.782C156.723 161.006 155.679 162.068 154.311 162.968C156.399 163.616 158.019 164.786 159.171 166.478C160.359 168.134 160.953 170.186 160.953 172.634C160.953 174.65 160.557 176.486 159.765 178.142C158.973 179.798 157.857 181.22 156.417 182.408C155.013 183.596 153.321 184.514 151.341 185.162C149.397 185.81 147.255 186.134 144.915 186.134C141.783 186.134 138.957 185.522 136.437 184.298C133.917 183.074 131.901 181.13 130.389 178.466C129.705 177.278 129.237 176.09 128.985 174.902C128.769 173.714 128.661 172.508 128.661 171.284H139.137C139.209 173.192 139.767 174.65 140.811 175.658C141.855 176.63 143.259 177.116 145.023 177.116C146.895 177.116 148.263 176.612 149.127 175.604C149.991 174.596 150.423 173.354 150.423 171.878C150.423 170.114 149.901 168.782 148.857 167.882C147.813 166.982 146.571 166.532 145.131 166.532C144.771 166.532 144.429 166.568 144.105 166.64C143.781 166.676 143.421 166.73 143.025 166.802V160.16Z" fill="#27FFB8"/>
</svg>
