<?xml version="1.0" encoding="UTF-8"?>
<svg width="317px" height="391px" viewBox="0 0 317 391" version="1.1" xmlns="http://www.w3.org/2000/svg" xmlns:xlink="http://www.w3.org/1999/xlink">
    <title> banner</title>
    <g id="页面-1" stroke="none" stroke-width="1" fill="none" fill-rule="evenodd">
        <g id="Please-Install-MetaMask-Wallet" transform="translate(-320.000000, -269.000000)" fill="#0127EE" fill-rule="nonzero">
            <g id="-banner" transform="translate(0.000000, -1.000000)">
                <g id="编组-2" transform="translate(320.000000, 270.000000)">
                    <path d="M287.911801,288.362925 C283.862754,216.585153 193.805218,183.952742 185.184124,180.603226 C184.829832,180.434058 184.829832,180.078806 185.015413,179.723555 L277.890411,86.2415928 L277.890411,76.1930431 C277.837888,74.561669 276.531204,73.251444 274.90424,73.1987783 L103.747682,73.1987783 L103.747682,16.9167502 L103.747682,16.9167502 L103.747682,0 L40.5994316,13.2288987 L40.5994316,22.7530291 L44.125476,22.7530291 C44.125476,22.7530291 59.6130778,22.7530291 59.6130778,38.2826058 L59.6130778,73.0296108 L10.6871026,73.0296108 C9.79590084,73.1211778 9.09131944,73.8276687 9,74.7212858 L9,96.7130612 L59.8324011,96.7130612 L59.8324011,216.568237 C59.8324011,254.140339 83.9242261,280.242885 126.152404,276.707284 C134.850697,275.842963 143.195829,272.813361 150.42981,267.893657 C153.597783,265.845065 155.50575,262.318514 155.491118,258.538694 L155.491118,246.696969 C141.774974,255.865847 130.184579,255.341428 130.184579,255.341428 C103.444003,255.341428 103.983876,221.304927 103.983876,221.304927 L103.983876,96.8145617 L227.142365,96.8145617 L138.485124,186.473338 C138.316414,198.315063 138.130832,207.467025 138.130832,207.636193 C138.116665,207.76196 138.153285,207.888182 138.232523,207.986703 C138.311761,208.085225 138.427026,208.147851 138.552608,208.160612 L138.653834,208.160612 C219.921566,221.91393 241.904513,274.660357 241.904513,290.003849 C241.904513,290.003849 250.694317,364.606718 176.293093,369.732493 C176.293093,369.732493 127.56957,371.847087 118.931605,352.274407 C118.62962,351.643717 118.893778,350.886936 119.522091,350.582732 L119.623317,350.582732 C127.892171,347.098969 133.229784,338.937048 133.120138,329.944297 C133.120138,315.480475 124.330333,303.672584 105.85656,303.672584 C90.9088308,303.672584 78.5929819,315.514309 78.5929819,329.944297 C78.5929819,329.944297 71.5577641,392.739274 176.040028,390.963015 C295.250697,388.713087 287.911801,288.362925 287.911801,288.362925 Z" id="路径"></path>
                </g>
            </g>
        </g>
    </g>
</svg>