<?xml version="1.0" encoding="UTF-8"?>
<svg width="42px" height="42px" viewBox="0 0 42 42" version="1.1" xmlns="http://www.w3.org/2000/svg" xmlns:xlink="http://www.w3.org/1999/xlink">
    <title>内容</title>
    <g id="页面-1" stroke="none" stroke-width="1" fill="none" fill-rule="evenodd">
        <g id="download-apps" transform="translate(-1328.000000, -1058.000000)" fill="#FFFFFF" fill-rule="nonzero">
            <g id="内容" transform="translate(320.000000, 1056.000000)">
                <g id="linux" transform="translate(1012.000000, 3.000000)">
                    <path d="M16.3775831,0 C16.1334178,0 15.8813761,0.0129959121 15.6230335,0.0341142217 C8.96440926,0.575068368 10.7302758,7.8430229 10.6294591,10.2651329 C10.5081641,12.0406972 10.1568811,13.4393804 8.97386082,15.172708 C7.57975566,16.8800437 5.62328266,19.640047 4.69545449,22.5170134 C4.2575322,23.8685865 4.04959787,25.2526494 4.24335486,26.5603613 C4.1709343,26.6201477 4.11138477,26.6948361 4.06850101,26.7796671 C3.65893339,27.2150296 3.36120924,27.7559837 3.02567883,28.1426116 C2.71220208,28.4658845 2.2616777,28.5763496 1.77019659,28.7924064 C1.2771402,29.0133367 0.73367546,29.2293934 0.409171898,29.898682 C0.267398477,30.2040856 0.194936514,30.5371054 0.201237563,30.8749986 C0.201237563,31.1982715 0.243769574,31.5264179 0.287876875,31.7457236 C0.379241946,32.3938939 0.470607054,32.9299746 0.349311994,33.321476 C-0.041352483,34.4261271 -0.0901855795,35.183138 0.183909707,35.733839 C0.458004957,36.2764177 1.02667386,36.4957234 1.66307888,36.7101557 C2.94061477,37.0350531 4.67182559,36.9294614 6.03442553,37.6832234 C7.49311635,38.4418588 8.97386082,38.7732541 10.1553059,38.4467323 C10.9838927,38.2599163 11.6833081,37.6945948 12.05822,36.9115921 C12.9828977,36.9067186 13.9957899,36.4746051 15.6183077,36.3690135 C16.7194145,36.2747932 18.0977671,36.8027515 19.6793282,36.6922864 C19.7187097,36.9115921 19.7785695,37.0155593 19.8589078,37.234865 L19.8636336,37.2397385 C20.4795603,38.5035893 21.616898,39.0786577 22.8314235,38.979564 C24.0459491,38.8820947 25.3392376,38.108839 26.3867855,36.857984 C27.3807746,35.6152515 29.0379482,35.0970402 30.1327539,34.4163802 C30.6809444,34.0931073 31.1235925,33.6544958 31.1550977,33.0306928 C31.1913286,32.380898 30.8416209,31.7116094 30.030362,30.7937743 L30.030362,30.6361991 L30.0256362,30.6313256 C29.757842,30.3064282 29.6318212,29.7622251 29.4931983,29.1270507 C29.3593012,28.4756315 29.206501,27.850204 28.7181704,27.4278374 L28.7134446,27.4278374 C28.6205042,27.3401151 28.5196876,27.3189968 28.4172957,27.2085316 C28.3292074,27.1451047 28.2253447,27.109026 28.1179963,27.1045645 C28.7969333,25.0284702 28.5338649,22.9621228 27.8454763,21.1037097 C27.0058627,18.8131832 25.5377203,16.8183132 24.4192857,15.4456218 C23.1653787,13.8130124 21.9366758,12.2665009 21.9603047,9.97272527 C22.0028367,6.4768294 22.3336414,0.00974691504 16.3775831,0 L16.3775831,0 Z M17.2108957,5.5313779 L17.231374,5.5313779 C17.5669044,5.5313779 17.855177,5.63209618 18.1513259,5.85302642 C18.4522006,6.07233214 18.6711617,6.39235609 18.8428651,6.71887795 C19.0082674,7.13962008 19.0917562,7.46451747 19.1043582,7.89500648 C19.1043582,7.86251673 19.1138098,7.83002699 19.1138098,7.79916177 L19.1138098,7.9681084 C19.1103418,7.9570515 19.1082251,7.94559158 19.1075088,7.93399417 L19.1012077,7.89500648 C19.0980349,8.289799 19.0176691,8.67987478 18.8649187,9.04189425 C18.7913587,9.24557314 18.6770352,9.43099655 18.5293883,9.5860974 C18.4847515,9.56010543 18.4384346,9.53730887 18.3907654,9.51786895 C18.2253631,9.44476703 18.0772887,9.41390177 17.9418163,9.30181219 C17.8300682,9.25578486 17.7146357,9.21990985 17.5968343,9.19459605 C17.6740221,9.0987513 17.825247,8.97853929 17.8835317,8.87294762 C17.9670205,8.6650133 18.012703,8.44408306 18.0221546,8.2199039 L18.0221546,8.18903863 C18.0257181,7.96841374 17.9932337,7.74874481 17.9260637,7.53924387 C17.855177,7.31993815 17.7669624,7.212722 17.6377911,6.9966652 C17.5054693,6.88944906 17.3747227,6.78223292 17.2171967,6.78223296 L17.1919925,6.78223296 C17.0454933,6.78223296 16.9147468,6.83096757 16.7792744,6.9966652 C16.6296758,7.14711787 16.5187035,7.33357165 16.4563461,7.53924387 C16.3726817,7.74565119 16.3246998,7.96556837 16.3145727,8.18903863 L16.3145727,8.2199039 C16.3177232,8.36448322 16.3271748,8.51068706 16.3460779,8.6536419 C16.0420527,8.54480128 15.6561139,8.43433618 15.389895,8.32549552 C15.3740614,8.2184348 15.3645921,8.11047562 15.3615403,8.00222262 L15.3615403,7.96973288 C15.3489299,7.54035728 15.4296662,7.11351467 15.5978294,6.72050243 C15.7270007,6.36473979 15.9632897,6.06096075 16.2751912,5.8546509 C16.5446688,5.64475694 16.8731916,5.53125686 17.2108957,5.5313779 L17.2108957,5.5313779 Z M12.5449754,5.62722275 L12.6016847,5.62722275 C12.8253717,5.62722275 13.027005,5.7051981 13.2302135,5.84652847 C13.4602015,6.05608727 13.6460822,6.31438069 13.7721029,6.6019149 C13.9138764,6.9251878 13.9942146,7.25333414 14.0131177,7.68544767 L14.0131177,7.69194562 C14.0241445,7.90962687 14.0225693,8.01846749 14.0099672,8.12405915 L14.0099672,8.25401812 C13.9627094,8.26538951 13.9217527,8.2832589 13.8792206,8.29300578 C13.6397811,8.38235257 13.4475993,8.5123115 13.2601434,8.61790316 C13.2790466,8.47332384 13.2806218,8.32712 13.2648692,8.18416516 L13.2648692,8.15979785 C13.2459661,7.94374109 13.203434,7.83652495 13.1356979,7.61884371 C13.0865795,7.45327987 12.9964508,7.30378359 12.8742047,7.1851057 C12.7957736,7.11154897 12.6917219,7.07402214 12.5859321,7.08113856 L12.5528517,7.08113856 C12.4410082,7.09088547 12.3480679,7.14774252 12.2598533,7.2955708 C12.1593655,7.42134474 12.0940138,7.57298099 12.0708221,7.73418228 C12.0280559,7.90980574 12.0157895,8.0918522 12.0345911,8.27188747 L12.0345911,8.2946303 C12.0534942,8.51393602 12.0928757,8.62115216 12.1621872,8.83720892 C12.2330739,9.05489017 12.3149874,9.16210631 12.4221051,9.27257141 C12.4394329,9.2871918 12.4551855,9.30181219 12.4756639,9.31155911 C12.3653957,9.40415486 12.2913585,9.4252732 12.1984182,9.53248931 C12.139439,9.58617843 12.0685778,9.62411078 11.9920591,9.64295445 C11.8283177,9.43961117 11.6832929,9.22098619 11.5588626,8.98991068 C11.4099325,8.64854018 11.3269957,8.2804916 11.3146972,7.90637791 C11.2886101,7.53966638 11.3313996,7.17120914 11.4407181,6.82122062 C11.5274855,6.50203757 11.6794891,6.20570101 11.8865167,5.95212013 C12.0881499,5.73606337 12.2960843,5.62722275 12.5449754,5.62722275 L12.5449754,5.62722275 Z M14.7046569,8.39859744 C15.226068,8.39859744 15.8577473,8.5041891 16.6185979,9.04676773 C17.0801491,9.37166511 17.4424589,9.48375473 18.2773467,9.8070276 L18.2820725,9.8070276 C18.6837638,10.0279578 18.9200528,10.2391411 19.0350468,10.4551979 L19.0350468,10.2423901 C19.1494036,10.4813452 19.158585,10.7594771 19.060251,11.005899 C18.866494,11.5111144 18.2474168,12.0520686 17.3841743,12.3753414 L17.3841743,12.3785904 C16.9620046,12.5978962 16.594969,12.9195446 16.1633477,13.1339769 C15.7285759,13.3532826 15.2370948,13.6083271 14.5691845,13.5677149 C14.329252,13.5805264 14.089268,13.5435143 13.863468,13.4588743 C13.6889948,13.3609814 13.519679,13.2536145 13.3562343,13.1372258 C13.0490586,12.9179201 12.7844149,12.5978962 12.3921751,12.3818394 L12.3921751,12.373717 L12.3842988,12.373717 C11.7541948,11.9740932 11.4139387,11.5419797 11.3036704,11.2187068 C11.1949775,10.7833443 11.2957941,10.4568224 11.6076956,10.2440146 C11.9605539,10.0247089 12.2062945,9.80377864 12.3685462,9.69818698 C12.5323733,9.57797496 12.5938084,9.53248931 12.645792,9.48537921 L12.6489425,9.48537921 L12.6489425,9.48050573 C12.9151615,9.15235939 13.3357559,8.71862135 13.9705857,8.5041891 C14.1895469,8.44570758 14.4337122,8.39859744 14.7046569,8.39859744 L14.7046569,8.39859744 Z M19.1138098,11.879873 C19.6793282,14.1817709 20.9993961,17.524965 21.8484613,19.146203 C22.2989856,20.013679 23.1953086,21.8412268 23.5843978,24.0586515 C23.8301384,24.050529 24.1026584,24.0878922 24.3925062,24.1626186 C25.4101242,21.448101 23.5324142,18.5305225 22.6770481,17.7199035 C22.3289156,17.3933816 22.3115877,17.1757004 22.4832911,17.1757004 C23.4111192,18.0431764 24.6335211,19.7293938 25.0761691,21.6544108 C25.2793776,22.5235113 25.3266355,23.4478444 25.1092496,24.367304 C25.214792,24.4127896 25.3219097,24.4663977 25.4321779,24.4761446 C27.0578463,25.3436206 27.6580203,25.9999134 27.3697478,26.972981 L27.3697478,26.9031281 C27.2736569,26.8982546 27.1807166,26.9031281 27.0846257,26.9031281 L27.0609968,26.9031281 C27.2988611,26.1444927 26.7742994,25.5629264 25.3833448,24.9147561 C23.9419819,24.2649613 22.7904667,24.3689285 22.5935593,25.6701425 C22.5825324,25.7399954 22.5746561,25.7773586 22.5667798,25.8894483 C22.4596622,25.9268114 22.3478187,25.9755461 22.2375505,25.9934154 C21.5601887,26.4287779 21.1947283,27.0801972 20.9883693,27.9216814 C20.7835855,28.7875329 20.7205751,29.7995883 20.665441,30.9578475 L20.665441,30.962721 C20.6323605,31.5052996 20.3960715,32.324041 20.162933,33.1574028 C17.8000429,34.8988528 14.523502,35.6558637 11.736867,33.6999814 C11.5620911,33.3849409 11.3493118,33.0940068 11.1036124,32.8341299 C10.9863377,32.6319473 10.8403138,32.4490523 10.6704159,32.2915512 C10.9571132,32.2915512 11.2028538,32.2444411 11.4029118,32.1827106 C11.6294342,32.0743485 11.8066346,31.8799713 11.8975435,31.640132 C12.0676716,31.206394 11.8975435,30.5078646 11.3540788,29.7508537 C10.810614,28.9922183 9.88751164,28.1344892 8.53751378,27.2800091 C7.54509995,26.6318388 6.98430736,25.8667054 6.72596471,25.0122253 C6.46604681,24.1447493 6.50070252,23.249657 6.7023358,22.3399443 C7.08827452,20.6017433 8.07753785,18.9122769 8.70921712,17.8514869 C8.87776995,17.7458952 8.76750173,18.0707926 8.06651104,19.4337372 C7.44270807,20.6537269 6.26913932,23.490081 7.87432931,25.6945098 C7.93493839,24.0861039 8.28035488,22.5027003 8.89352255,21.0224854 C9.78196922,18.9463911 11.6392008,15.3302832 11.7857,12.4646882 C11.8613125,12.5231698 12.1275314,12.683994 12.2409502,12.7928346 C12.5843569,13.0088914 12.839549,13.3337888 13.1703536,13.548221 C13.5027335,13.8747429 13.9217527,14.0924241 14.5502814,14.0924242 C14.6117166,14.0972976 14.6684259,14.1021711 14.7251353,14.1021711 C15.3725671,14.1021711 15.8734998,13.8844898 16.2940943,13.6668086 C16.7509197,13.4491273 17.1148048,13.12423 17.4597867,13.0170138 L17.467663,13.0170138 C18.2033095,12.7977081 18.7845804,12.36397 19.1138098,11.879873 L19.1138098,11.879873 Z M22.5573283,26.4320269 C22.6156129,27.4083435 23.0976425,28.4545131 23.9467077,28.6689454 C24.8729606,28.8866266 26.2056306,28.1279913 26.7679984,27.4262129 L27.1003783,27.4115925 C27.5965852,27.3985966 28.0093033,27.4278374 28.4346236,27.8453305 L28.4393493,27.850204 C28.7670034,28.1734769 28.9198037,28.7128065 29.055276,29.2732545 C29.1891731,29.9246738 29.2978661,30.5403543 29.6995574,31.0049576 C30.4651337,31.8610622 30.7156001,32.4767428 30.7014228,32.8568727 L30.7061485,32.8471258 L30.7061485,32.8763666 L30.7014228,32.8568727 C30.6777939,33.2824883 30.4099997,33.5001695 29.9169432,33.8234424 C28.9245294,34.4748617 27.1665392,34.9800771 26.0465293,36.3738869 C25.0730186,37.5711338 23.8868477,38.2241775 22.8392998,38.3086508 C21.7933272,38.3947486 20.8907031,37.9837535 20.3598405,36.8498616 L20.3519642,36.8449881 C20.0211596,36.1935689 20.162933,35.179889 20.4401788,34.0996052 C20.7174245,33.0144479 21.1143901,31.9146703 21.1695242,31.016329 C21.2278088,29.8564454 21.289244,28.8476389 21.4766999,28.0695097 C21.6657311,27.3141233 21.96188,26.7747936 22.4864416,26.4710146 L22.5573283,26.4352759 L22.5573283,26.4320269 Z M5.52089078,26.5116267 L5.53664338,26.5116267 C5.62013215,26.5116267 5.70204571,26.5197492 5.78395919,26.5343696 C6.37625695,26.6237163 6.89609279,27.0753237 7.39545023,27.7559837 L8.82893689,30.45913 L8.83366268,30.4640035 C9.21645086,31.329855 10.0214088,32.1924576 10.7066469,33.1249131 C11.3903098,34.0963563 11.9195971,34.9622078 11.8550114,35.6753575 L11.8550114,35.6851045 C11.7652216,36.8937227 11.1004619,37.5500155 10.0828439,37.7871905 C9.06680118,38.0064963 7.68844863,37.7904395 6.31009607,37.0334286 C4.78524434,36.1627036 2.97369527,36.2715442 1.8095781,36.0554875 C1.22830714,35.9482713 0.847094219,35.7289656 0.670665051,35.4040682 C0.495811173,35.0807953 0.492660668,34.4277516 0.864422037,33.4059493 L0.864422037,33.4010758 L0.86757258,33.3962024 C1.05187801,32.8536237 0.914830386,32.1729637 0.825040531,31.5784015 C0.738401219,30.9269823 0.694293955,30.4266402 0.892776736,30.0513838 C1.14481834,29.5088051 1.5165797,29.4032135 1.97813089,29.1855322 C2.44283262,28.9662265 2.98787258,28.8573859 3.42106911,28.4236479 L3.42421965,28.4236479 L3.42421965,28.4187744 C3.82748622,27.9834119 4.12521038,27.4424578 4.47649335,27.0574544 C4.77579275,26.7309325 5.07509216,26.5116267 5.52089078,26.5116267 L5.52089078,26.5116267 Z M16.7981775,11.7710323 C16.1129394,12.0975542 15.3095567,12.6401328 14.4541906,12.6401328 C13.6003996,12.6401328 12.9261883,12.2063948 12.4394329,11.8831219 C12.1952676,11.6654407 11.9983601,11.4477594 11.8502857,11.3389188 C11.591943,11.1212376 11.6234482,10.7963402 11.7337164,10.7963401 C11.9054198,10.8223319 11.936925,11.0156459 12.0471932,11.122862 C12.1984182,11.2300782 12.3858741,11.4461349 12.6158621,11.6638162 C13.0742628,11.9887136 13.6870389,12.4224516 14.4526153,12.4224516 C15.2166164,12.4224516 16.1113642,11.9887136 16.6548289,11.6654407 C16.9620046,11.4461349 17.3558196,11.122862 17.6755974,10.9068053 C17.9213379,10.6842506 17.9103111,10.4714428 18.1150949,10.4714428 C18.3183035,10.4974345 18.1686538,10.689124 17.8835317,11.0123969 C17.5341209,11.2848954 17.1713304,11.5386516 16.7966022,11.7726568 L16.7966022,11.7710323 L16.7981775,11.7710323 Z M15.0937461,9.19784501 L15.0937461,9.16210631 C15.0842946,9.13124104 15.1142245,9.09387786 15.1394287,9.08088195 C15.2559979,9.01102903 15.4229755,9.03702081 15.5489963,9.08737991 C15.6482377,9.08737991 15.8010379,9.19622053 15.7852853,9.30668563 C15.7758338,9.3862855 15.6513882,9.41390177 15.5726252,9.41390177 C15.4859859,9.41390177 15.4277013,9.34404885 15.3505135,9.30343667 C15.2686,9.27419589 15.1205255,9.29044076 15.0937461,9.19784501 L15.0937461,9.19784501 Z M14.2257778,9.19784501 C14.1942726,9.29206524 14.0477734,9.27744488 13.9642847,9.30506115 C13.8902475,9.34567333 13.8288123,9.41552625 13.7453235,9.41552625 C13.6649853,9.41552625 13.5389645,9.38466099 13.5295129,9.30506115 C13.5153355,9.19784501 13.6681358,9.08900439 13.7658019,9.08900439 C13.893398,9.03864529 14.0556497,9.01265351 14.1737943,9.08088195 C14.2037242,9.09550234 14.2305036,9.12961656 14.2210521,9.16210631 L14.2210521,9.19622053 L14.2257778,9.19622053 L14.2257778,9.19784501 Z" id="形状"></path>
                </g>
            </g>
        </g>
    </g>
</svg>