<?xml version="1.0" encoding="UTF-8"?>
<svg width="42px" height="42px" viewBox="0 0 42 42" version="1.1" xmlns="http://www.w3.org/2000/svg" xmlns:xlink="http://www.w3.org/1999/xlink">
    <title>macos</title>
    <defs>
        <linearGradient x1="27.9426192%" y1="18.3907778%" x2="66.2189979%" y2="82.7106925%" id="linearGradient-1">
            <stop stop-color="#A16835" offset="0%"></stop>
            <stop stop-color="#F6A85E" offset="100%"></stop>
        </linearGradient>
    </defs>
    <g id="页面-1" stroke="none" stroke-width="1" fill="none" fill-rule="evenodd">
        <g id="download-apps-macOS" transform="translate(-891.000000, -1058.000000)" fill="url(#linearGradient-1)" fill-rule="nonzero">
            <g id="编组-4" transform="translate(320.000000, 1057.000000)">
                <g id="macos" transform="translate(571.000000, 1.000000)">
                    <g transform="translate(3.000000, 1.000000)" id="形状">
                        <path fill="#27FFB8" d="M32.5,28.5994123 C32.4410321,28.7554801 31.6744489,31.42814 29.787475,34.1593254 C28.1363728,36.5393583 26.4459587,38.9193913 23.7727456,38.9584082 C21.1388446,38.9974251 20.2936375,37.3977309 17.2862728,37.3977309 C14.2789081,37.3977309 13.3354212,38.9193913 10.8391119,38.9974251 C8.26417879,39.0949675 6.27892499,36.4027991 4.62782281,34.0422746 C1.26665053,29.2431917 -1.3279386,20.3668393 2.15116955,14.4362654 C3.86123966,11.4709785 6.94722825,9.5786572 10.2887446,9.5201318 C12.8047098,9.48111487 15.2223951,11.2173684 16.7555614,11.2173684 C18.3280397,11.2173684 21.2371245,9.110454 24.3034571,9.42258947 C25.5810956,9.48111487 29.1781397,9.94931807 31.4778891,13.2852659 C31.3009853,13.4023167 27.1928859,15.8213666 27.2321978,20.7179917 C27.2715098,26.6290572 32.4410321,28.5799039 32.5,28.5994123 M22.2788913,6.26221784 C23.6548098,4.5844897 24.5786408,2.28249062 24.323113,0 C22.3575152,0.0780338672 19.9398299,1.30706728 18.5245995,2.96528695 C17.2666168,4.4089135 16.1462261,6.74992951 16.4607217,9.01291166 C18.6425353,9.12996246 20.9029728,7.86191212 22.2788913,6.26221784"></path>
                    </g>
                </g>
            </g>
        </g>
    </g>
</svg>