<?xml version="1.0" encoding="UTF-8"?>
<svg width="42px" height="42px" viewBox="0 0 42 42" version="1.1" xmlns="http://www.w3.org/2000/svg" xmlns:xlink="http://www.w3.org/1999/xlink">
    <title>macos</title>
    <g id="页面-1" stroke="none" stroke-width="1" fill="none" fill-rule="evenodd">
        <g id="download-apps" transform="translate(-892.000000, -1057.000000)" fill="#FFFFFF" fill-rule="nonzero">
            <g id="内容" transform="translate(320.000000, 1056.000000)">
                <g id="macos" transform="translate(572.000000, 1.000000)">
                    <g transform="translate(3.000000, 2.000000)" id="形状">
                        <path d="M30.1263828,27.121 C30.0708828,27.269 29.3493828,29.8035 27.5733828,32.3935 C26.0193828,34.6505 24.4283828,36.9075 21.9123828,36.9445 C19.4333828,36.9815 18.6378828,35.4645 15.8073828,35.4645 C12.9768828,35.4645 12.0888828,36.9075 9.73938281,36.9815 C7.31588281,37.074 5.44738281,34.521 3.89338281,32.2825 C0.729882813,27.7315 -1.71211719,19.314 1.56238281,13.69 C3.17188281,10.878 6.07638281,9.0835 9.22138281,9.028 C11.5893828,8.991 13.8648828,10.6375 15.3078828,10.6375 C16.7878828,10.6375 19.5258828,8.6395 22.4118828,8.9355 C23.6143828,8.991 26.9998828,9.435 29.1643828,12.5985 C28.9978828,12.7095 25.1313828,15.0035 25.1683828,19.647 C25.2053828,25.2525 30.0708828,27.1025 30.1263828,27.121 M20.5063828,5.9385 C21.8013828,4.3475 22.6708828,2.1645 22.4303828,0 C20.5803828,0.074 18.3048828,1.2395 16.9728828,2.812 C15.7888828,4.181 14.7343828,6.401 15.0303828,8.547 C17.0838828,8.658 19.2113828,7.4555 20.5063828,5.9385"></path>
                    </g>
                </g>
            </g>
        </g>
    </g>
</svg>