<?xml version="1.0" encoding="UTF-8"?>
<svg width="42px" height="42px" viewBox="0 0 42 42" version="1.1" xmlns="http://www.w3.org/2000/svg" xmlns:xlink="http://www.w3.org/1999/xlink">
    <title>macos备份</title>
    <defs>
        <linearGradient x1="16.7243767%" y1="0%" x2="69.3481115%" y2="88.0294695%" id="linearGradient-1">
            <stop stop-color="#A16835" offset="0%"></stop>
            <stop stop-color="#F6A85E" offset="100%"></stop>
        </linearGradient>
    </defs>
    <g id="页面-1" stroke="none" stroke-width="1" fill="none" fill-rule="evenodd">
        <g id="download-apps-linux" transform="translate(-1325.000000, -1057.000000)" fill="url(#linearGradient-1)" fill-rule="nonzero">
            <g id="内容" transform="translate(319.011121, 1057.000000)">
                <g id="编组-4" transform="translate(0.988879, 0.000000)">
                    <g id="macos备份" transform="translate(1005.000000, 0.000000)">
                        <path fill="#27FFB8" d="M21.2896019,2 C21.0465874,2 20.7957337,2.01266577 20.5386086,2.03324761 C13.9113671,2.5604598 15.6689109,9.64378516 15.5685694,12.0043659 C15.447846,13.7348252 15.0982187,15.0979774 13.9207741,16.7872729 C12.5332394,18.4512369 10.5859875,21.1411273 9.66253224,23.9450096 C9.22667392,25.2622485 9.0197196,26.6111517 9.21256339,27.8856436 C9.14048416,27.9439112 9.08121529,28.0167023 9.03853365,28.0993783 C8.63089636,28.5236812 8.3345754,29.0508934 8.00062638,29.4276997 C7.68862707,29.7427605 7.24022605,29.8504194 6.75106134,30.0609876 C6.26032877,30.2763056 5.71942542,30.4868738 5.39645127,31.1391603 C5.25534604,31.4368057 5.1832256,31.7613657 5.18949695,32.0906754 C5.18949695,32.4057362 5.2318285,32.7255465 5.27572792,32.9392812 C5.36666238,33.5709859 5.45759688,34.0934484 5.33687349,34.4750044 C4.94805025,35.5515939 4.89944731,36.2893743 5.17225076,36.8260858 C5.44505418,37.3548812 6.01104289,37.5686159 6.64444849,37.7776009 C7.91596324,38.0942449 9.6390147,37.9913356 10.9951926,38.7259496 C12.4470085,39.4653132 13.9207741,39.7882901 15.0966509,39.4700629 C15.9213325,39.2879926 16.6174515,38.7370321 16.9905964,37.9739202 C17.910916,37.9691705 18.9190343,37.548034 20.5339051,37.4451248 C21.6298223,37.353298 23.0016786,37.8678444 24.5757856,37.7601855 C24.6149815,37.9739202 24.6745592,38.0752462 24.7545189,38.2889809 L24.7592224,38.2937306 C25.3722461,39.5254756 26.5042235,40.0859354 27.7130249,39.989359 C28.9218262,39.8943658 30.2090193,39.1407532 31.2516301,37.9216739 C32.2409344,36.7105108 33.8902976,36.2054637 34.9799434,35.5420946 C35.5255502,35.2270338 35.9661121,34.7995645 35.9974688,34.1916081 C36.033529,33.5583202 35.6854695,32.9060336 34.8780341,32.0115144 L34.8780341,31.8579421 L34.8733306,31.8531924 C34.6067985,31.5365485 34.4813717,31.0061698 34.3434021,30.3871309 C34.2101361,29.7522598 34.058056,29.1427201 33.572027,28.731083 L33.5673234,28.731083 C33.4748211,28.6455891 33.3744796,28.6250073 33.2725703,28.5173483 C33.1848972,28.4555326 33.081524,28.4203705 32.9746815,28.4160223 C33.6504187,26.3926674 33.3885902,24.3788118 32.703446,22.5676083 C31.8677895,20.3352685 30.4065667,18.3910745 29.2934033,17.0532538 C28.045406,15.4621179 26.8224942,13.9548927 26.8460117,11.7193863 C26.8883433,8.31229732 27.2175888,2.00949931 21.2896019,2 L21.2896019,2 Z M22.118987,7.3908633 L22.1393689,7.3908633 C22.4733179,7.3908633 22.7602318,7.48902301 23.0549849,7.70434092 C23.3544416,7.91807558 23.5723707,8.2299699 23.7432648,8.54819707 C23.9078876,8.95825101 23.9909829,9.27489497 24.0035255,9.69444818 C24.0035255,9.66278378 24.0129326,9.63111938 24.0129326,9.60103823 L24.0129326,9.76569308 C24.0094809,9.75491707 24.0073742,9.74374826 24.0066612,9.73244547 L24.0003899,9.69444818 C23.997232,10.0792117 23.917245,10.4593783 23.7652145,10.8122014 C23.6920012,11.0107062 23.5782166,11.1914192 23.4312655,11.34258 C23.386839,11.3172483 23.3407405,11.2950309 23.293296,11.2760848 C23.1286732,11.2048399 22.9812967,11.1747587 22.8464628,11.0655166 C22.7352414,11.0206585 22.6203529,10.9856948 22.5031068,10.961024 C22.5799307,10.8676141 22.7304429,10.7504558 22.7884529,10.6475465 C22.8715482,10.4448944 22.9170154,10.2295765 22.9264224,10.0110922 L22.9264224,9.98101099 C22.9299691,9.76599067 22.8976379,9.55190203 22.8307844,9.34772308 C22.7602318,9.13398842 22.672433,9.02949591 22.5438705,8.81892764 C22.4121723,8.71443513 22.2820419,8.60994262 22.1252584,8.60994265 L22.100173,8.60994265 C21.9543643,8.60994265 21.8242339,8.65743925 21.6894,8.81892764 C21.5405065,8.96555833 21.4300572,9.14727559 21.3679937,9.34772308 C21.2847237,9.54888699 21.2369679,9.76321758 21.2268885,9.98101099 L21.2268885,10.0110922 C21.2300241,10.1519987 21.2394312,10.2944885 21.2582452,10.4338119 C20.9556529,10.3277361 20.5715331,10.2200772 20.3065689,10.1140014 C20.2908099,10.0096604 20.2813853,9.90444372 20.2783479,9.79894069 L20.2783479,9.76727629 C20.2657969,9.3488082 20.3461526,8.93280875 20.5135233,8.54978028 C20.6420858,8.20305514 20.8772611,7.90699306 21.1876926,7.70592414 C21.4559001,7.50136214 21.7828746,7.39074533 22.118987,7.3908633 L22.118987,7.3908633 Z M17.4750576,7.48427338 L17.5314997,7.48427338 C17.7541324,7.48427338 17.9548154,7.56026791 18.1570662,7.69800804 C18.3859702,7.90224338 18.5709748,8.15397533 18.6964017,8.43420525 C18.8375069,8.74926599 18.9174665,9.06907637 18.9362805,9.49021284 L18.9362805,9.49654572 C18.9472554,9.70869717 18.9456875,9.81477289 18.9331449,9.91768219 L18.9331449,10.0443398 C18.8861098,10.0554223 18.8453461,10.0728378 18.8030145,10.082337 C18.5647034,10.1694141 18.3734275,10.2960717 18.1868551,10.398981 C18.2056691,10.2580744 18.2072369,10.1155846 18.1915585,9.97626131 L18.1915585,9.95251302 C18.1727445,9.74194478 18.1304129,9.63745227 18.062996,9.42530083 C18.0141092,9.26394284 17.9244052,9.11824424 17.8027353,9.00258115 C17.7246738,8.93089299 17.6211125,8.89431946 17.5158214,8.9012551 L17.4828968,8.9012551 C17.3715805,8.91075441 17.2790782,8.96616711 17.1912794,9.11024008 C17.0912652,9.23281896 17.0262215,9.38060317 17.0031391,9.53770944 C16.9605745,9.7088715 16.9483659,9.8862934 16.9670789,10.0617552 L16.9670789,10.0839203 C16.9858929,10.2976549 17.0250888,10.4021475 17.0940735,10.6127157 C17.1646262,10.8248671 17.2461536,10.9293596 17.3527665,11.0370186 C17.3700126,11.0512676 17.385691,11.0655166 17.4060728,11.0750159 C17.2963243,11.1652594 17.2226361,11.1858413 17.1301338,11.2903337 C17.0714326,11.342659 17.0009054,11.3796277 16.9247473,11.3979927 C16.7617777,11.199815 16.6174363,10.9867438 16.4935925,10.7615383 C16.3453643,10.4288397 16.2628184,10.0701408 16.2505779,9.70553074 C16.2246137,9.34813486 16.2672015,8.98903761 16.3760048,8.6479399 C16.4623633,8.33686512 16.6136505,8.04805645 16.8197023,7.80091733 C17.0203853,7.5903491 17.2273396,7.48427338 17.4750576,7.48427338 L17.4750576,7.48427338 Z M19.6245604,10.1852463 C20.143514,10.1852463 20.7722162,10.2881556 21.5294808,10.816951 C21.9888566,11.133595 22.3494589,11.2428372 23.1804118,11.5578979 L23.1851153,11.5578979 C23.5849134,11.7732158 23.8200888,11.9790343 23.9345408,12.1896026 L23.9345408,11.9822008 C24.0483586,12.2150857 24.0574967,12.4861521 23.9596262,12.7263141 C23.7667824,13.2186955 23.1506229,13.7459077 22.291449,14.0609684 L22.291449,14.0641348 C21.871269,14.2778695 21.5059633,14.591347 21.0763763,14.8003321 C20.6436536,15.0140667 20.1544889,15.2626322 19.4897265,15.2230517 C19.2509248,15.2355378 19.0120719,15.199466 18.7873361,15.116976 C18.6136852,15.02157 18.4451674,14.9169305 18.282493,14.8034985 C17.9767651,14.5897638 17.7133687,14.2778695 17.3229776,14.0673013 L17.3229776,14.0593852 L17.3151384,14.0593852 C16.6880041,13.6699131 16.3493516,13.2487766 16.2396031,12.9337159 C16.1314224,12.509413 16.2317639,12.1911858 16.5421954,11.983784 C16.8933906,11.7700494 17.137973,11.5547315 17.29946,11.4518222 C17.4625149,11.3346639 17.5236605,11.2903337 17.5753991,11.2444204 L17.5785348,11.2444204 L17.5785348,11.2396707 C17.843499,10.9198603 18.2621112,10.4971406 18.893949,10.2881556 C19.1118781,10.2311597 19.3548927,10.1852463 19.6245604,10.1852463 L19.6245604,10.1852463 Z M24.0129326,13.5780864 C24.5757856,15.8215088 25.8896319,19.0797752 26.7346954,20.6598285 C27.1830964,21.5052679 28.0751949,23.2863901 28.4624503,25.4474851 C28.7070327,25.439569 28.9782683,25.4759831 29.2667501,25.5488112 C30.2795719,22.903251 28.4107117,20.0597882 27.559377,19.2697615 C27.2128853,18.9515343 27.1956391,18.7393829 27.3665332,18.7393829 C28.2899884,19.5848223 29.506629,21.2282044 29.9471908,23.1043199 C30.1494416,23.9513425 30.1964766,24.8521945 29.9801153,25.7482969 C30.0851603,25.792627 30.1917731,25.8448733 30.3015216,25.8543727 C31.9195281,26.699812 32.5168735,27.3394328 32.2299596,28.2877815 L32.2299596,28.219703 C32.1343216,28.2149533 32.0418193,28.219703 31.9461813,28.219703 L31.9226638,28.219703 C32.159407,27.4803394 31.6373176,26.9135467 30.2529187,26.281842 C28.818349,25.6485541 27.6722611,25.7498801 27.4762817,27.0180392 C27.4653068,27.0861176 27.4574677,27.1225317 27.4496285,27.2317739 C27.3430157,27.2681879 27.2316993,27.3156845 27.1219508,27.3330999 C26.4477814,27.7574028 26.0840436,28.392274 25.8786571,29.2123818 C25.6748384,30.056238 25.612125,31.0425839 25.5572508,32.1714196 L25.5572508,32.1761693 C25.5243262,32.7049647 25.2891509,33.5029075 25.0571112,34.3150992 C22.7053576,36.0123108 19.4442593,36.7500913 16.6707579,34.8438946 C16.4968058,34.5368571 16.2850293,34.2533137 16.0404879,34.0000385 C15.923766,33.802992 15.7784303,33.6247431 15.6093331,33.4712431 C15.8946792,33.4712431 16.1392616,33.4253297 16.3383767,33.3651673 C16.5638315,33.259558 16.7401968,33.0701185 16.8306772,32.8363719 C17.0000034,32.4136523 16.8306772,31.7328677 16.2897738,30.9950873 C15.7488705,30.2557237 14.8301188,29.4197836 13.4864836,28.58701 C12.4987471,27.9553053 11.9405975,27.2096088 11.6834725,26.3768352 C11.4247796,25.5313958 11.459272,24.6590417 11.6599549,23.7724386 C12.0440747,22.0783934 13.0286755,20.4318449 13.6573777,19.3980023 C13.8251361,19.295093 13.7153876,19.611737 13.0177007,20.9400584 C12.3968378,22.1290565 11.2288002,24.8933582 12.8264247,27.0417875 C12.8867482,25.4742402 13.2305367,23.93106 13.8408144,22.4884474 C14.7250738,20.4650924 16.5735521,16.9408452 16.7193608,14.1480455 C16.7946169,14.2050414 17.0595812,14.3617801 17.1724653,14.4678559 C17.5142535,14.6784241 17.7682429,14.9950681 18.0974884,15.2040531 C18.4283018,15.5222802 18.8453461,15.7344317 19.4709125,15.7344317 C19.5320581,15.7391814 19.5885002,15.743931 19.6449423,15.743931 C20.2893227,15.743931 20.7878945,15.5317796 21.2065066,15.3196281 C21.661179,15.1074767 22.0233491,14.7908327 22.3667051,14.6863402 L22.3745442,14.6863402 C23.1067235,14.4726055 23.6852549,14.0498858 24.0129326,13.5780864 L24.0129326,13.5780864 Z M27.4402215,27.7605693 C27.4982314,28.7120844 27.9779891,29.7316779 28.8230526,29.9406629 C29.74494,30.1528144 31.071329,29.4134507 31.6310463,28.7294998 L31.9618597,28.7152508 C32.4557279,28.702585 32.8665009,28.731083 33.2898165,29.1379705 L33.29452,29.1427201 C33.6206299,29.4577809 33.7727099,29.9834099 33.9075438,30.5296207 C34.0408099,31.1644918 34.1489905,31.7645321 34.5487886,32.217333 C35.3107567,33.0516898 35.5600426,33.6517301 35.5459321,34.0222035 L35.5506356,34.0127042 L35.5506356,34.0412022 L35.5459321,34.0222035 C35.5224146,34.4370071 35.2558825,34.6491586 34.7651499,34.9642193 C33.7774134,35.5990905 32.0277087,36.0914718 30.9129776,37.4498744 C29.9440551,38.6167074 28.7634748,39.2531618 27.7208641,39.3354892 C26.6798211,39.4193998 25.7814513,39.0188452 25.2530906,37.9137578 L25.2452514,37.9090082 C24.9160059,37.274137 25.0571112,36.2862079 25.3330502,35.2333667 C25.6089893,34.1757759 26.0040839,33.1039361 26.0589582,32.2284155 C26.1169681,31.0979966 26.1781137,30.1148171 26.3646862,29.3564548 C26.5528264,28.6202576 26.8475796,28.0946286 27.3696688,27.7985665 L27.4402215,27.7637357 L27.4402215,27.7605693 Z M10.4840782,27.838147 L10.4997565,27.838147 C10.5828518,27.838147 10.6643793,27.8460631 10.7459067,27.8603121 C11.3354129,27.9473892 11.8527987,28.3875243 12.3498027,29.0508934 L13.7765332,31.6853711 L13.7812367,31.6901208 C14.1622208,32.533977 14.9633848,33.3746667 15.6453934,34.2834348 C16.3258341,35.2302003 16.8526268,36.0740564 16.7883456,36.7690899 L16.7883456,36.7785892 C16.6989789,37.9565048 16.0373523,38.5961256 15.0245304,38.8272756 C14.0132764,39.0410103 12.6414201,38.830442 11.2695639,38.0926617 C9.75189891,37.2440558 7.94888782,37.3501316 6.79025724,37.1395633 C6.21172586,37.0350708 5.83230963,36.8213362 5.65671199,36.5046922 C5.48268221,36.1896315 5.47954655,35.5531771 5.84955578,34.5573319 L5.84955578,34.5525822 L5.85269147,34.5478325 C6.03612826,34.0190371 5.89972655,33.355668 5.81035988,32.7762096 C5.72412891,32.1413385 5.68022952,31.6537067 5.87777684,31.287983 C6.12863054,30.7591876 6.49863977,30.6562783 6.95801563,30.4441268 C7.42052718,30.2303922 7.96299831,30.1243164 8.39415314,29.7015967 L8.39728884,29.7015967 L8.39728884,29.6968471 C8.79865478,29.2725442 9.09497573,28.745332 9.44460308,28.3701089 C9.74249186,28.0518817 10.0403806,27.838147 10.4840782,27.838147 L10.4840782,27.838147 Z M21.7082141,13.4720106 C21.0262055,13.7902378 20.2266093,14.3190332 19.3752745,14.3190332 C18.5255076,14.3190332 17.8544739,13.8963135 17.3700126,13.5812528 C17.1269981,13.3691013 16.9310186,13.1569499 16.7836421,13.0508742 C16.526517,12.8387227 16.5578738,12.5220788 16.6676222,12.5220787 C16.8385163,12.5474103 16.869873,12.7358134 16.9796215,12.8403059 C17.1301338,12.9447985 17.3167062,13.1553667 17.5456103,13.3675181 C18.0018504,13.6841621 18.6117385,14.1068818 19.3737067,14.1068818 C20.134107,14.1068818 21.0246377,13.6841621 21.565541,13.3691013 C21.871269,13.1553667 22.2632279,12.8403059 22.5814986,12.6297377 C22.8260809,12.4128366 22.8151061,12.2054348 23.0189247,12.2054348 C23.2211755,12.2307663 23.0722312,12.4175862 22.7884529,12.732647 C22.4406889,12.9982232 22.0796082,13.2455331 21.7066462,13.4735939 L21.7066462,13.4720106 L21.7082141,13.4720106 Z M20.0118158,10.9641905 L20.0118158,10.9293596 C20.0024088,10.8992785 20.0321977,10.8628644 20.0572831,10.8501986 C20.1733029,10.7821202 20.3394935,10.8074517 20.4649204,10.8565315 C20.563694,10.8565315 20.7157741,10.9626073 20.7000957,11.0702662 C20.6906887,11.147844 20.5668297,11.1747587 20.4884379,11.1747587 C20.4022069,11.1747587 20.344197,11.1066803 20.267373,11.0670998 C20.1858456,11.0386018 20.038469,11.054434 20.0118158,10.9641905 L20.0118158,10.9641905 Z M19.1479383,10.9641905 C19.1165816,11.0560172 18.9707729,11.0417683 18.8876776,11.068683 C18.8139893,11.1082635 18.7528437,11.1763419 18.6697485,11.1763419 C18.5897888,11.1763419 18.464362,11.1462607 18.454955,11.068683 C18.4408444,10.9641905 18.5929245,10.8581147 18.6901303,10.8581147 C18.817125,10.8090349 18.9786121,10.7837034 19.0961998,10.8501986 C19.1259887,10.8644476 19.1526419,10.8976952 19.1432348,10.9293596 L19.1432348,10.9626073 L19.1479383,10.9626073 L19.1479383,10.9641905 Z" id="形状"></path>
                    </g>
                </g>
            </g>
        </g>
    </g>
</svg>