<?xml version="1.0" encoding="UTF-8"?>
<svg width="16px" height="16px" viewBox="0 0 16 16" version="1.1" xmlns="http://www.w3.org/2000/svg" xmlns:xlink="http://www.w3.org/1999/xlink">
    <title>按钮</title>
    <g id="页面-1" stroke="none" stroke-width="1" fill="none" fill-rule="evenodd">
        <g id="download-apps-linux" transform="translate(-423.000000, -1474.000000)" fill="#807D7C" fill-rule="nonzero">
            <g id="内容" transform="translate(319.011121, 1057.000000)">
                <g id="编组-4" transform="translate(0.988879, 0.000000)">
                    <g id="按钮" transform="translate(51.000000, 399.000000)">
                        <g id="编组" transform="translate(52.000000, 18.000000)">
                            <path d="M7.78018133,0.5 C7.69395037,0.5 7.60493775,0.504999648 7.51369984,0.513124057 C5.16209799,0.721234132 5.78574257,3.51728362 5.75013752,4.4490918 C5.70730021,5.13216782 5.58323888,5.67025423 5.16543596,6.3370814 C4.67308497,6.9939093 3.98212459,8.05570815 3.65444692,9.16250378 C3.49978752,9.6824665 3.42635212,10.2149283 3.49478056,10.7180172 C3.46920406,10.7410176 3.44817317,10.7697509 3.43302807,10.8023862 C3.28838258,10.9698742 3.18323643,11.1779842 3.06473839,11.3267236 C2.95402896,11.4510897 2.79491892,11.4935866 2.62134435,11.5767057 C2.44721343,11.6616996 2.25527999,11.7448186 2.14067626,12.0023001 C2.09060666,12.1197917 2.06501554,12.2479075 2.06724085,12.3778982 C2.06724085,12.5022643 2.08226173,12.6285052 2.09783894,12.7128742 C2.13010601,12.9622313 2.16237309,13.1684665 2.11953576,13.3190807 C1.98156622,13.7440502 1.96432001,14.0352793 2.06112124,14.2471391 C2.15792245,14.4558742 2.35875715,14.5402431 2.58351398,14.6227372 C3.03469663,14.7477282 3.64610199,14.7071061 4.1273264,14.9970854 C4.64248688,15.2889394 5.16543596,15.4164303 5.58268257,15.2908143 C5.87531152,15.2189445 6.12232151,15.0014601 6.25472776,14.7002316 C6.58129277,14.6983568 6.93901218,14.5321187 7.51203085,14.4914966 C7.90090469,14.4552492 8.38769239,14.6583596 8.94624651,14.6158627 C8.96015473,14.7002316 8.98129522,14.7402288 9.00966799,14.8245977 L9.01133698,14.8264726 C9.22886153,15.3126877 9.63053093,15.5339219 10.0594604,15.4957996 C10.48839,15.4583023 10.9451359,15.1608236 11.3150945,14.6796081 C11.666138,14.2015174 12.2513959,14.0021567 12.6380444,13.7403005 C12.8316469,13.6159344 12.9879753,13.4471965 12.9991018,13.2072137 C13.0118974,12.9572316 12.8883924,12.6997501 12.6018831,12.3466504 L12.6018831,12.2860298 L12.6002141,12.2841549 C12.5056382,12.1591639 12.4611319,11.9498039 12.4121749,11.7054464 C12.364887,11.4548394 12.3109231,11.2142316 12.1384612,11.0517433 L12.1367922,11.0517433 C12.1039688,11.0179957 12.0683637,11.0098713 12.0322024,10.9673743 C12.0010926,10.9429734 11.9644117,10.9290936 11.9264999,10.9273772 C12.1662776,10.1286845 12.0733707,9.3337415 11.830255,8.61879277 C11.5337318,7.73760597 11.0152333,6.970161 10.6202399,6.44207388 C10.1774021,5.81399392 9.74346568,5.21903659 9.75181061,4.33659986 C9.76683149,2.99169631 9.88366054,0.503749729 7.78018133,0.5 L7.78018133,0.5 Z M8.07447927,2.62797235 L8.08171154,2.62797235 C8.20020958,2.62797235 8.30201774,2.66671961 8.40660756,2.75171352 C8.51286636,2.83608247 8.59019606,2.95919864 8.65083591,3.08481463 C8.70925044,3.24667803 8.73873586,3.37166907 8.74318648,3.53728218 C8.74318648,3.52478307 8.74652447,3.51228397 8.74652447,3.50040983 L8.74652447,3.56540516 C8.74529968,3.56115147 8.74455214,3.55674274 8.74429915,3.55228111 L8.74207383,3.53728218 C8.74095331,3.68916252 8.71257079,3.83922829 8.65862451,3.97850054 C8.63264559,4.05685769 8.59227039,4.1281918 8.54012647,4.18786053 C8.52436224,4.17786118 8.5080047,4.16909113 8.49116954,4.16161242 C8.43275501,4.13348943 8.38046011,4.12161528 8.33261583,4.07849338 C8.29315017,4.06078624 8.25238329,4.04698479 8.21077982,4.03724633 C8.23803994,4.00037397 8.29144749,3.95412729 8.31203167,3.9135052 C8.34151709,3.83351094 8.35765063,3.74851703 8.3609886,3.66227323 L8.3609886,3.65039907 C8.36224712,3.56552263 8.35077473,3.48101396 8.32705254,3.400417 C8.30201774,3.31604806 8.27086333,3.27480102 8.22524438,3.19168196 C8.17851277,3.15043492 8.13233746,3.10918788 8.07670458,3.10918789 L8.06780332,3.10918789 C8.01606474,3.10918789 7.96988945,3.12793655 7.92204517,3.19168196 C7.86921199,3.2495625 7.83002031,3.321293 7.80799777,3.400417 C7.77845033,3.47982381 7.76150473,3.56442799 7.75792817,3.65039907 L7.75792817,3.66227323 C7.75904083,3.71789423 7.76237881,3.77414021 7.76905475,3.82913626 C7.66168329,3.78726426 7.52538273,3.74476731 7.43136317,3.7028953 C7.42577126,3.66170805 7.42242704,3.62017515 7.42134925,3.57852922 L7.42134925,3.56603012 C7.41689566,3.40084534 7.445409,3.23663503 7.50479858,3.08543958 C7.55041754,2.9485744 7.63386686,2.83170779 7.74401996,2.75233847 C7.83919037,2.67159032 7.95521356,2.62792579 8.07447927,2.62797235 L8.07447927,2.62797235 Z M6.42663335,2.66484475 L6.44666119,2.66484475 C6.52565988,2.66484475 6.59686997,2.6948426 6.66863638,2.7492137 C6.7498604,2.82983291 6.81550719,2.92920079 6.86001349,3.03981786 C6.91008309,3.16418394 6.93845586,3.29042488 6.9451318,3.45666296 L6.9451318,3.45916279 C6.94902609,3.54290678 6.94846977,3.58477877 6.94401915,3.62540086 L6.94401915,3.67539728 C6.92732928,3.67977197 6.91286473,3.68664649 6.89784384,3.6903962 C6.81328186,3.72476874 6.74540975,3.77476514 6.67920664,3.81538723 C6.68588258,3.75976623 6.68643892,3.70352026 6.68087561,3.6485242 L6.68087561,3.63914987 C6.67419967,3.55603083 6.65917879,3.51478379 6.63525665,3.4310398 C6.6179097,3.36734586 6.58607927,3.30983325 6.54290608,3.26417677 C6.51520683,3.23587881 6.47845928,3.22144189 6.4410979,3.22417964 L6.429415,3.22417964 C6.38991565,3.22792937 6.35709226,3.24980281 6.32593785,3.30667372 C6.29044894,3.35506012 6.26736893,3.41339599 6.25917838,3.47541162 C6.24407481,3.54297559 6.23974272,3.61301055 6.24638283,3.68227179 L6.24638283,3.69102117 C6.25305877,3.77539011 6.26696699,3.81663715 6.29144545,3.89975619 C6.31648025,3.98350018 6.34540934,4.02474723 6.38323971,4.06724418 C6.38935933,4.07286878 6.39492261,4.07849338 6.40215488,4.08224311 C6.36321186,4.11786555 6.33706441,4.12598997 6.30424102,4.167237 C6.28341156,4.1878917 6.25838579,4.20248463 6.23136194,4.20973396 C6.17353402,4.13150592 6.12231612,4.04739887 6.07837153,3.95850197 C6.02577444,3.82717358 5.99648396,3.68558188 5.99214055,3.54165687 C5.98292746,3.40057955 5.99803925,3.25883063 6.03664686,3.1241868 C6.0672902,3.00139413 6.12097276,2.8873907 6.19408791,2.78983579 C6.265298,2.70671675 6.3387334,2.66484475 6.42663335,2.66484475 L6.42663335,2.66484475 Z M7.18936015,3.73101829 C7.37350498,3.73101829 7.59659283,3.77164038 7.86529964,3.98037541 C8.02830397,4.10536644 8.1562596,4.14848836 8.45111387,4.27285443 L8.45278285,4.27285443 C8.5946467,4.35784834 8.67809601,4.43909251 8.71870802,4.52221155 L8.71870802,4.44034243 C8.759095,4.53227068 8.76233756,4.63927056 8.72760928,4.73407136 C8.65918084,4.92843243 8.44054362,5.1365425 8.13567543,5.26090857 L8.13567543,5.26215849 C7.98657932,5.34652744 7.8569547,5.47026857 7.70452062,5.55276265 C7.55097387,5.6371316 7.37739928,5.73524957 7.14151587,5.71962568 C7.05677977,5.72455438 6.9720255,5.71031551 6.89228056,5.67775369 C6.83066247,5.6400934 6.77086587,5.59878834 6.71314269,5.55401256 C6.60465858,5.46964361 6.51119534,5.34652744 6.37266946,5.2634084 L6.37266946,5.26028362 L6.36988782,5.26028362 C6.1473563,5.10654465 6.02718928,4.94030657 5.98824626,4.81594048 C5.94985958,4.6484525 5.98546461,4.5228365 6.09561772,4.44096738 C6.22023537,4.35659843 6.30702266,4.27160452 6.36432453,4.23098243 C6.42218272,4.18473575 6.44387955,4.167237 6.46223839,4.14911331 L6.46335106,4.14911331 L6.46335106,4.14723844 C6.55737062,4.0209975 6.70591041,3.85413445 6.93011092,3.77164038 C7.00744063,3.749142 7.09367159,3.73101829 7.18936015,3.73101829 L7.18936015,3.73101829 Z M8.74652447,5.07029725 C8.94624651,5.95585875 9.41245005,7.24201651 9.71231127,7.86572178 C9.87142131,8.19944784 10.1879724,8.90252243 10.3253856,9.75558624 C10.4121729,9.75246146 10.5084178,9.76683544 10.6107823,9.79558338 C10.9701707,8.75128328 10.3070267,7.62886377 10.0049402,7.31701112 C9.88199156,7.19139514 9.87587194,7.10765114 9.93651178,7.10765114 C10.2641894,7.44137721 10.6959006,8.09008069 10.852229,8.83065257 C10.9239954,9.1650036 10.9406853,9.5206031 10.8639119,9.87432772 C10.9011859,9.89182646 10.9390163,9.91244999 10.9779593,9.91619973 C11.5520906,10.2499258 11.7640519,10.5024077 11.6622437,10.8767558 L11.6622437,10.8498828 C11.6283077,10.8480079 11.5954843,10.8498828 11.5615482,10.8498828 L11.5532033,10.8498828 C11.6372089,10.5580287 11.4519514,10.3342947 10.9607131,10.0849376 C10.4516722,9.83495555 10.0449959,9.87495267 9.97545479,10.3755418 C9.97156049,10.4024149 9.96877884,10.4167888 9.9659972,10.4599107 C9.92816684,10.4742847 9.8886675,10.4930334 9.84972448,10.4999079 C9.61050309,10.6673958 9.48143481,10.9180029 9.40855574,11.2417297 C9.336233,11.5748308 9.31397984,11.9641779 9.29450833,12.4097709 L9.29450833,12.4116458 C9.28282543,12.6203808 9.19937611,12.9353582 9.11703945,13.2559602 C8.28254624,13.9259122 7.12538234,14.2171413 6.14123668,13.4646953 C6.07951173,13.3434962 6.00436524,13.2315712 5.9175925,13.1315941 C5.87617502,13.0538126 5.82460429,12.9834512 5.76460207,12.9228591 C5.86585392,12.9228591 5.95264121,12.9047354 6.02329497,12.8809871 C6.10329506,12.8392992 6.16587627,12.7645205 6.19798222,12.6722521 C6.25806573,12.505389 6.19798222,12.2366583 6.00604878,11.9454292 C5.81411534,11.6535751 5.48810666,11.3235988 5.01133288,10.9948724 C4.66084574,10.7455153 4.46279268,10.4511614 4.37155475,10.1224349 C4.2797605,9.78870887 4.29199973,9.44435856 4.36320982,9.09438367 C4.49951038,8.42568162 4.84888487,7.77572824 5.07197272,7.3676325 C5.1314999,7.32701041 5.09255688,7.45200144 4.84499057,7.97633884 C4.62468437,8.44568019 4.21021941,9.53685193 4.77711846,10.3849161 C4.79852354,9.76614745 4.92051302,9.15699739 5.13706319,8.58754501 C5.45083263,7.78885228 6.1067443,6.39770204 6.15848287,5.29528111 C6.18518665,5.3177795 6.27920622,5.37965005 6.31926189,5.42152207 C6.44054158,5.5046411 6.53066683,5.62963214 6.6474959,5.71212621 C6.76488127,5.8377422 6.91286473,5.92148619 7.13483992,5.92148621 C7.15653675,5.92336108 7.17656459,5.92523594 7.19659241,5.92523594 C7.42524355,5.92523594 7.6021561,5.84149194 7.75069591,5.75774795 C7.91203126,5.67400396 8.04054321,5.54901292 8.16237921,5.50776587 L8.16516086,5.50776587 C8.4249664,5.42339692 8.63025173,5.25653388 8.74652447,5.07029725 L8.74652447,5.07029725 Z M9.96265923,10.6686458 C9.98324339,11.0442438 10.15348,11.446715 10.4533412,11.5292091 C10.7804626,11.612953 11.2511167,11.321099 11.4497261,11.0511183 L11.5671115,11.0454937 C11.7423551,11.0404941 11.8881132,11.0517433 12.038322,11.2123568 L12.039991,11.2142316 C12.1557074,11.3385977 12.2096713,11.5460828 12.2575155,11.7616924 C12.3048035,12.0122994 12.3431902,12.2491574 12.485054,12.4278946 C12.7554298,12.757246 12.8438861,12.994104 12.8388791,13.1403435 L12.8405481,13.1365938 L12.8405481,13.147843 L12.8388791,13.1403435 C12.8305342,13.3040818 12.7359583,13.3878258 12.5618274,13.5121918 C12.2113402,13.7627989 11.5904773,13.9571599 11.1949275,14.4933715 C10.8511163,14.9539634 10.4322007,15.2051954 10.0622421,15.2376931 C9.69283976,15.2708157 9.37406335,15.1127021 9.18658054,14.6764834 L9.1837989,14.6746085 C9.06696985,14.4240015 9.11703945,14.0340294 9.21495331,13.6184342 C9.31286718,13.2009642 9.45306205,12.7778695 9.47253356,12.4322693 C9.49311772,11.9860513 9.51481455,11.5979541 9.58101767,11.2986006 C9.64777712,11.0079964 9.75236694,10.8005113 9.93762443,10.6836447 L9.96265923,10.6698957 L9.96265923,10.6686458 Z M3.94596322,10.6992686 L3.95152651,10.6992686 C3.98101193,10.6992686 4.00994104,10.7023933 4.03887013,10.7080179 C4.24804975,10.7423905 4.43163826,10.916128 4.60799449,11.1779842 L5.11425371,12.2179097 L5.1159227,12.2197845 C5.25111059,12.5528856 5.53539461,12.8847368 5.77739764,13.2434611 C6.01884434,13.6171843 6.20577081,13.9502854 6.18296133,14.2246407 L6.18296133,14.2283905 C6.15125059,14.6933571 5.91647983,14.945839 5.55709144,15.0370825 C5.19825936,15.1214514 4.71147166,15.0383324 4.22468396,14.7471033 C3.68615768,14.4121273 3.04637955,14.4539993 2.63525257,14.3708803 C2.42996724,14.3296332 2.29533567,14.2452643 2.23302683,14.1202732 C2.17127433,13.9959072 2.17016168,13.7446752 2.30145528,13.3515784 L2.30145528,13.3497035 L2.30256794,13.3478286 C2.36765841,13.1390936 2.31925781,12.8772374 2.28754705,12.6485038 C2.25694897,12.3978968 2.24137177,12.2054106 2.3114692,12.0610459 C2.40048181,11.8523109 2.5317754,11.8116888 2.69477974,11.7279448 C2.85889674,11.6435759 3.0513865,11.6017039 3.20437692,11.4348408 L3.20548959,11.4348408 L3.20548959,11.432966 C3.34790976,11.265478 3.45305591,11.0573679 3.57711722,10.9092535 C3.68281969,10.7836375 3.78852216,10.6992686 3.94596322,10.6992686 L3.94596322,10.6992686 Z M7.92872112,5.02842525 C7.68671809,5.15404124 7.40299039,5.36277627 7.10090387,5.36277627 C6.79937365,5.36277627 6.56126492,5.19591324 6.38935933,5.07154715 C6.30312837,4.98780316 6.23358726,4.90405917 6.18129235,4.86218718 C6.09005443,4.77844318 6.10118101,4.65345215 6.14012402,4.65345213 C6.20076385,4.66345141 6.21189043,4.73782108 6.25083345,4.77906814 C6.30424102,4.82031518 6.37044414,4.90343422 6.45166815,4.98717821 C6.61355984,5.11216925 6.82997174,5.27903228 7.10034754,5.27903228 C7.37016701,5.27903228 7.68616177,5.11216925 7.87809521,4.98780316 C7.98657932,4.90343422 8.12566152,4.77906814 8.23859626,4.6959491 C8.32538355,4.61033023 8.32148925,4.5284611 8.393812,4.5284611 C8.46557842,4.53846038 8.41272719,4.61220509 8.31203167,4.73657117 C8.18863154,4.84140388 8.06050615,4.93902624 7.92816479,5.02905021 L7.92816479,5.02842525 L7.92872112,5.02842525 Z M7.32677336,4.03849624 L7.32677336,4.02474723 C7.32343539,4.01287308 7.33400564,3.99849911 7.3429069,3.99349947 C7.38407522,3.9666264 7.44304608,3.97662568 7.48755239,3.99599929 C7.5226011,3.99599929 7.57656499,4.03787129 7.5710017,4.08036823 C7.56766373,4.11099104 7.52371375,4.12161528 7.49589731,4.12161528 C7.46529922,4.12161528 7.44471506,4.09474221 7.41745495,4.07911833 C7.38852586,4.06786913 7.33623094,4.07411868 7.32677336,4.03849624 L7.32677336,4.03849624 Z M7.02023618,4.03849624 C7.0091096,4.07474363 6.95737103,4.06911905 6.92788561,4.07974328 C6.90173815,4.09536716 6.88004133,4.12224023 6.8505559,4.12224023 C6.82218313,4.12224023 6.77767683,4.11036608 6.77433885,4.07974328 C6.76933189,4.03849624 6.82329579,3.99662424 6.85778817,3.99662424 C6.90285081,3.97725063 6.96015267,3.96725135 7.00187734,3.99349947 C7.01244759,3.99912407 7.02190517,4.01224812 7.0185672,4.02474723 L7.0185672,4.03787129 L7.02023618,4.03787129 L7.02023618,4.03849624 Z" id="形状"></path>
                        </g>
                    </g>
                </g>
            </g>
        </g>
    </g>
</svg>