<?xml version="1.0" encoding="UTF-8"?>
<svg width="16px" height="16px" viewBox="0 0 16 16" version="1.1" xmlns="http://www.w3.org/2000/svg" xmlns:xlink="http://www.w3.org/1999/xlink">
    <title>按钮</title>
    <g id="页面-1" stroke="none" stroke-width="1" fill="none" fill-rule="evenodd">
        <g id="download-apps-macOS" transform="translate(-423.000000, -1474.000000)" fill="#807D7C" fill-rule="nonzero">
            <g id="编组-4" transform="translate(320.000000, 1057.000000)">
                <g id="按钮" transform="translate(51.000000, 399.000000)">
                    <g id="编组" transform="translate(52.000000, 18.000000)">
                        <path d="M13,11.2664557 C12.9797298,11.32248 12.7162168,12.2818964 12.0675695,13.2623219 C11.5,14.1166927 10.9189233,14.9710635 10,14.9850696 C9.09460282,14.9990757 8.80406289,14.4248265 7.77028128,14.4248265 C6.73649967,14.4248265 6.41217603,14.9710635 5.55406973,14.9990757 C4.66893646,15.0340909 3.98650547,14.0676715 3.41893909,13.2203037 C2.26353612,11.497556 1.37164611,8.3111731 2.56758953,6.18224913 C3.15542613,5.11778715 4.21623471,4.43849233 5.36488094,4.41748321 C6.22974399,4.40347713 7.06082332,5.02674764 7.58784923,5.02674764 C8.12838864,5.02674764 9.12838653,4.27041938 10.1824384,4.38246801 C10.6216266,4.40347713 11.8581105,4.57155008 12.6486494,5.76906981 C12.5878387,5.81108804 11.1756795,6.67946493 11.189193,8.43722781 C11.2027065,10.5591487 12.9797298,11.2594527 13,11.2664557 M9.48649388,3.24797564 C9.95946586,2.64571425 10.2770328,1.81935561 10.1891951,1 C9.51352085,1.02801216 8.68244152,1.46920364 8.19595606,2.06446198 C7.76352454,2.5826869 7.37839022,3.42305162 7.4864981,4.23540419 C8.23649652,4.27742242 9.01352191,3.82222486 9.48649388,3.24797564" id="形状"></path>
                    </g>
                </g>
            </g>
        </g>
    </g>
</svg>